<mxfile host="app.diagrams.net" modified="2024-03-05T20:52:18.802Z" agent="Mozilla/5.0 (Windows NT 10.0; Win64; x64) AppleWebKit/537.36 (KHTML, like Gecko) Chrome/122.0.0.0 Safari/537.36" etag="snJ70FUSgXv_Ttz2Hx_o" version="24.0.1" type="device">
  <diagram name="1 oldal" id="piJF8_BZ4FbkOGlX9JzV">
    <mxGraphModel dx="5654" dy="742" grid="1" gridSize="2" guides="0" tooltips="1" connect="1" arrows="1" fold="1" page="1" pageScale="1" pageWidth="827" pageHeight="1169" math="0" shadow="0">
      <root>
        <mxCell id="0" />
        <mxCell id="1" parent="0" />
        <mxCell id="GC0I484NQkUeu95godri-200" value="" style="group" vertex="1" connectable="0" parent="1">
          <mxGeometry x="504" y="2504" width="526" height="322" as="geometry" />
        </mxCell>
        <mxCell id="GC0I484NQkUeu95godri-201" value="" style="rounded=0;whiteSpace=wrap;html=1;" vertex="1" parent="GC0I484NQkUeu95godri-200">
          <mxGeometry width="431.1475409836065" height="287.42281879194627" as="geometry" />
        </mxCell>
        <mxCell id="GC0I484NQkUeu95godri-202" value="" style="endArrow=none;html=1;rounded=0;exitX=0;exitY=0.25;exitDx=0;exitDy=0;entryX=1;entryY=0.25;entryDx=0;entryDy=0;" edge="1" parent="GC0I484NQkUeu95godri-200">
          <mxGeometry width="50" height="50" relative="1" as="geometry">
            <mxPoint y="28.09395973154362" as="sourcePoint" />
            <mxPoint x="431.1475409836065" y="28.09395973154362" as="targetPoint" />
          </mxGeometry>
        </mxCell>
        <mxCell id="GC0I484NQkUeu95godri-204" value="&lt;font style=&quot;font-size: 11px;&quot;&gt;1&lt;/font&gt;" style="text;html=1;align=center;verticalAlign=middle;resizable=0;points=[];autosize=1;strokeColor=none;fillColor=none;" vertex="1" parent="GC0I484NQkUeu95godri-200">
          <mxGeometry x="12.933111755297881" y="-2.161600916680305" width="30" height="30" as="geometry" />
        </mxCell>
        <mxCell id="GC0I484NQkUeu95godri-206" value="" style="endArrow=none;html=1;rounded=0;entryX=0.25;entryY=0;entryDx=0;entryDy=0;" edge="1" parent="GC0I484NQkUeu95godri-200">
          <mxGeometry width="50" height="50" relative="1" as="geometry">
            <mxPoint x="64.67213114754098" y="28.09395973154362" as="sourcePoint" />
            <mxPoint x="64.67213114754074" as="targetPoint" />
          </mxGeometry>
        </mxCell>
        <mxCell id="GC0I484NQkUeu95godri-207" value="" style="group" vertex="1" connectable="0" parent="GC0I484NQkUeu95godri-200">
          <mxGeometry x="20" y="38" width="149.51" height="79" as="geometry" />
        </mxCell>
        <mxCell id="GC0I484NQkUeu95godri-208" value="Érvényes bejelentkezés?" style="rounded=0;whiteSpace=wrap;html=1;" vertex="1" parent="GC0I484NQkUeu95godri-207">
          <mxGeometry width="131.67" height="66" as="geometry" />
        </mxCell>
        <mxCell id="GC0I484NQkUeu95godri-209" value="" style="endArrow=none;html=1;rounded=0;exitX=0;exitY=0.25;exitDx=0;exitDy=0;entryX=1;entryY=0.25;entryDx=0;entryDy=0;" edge="1" parent="GC0I484NQkUeu95godri-207" source="GC0I484NQkUeu95godri-208" target="GC0I484NQkUeu95godri-208">
          <mxGeometry width="50" height="50" relative="1" as="geometry">
            <mxPoint x="49.83666666666667" y="62.449999999999996" as="sourcePoint" />
            <mxPoint x="112.13250000000002" as="targetPoint" />
          </mxGeometry>
        </mxCell>
        <mxCell id="GC0I484NQkUeu95godri-211" value="&lt;font style=&quot;font-size: 11px;&quot;&gt;1.1&lt;/font&gt;" style="text;html=1;align=center;verticalAlign=middle;resizable=0;points=[];autosize=1;strokeColor=none;fillColor=none;" vertex="1" parent="GC0I484NQkUeu95godri-207">
          <mxGeometry x="-4.000121951219513" y="-5.9956097560975605" width="34" height="28" as="geometry" />
        </mxCell>
        <mxCell id="GC0I484NQkUeu95godri-345" value="" style="endArrow=none;html=1;rounded=0;" edge="1" parent="GC0I484NQkUeu95godri-207">
          <mxGeometry width="50" height="50" relative="1" as="geometry">
            <mxPoint x="28" y="16" as="sourcePoint" />
            <mxPoint x="28" as="targetPoint" />
          </mxGeometry>
        </mxCell>
        <mxCell id="GC0I484NQkUeu95godri-1745" value="" style="group" vertex="1" connectable="0" parent="GC0I484NQkUeu95godri-207">
          <mxGeometry x="112" y="48" width="24" height="31" as="geometry" />
        </mxCell>
        <mxCell id="GC0I484NQkUeu95godri-1746" value="" style="endArrow=none;html=1;rounded=0;" edge="1" parent="GC0I484NQkUeu95godri-1745">
          <mxGeometry width="50" height="50" relative="1" as="geometry">
            <mxPoint y="18" as="sourcePoint" />
            <mxPoint x="18" as="targetPoint" />
          </mxGeometry>
        </mxCell>
        <mxCell id="GC0I484NQkUeu95godri-1747" value="&lt;font style=&quot;font-size: 13px;&quot;&gt;*&lt;/font&gt;" style="text;html=1;align=center;verticalAlign=middle;resizable=0;points=[];autosize=1;strokeColor=none;fillColor=none;" vertex="1" parent="GC0I484NQkUeu95godri-1745">
          <mxGeometry y="1" width="24" height="30" as="geometry" />
        </mxCell>
        <mxCell id="GC0I484NQkUeu95godri-350" value="" style="group" vertex="1" connectable="0" parent="GC0I484NQkUeu95godri-200">
          <mxGeometry x="20" y="118" width="149.51" height="79" as="geometry" />
        </mxCell>
        <mxCell id="GC0I484NQkUeu95godri-351" value="Érvényes regisztráció?" style="rounded=0;whiteSpace=wrap;html=1;" vertex="1" parent="GC0I484NQkUeu95godri-350">
          <mxGeometry width="131.67" height="66" as="geometry" />
        </mxCell>
        <mxCell id="GC0I484NQkUeu95godri-352" value="" style="endArrow=none;html=1;rounded=0;exitX=0;exitY=0.25;exitDx=0;exitDy=0;entryX=1;entryY=0.25;entryDx=0;entryDy=0;" edge="1" parent="GC0I484NQkUeu95godri-350" source="GC0I484NQkUeu95godri-351" target="GC0I484NQkUeu95godri-351">
          <mxGeometry width="50" height="50" relative="1" as="geometry">
            <mxPoint x="49.83666666666667" y="62.449999999999996" as="sourcePoint" />
            <mxPoint x="112.13250000000002" as="targetPoint" />
          </mxGeometry>
        </mxCell>
        <mxCell id="GC0I484NQkUeu95godri-353" value="&lt;font style=&quot;font-size: 11px;&quot;&gt;1.2&lt;/font&gt;" style="text;html=1;align=center;verticalAlign=middle;resizable=0;points=[];autosize=1;strokeColor=none;fillColor=none;" vertex="1" parent="GC0I484NQkUeu95godri-350">
          <mxGeometry x="-4.000121951219513" y="-5.9956097560975605" width="34" height="28" as="geometry" />
        </mxCell>
        <mxCell id="GC0I484NQkUeu95godri-354" value="" style="endArrow=none;html=1;rounded=0;" edge="1" parent="GC0I484NQkUeu95godri-350">
          <mxGeometry width="50" height="50" relative="1" as="geometry">
            <mxPoint x="28" y="16" as="sourcePoint" />
            <mxPoint x="28" as="targetPoint" />
          </mxGeometry>
        </mxCell>
        <mxCell id="GC0I484NQkUeu95godri-1748" value="" style="group" vertex="1" connectable="0" parent="GC0I484NQkUeu95godri-350">
          <mxGeometry x="114" y="48" width="24" height="31" as="geometry" />
        </mxCell>
        <mxCell id="GC0I484NQkUeu95godri-1749" value="" style="endArrow=none;html=1;rounded=0;" edge="1" parent="GC0I484NQkUeu95godri-1748">
          <mxGeometry width="50" height="50" relative="1" as="geometry">
            <mxPoint y="18" as="sourcePoint" />
            <mxPoint x="18" as="targetPoint" />
          </mxGeometry>
        </mxCell>
        <mxCell id="GC0I484NQkUeu95godri-1750" value="&lt;font style=&quot;font-size: 13px;&quot;&gt;*&lt;/font&gt;" style="text;html=1;align=center;verticalAlign=middle;resizable=0;points=[];autosize=1;strokeColor=none;fillColor=none;" vertex="1" parent="GC0I484NQkUeu95godri-1748">
          <mxGeometry y="1" width="24" height="30" as="geometry" />
        </mxCell>
        <mxCell id="GC0I484NQkUeu95godri-355" value="" style="group" vertex="1" connectable="0" parent="GC0I484NQkUeu95godri-200">
          <mxGeometry x="224" y="208" width="149.51" height="79" as="geometry" />
        </mxCell>
        <mxCell id="GC0I484NQkUeu95godri-356" value="Jogok beállítása, főoldal megnyitása" style="rounded=0;whiteSpace=wrap;html=1;" vertex="1" parent="GC0I484NQkUeu95godri-355">
          <mxGeometry width="131.67" height="66" as="geometry" />
        </mxCell>
        <mxCell id="GC0I484NQkUeu95godri-357" value="" style="endArrow=none;html=1;rounded=0;exitX=0;exitY=0.25;exitDx=0;exitDy=0;entryX=1;entryY=0.25;entryDx=0;entryDy=0;" edge="1" parent="GC0I484NQkUeu95godri-355" source="GC0I484NQkUeu95godri-356" target="GC0I484NQkUeu95godri-356">
          <mxGeometry width="50" height="50" relative="1" as="geometry">
            <mxPoint x="49.83666666666667" y="62.449999999999996" as="sourcePoint" />
            <mxPoint x="112.13250000000002" as="targetPoint" />
          </mxGeometry>
        </mxCell>
        <mxCell id="GC0I484NQkUeu95godri-358" value="&lt;font style=&quot;font-size: 11px;&quot;&gt;1.5&lt;/font&gt;" style="text;html=1;align=center;verticalAlign=middle;resizable=0;points=[];autosize=1;strokeColor=none;fillColor=none;" vertex="1" parent="GC0I484NQkUeu95godri-355">
          <mxGeometry x="-4.000121951219513" y="-5.9956097560975605" width="34" height="28" as="geometry" />
        </mxCell>
        <mxCell id="GC0I484NQkUeu95godri-359" value="" style="endArrow=none;html=1;rounded=0;" edge="1" parent="GC0I484NQkUeu95godri-355">
          <mxGeometry width="50" height="50" relative="1" as="geometry">
            <mxPoint x="28" y="16" as="sourcePoint" />
            <mxPoint x="28" as="targetPoint" />
          </mxGeometry>
        </mxCell>
        <mxCell id="GC0I484NQkUeu95godri-1751" value="" style="group" vertex="1" connectable="0" parent="GC0I484NQkUeu95godri-355">
          <mxGeometry x="114" y="48" width="24" height="31" as="geometry" />
        </mxCell>
        <mxCell id="GC0I484NQkUeu95godri-1752" value="" style="endArrow=none;html=1;rounded=0;" edge="1" parent="GC0I484NQkUeu95godri-1751">
          <mxGeometry width="50" height="50" relative="1" as="geometry">
            <mxPoint y="18" as="sourcePoint" />
            <mxPoint x="18" as="targetPoint" />
          </mxGeometry>
        </mxCell>
        <mxCell id="GC0I484NQkUeu95godri-1753" value="&lt;font style=&quot;font-size: 13px;&quot;&gt;*&lt;/font&gt;" style="text;html=1;align=center;verticalAlign=middle;resizable=0;points=[];autosize=1;strokeColor=none;fillColor=none;" vertex="1" parent="GC0I484NQkUeu95godri-1751">
          <mxGeometry y="1" width="24" height="30" as="geometry" />
        </mxCell>
        <mxCell id="GC0I484NQkUeu95godri-360" value="" style="group" vertex="1" connectable="0" parent="GC0I484NQkUeu95godri-200">
          <mxGeometry x="221" y="38" width="149.51" height="81" as="geometry" />
        </mxCell>
        <mxCell id="GC0I484NQkUeu95godri-361" value="&lt;div&gt;Érvénytelen/rövid jelszó&lt;br&gt;&lt;/div&gt;" style="rounded=0;whiteSpace=wrap;html=1;" vertex="1" parent="GC0I484NQkUeu95godri-360">
          <mxGeometry width="131.67" height="66" as="geometry" />
        </mxCell>
        <mxCell id="GC0I484NQkUeu95godri-362" value="" style="endArrow=none;html=1;rounded=0;exitX=0;exitY=0.25;exitDx=0;exitDy=0;entryX=1;entryY=0.25;entryDx=0;entryDy=0;" edge="1" parent="GC0I484NQkUeu95godri-360" source="GC0I484NQkUeu95godri-361" target="GC0I484NQkUeu95godri-361">
          <mxGeometry width="50" height="50" relative="1" as="geometry">
            <mxPoint x="49.83666666666667" y="62.449999999999996" as="sourcePoint" />
            <mxPoint x="112.13250000000002" as="targetPoint" />
          </mxGeometry>
        </mxCell>
        <mxCell id="GC0I484NQkUeu95godri-363" value="&lt;span style=&quot;font-size: 11px;&quot;&gt;1.3&lt;/span&gt;" style="text;html=1;align=center;verticalAlign=middle;resizable=0;points=[];autosize=1;strokeColor=none;fillColor=none;" vertex="1" parent="GC0I484NQkUeu95godri-360">
          <mxGeometry x="-4.000121951219513" y="-5.9956097560975605" width="34" height="28" as="geometry" />
        </mxCell>
        <mxCell id="GC0I484NQkUeu95godri-364" value="" style="endArrow=none;html=1;rounded=0;" edge="1" parent="GC0I484NQkUeu95godri-360">
          <mxGeometry width="50" height="50" relative="1" as="geometry">
            <mxPoint x="28" y="16" as="sourcePoint" />
            <mxPoint x="28" as="targetPoint" />
          </mxGeometry>
        </mxCell>
        <mxCell id="GC0I484NQkUeu95godri-1754" value="" style="group" vertex="1" connectable="0" parent="GC0I484NQkUeu95godri-360">
          <mxGeometry x="113" y="48" width="24" height="31" as="geometry" />
        </mxCell>
        <mxCell id="GC0I484NQkUeu95godri-1755" value="" style="endArrow=none;html=1;rounded=0;" edge="1" parent="GC0I484NQkUeu95godri-1754">
          <mxGeometry width="50" height="50" relative="1" as="geometry">
            <mxPoint y="18" as="sourcePoint" />
            <mxPoint x="18" as="targetPoint" />
          </mxGeometry>
        </mxCell>
        <mxCell id="GC0I484NQkUeu95godri-1756" value="&lt;font style=&quot;font-size: 13px;&quot;&gt;*&lt;/font&gt;" style="text;html=1;align=center;verticalAlign=middle;resizable=0;points=[];autosize=1;strokeColor=none;fillColor=none;" vertex="1" parent="GC0I484NQkUeu95godri-1754">
          <mxGeometry y="1" width="24" height="30" as="geometry" />
        </mxCell>
        <mxCell id="GC0I484NQkUeu95godri-365" value="" style="group" vertex="1" connectable="0" parent="GC0I484NQkUeu95godri-200">
          <mxGeometry x="222" y="120" width="149.51" height="74.94" as="geometry" />
        </mxCell>
        <mxCell id="GC0I484NQkUeu95godri-369" value="" style="endArrow=none;html=1;rounded=0;" edge="1" parent="GC0I484NQkUeu95godri-365">
          <mxGeometry width="50" height="50" relative="1" as="geometry">
            <mxPoint x="28" y="16" as="sourcePoint" />
            <mxPoint x="28" as="targetPoint" />
          </mxGeometry>
        </mxCell>
        <mxCell id="GC0I484NQkUeu95godri-366" value="Foglalt email cím" style="rounded=0;whiteSpace=wrap;html=1;" vertex="1" parent="GC0I484NQkUeu95godri-200">
          <mxGeometry x="221" y="118" width="131.67" height="66" as="geometry" />
        </mxCell>
        <mxCell id="GC0I484NQkUeu95godri-380" value="" style="endArrow=classic;html=1;rounded=0;exitX=1;exitY=0.5;exitDx=0;exitDy=0;entryX=0;entryY=0.5;entryDx=0;entryDy=0;" edge="1" parent="GC0I484NQkUeu95godri-200" source="GC0I484NQkUeu95godri-208" target="GC0I484NQkUeu95godri-361">
          <mxGeometry width="50" height="50" relative="1" as="geometry">
            <mxPoint x="176" y="86" as="sourcePoint" />
            <mxPoint x="226" y="36" as="targetPoint" />
          </mxGeometry>
        </mxCell>
        <mxCell id="GC0I484NQkUeu95godri-367" value="" style="endArrow=none;html=1;rounded=0;exitX=0;exitY=0.25;exitDx=0;exitDy=0;entryX=1;entryY=0.25;entryDx=0;entryDy=0;" edge="1" parent="GC0I484NQkUeu95godri-200" source="GC0I484NQkUeu95godri-366" target="GC0I484NQkUeu95godri-366">
          <mxGeometry width="50" height="50" relative="1" as="geometry">
            <mxPoint x="271.8366666666667" y="182.45" as="sourcePoint" />
            <mxPoint x="334.13250000000005" y="120" as="targetPoint" />
          </mxGeometry>
        </mxCell>
        <mxCell id="GC0I484NQkUeu95godri-381" value="" style="endArrow=classic;html=1;rounded=0;exitX=1;exitY=0.5;exitDx=0;exitDy=0;entryX=0;entryY=0.5;entryDx=0;entryDy=0;" edge="1" parent="GC0I484NQkUeu95godri-200" source="GC0I484NQkUeu95godri-351" target="GC0I484NQkUeu95godri-366">
          <mxGeometry width="50" height="50" relative="1" as="geometry">
            <mxPoint x="177" y="160" as="sourcePoint" />
            <mxPoint x="227" y="110" as="targetPoint" />
          </mxGeometry>
        </mxCell>
        <mxCell id="GC0I484NQkUeu95godri-395" value="" style="endArrow=classic;html=1;rounded=0;exitX=1;exitY=0.75;exitDx=0;exitDy=0;entryX=0;entryY=0.5;entryDx=0;entryDy=0;" edge="1" parent="GC0I484NQkUeu95godri-200" source="GC0I484NQkUeu95godri-208" target="GC0I484NQkUeu95godri-356">
          <mxGeometry width="50" height="50" relative="1" as="geometry">
            <mxPoint x="184" y="138" as="sourcePoint" />
            <mxPoint x="234" y="88" as="targetPoint" />
            <Array as="points">
              <mxPoint x="181" y="87" />
              <mxPoint x="180" y="241" />
            </Array>
          </mxGeometry>
        </mxCell>
        <mxCell id="GC0I484NQkUeu95godri-1086" value="" style="endArrow=classic;html=1;rounded=0;exitX=1;exitY=0.25;exitDx=0;exitDy=0;entryX=-0.005;entryY=0.72;entryDx=0;entryDy=0;entryPerimeter=0;" edge="1" parent="GC0I484NQkUeu95godri-200" source="GC0I484NQkUeu95godri-351" target="GC0I484NQkUeu95godri-361">
          <mxGeometry width="50" height="50" relative="1" as="geometry">
            <mxPoint x="186" y="152" as="sourcePoint" />
            <mxPoint x="236" y="102" as="targetPoint" />
            <Array as="points">
              <mxPoint x="194" y="134" />
              <mxPoint x="194" y="86" />
            </Array>
          </mxGeometry>
        </mxCell>
        <mxCell id="GC0I484NQkUeu95godri-1757" value="" style="group" vertex="1" connectable="0" parent="GC0I484NQkUeu95godri-200">
          <mxGeometry x="334" y="166" width="24" height="31" as="geometry" />
        </mxCell>
        <mxCell id="GC0I484NQkUeu95godri-1758" value="" style="endArrow=none;html=1;rounded=0;" edge="1" parent="GC0I484NQkUeu95godri-1757">
          <mxGeometry width="50" height="50" relative="1" as="geometry">
            <mxPoint y="18" as="sourcePoint" />
            <mxPoint x="18" as="targetPoint" />
          </mxGeometry>
        </mxCell>
        <mxCell id="GC0I484NQkUeu95godri-1759" value="&lt;font style=&quot;font-size: 13px;&quot;&gt;*&lt;/font&gt;" style="text;html=1;align=center;verticalAlign=middle;resizable=0;points=[];autosize=1;strokeColor=none;fillColor=none;" vertex="1" parent="GC0I484NQkUeu95godri-1757">
          <mxGeometry y="1" width="24" height="30" as="geometry" />
        </mxCell>
        <mxCell id="GC0I484NQkUeu95godri-1812" value="&lt;span style=&quot;font-size: 11px; text-wrap: nowrap;&quot;&gt;1.4&lt;/span&gt;" style="text;html=1;align=center;verticalAlign=middle;whiteSpace=wrap;rounded=0;" vertex="1" parent="GC0I484NQkUeu95godri-200">
          <mxGeometry x="202" y="112" width="60" height="30" as="geometry" />
        </mxCell>
        <mxCell id="GC0I484NQkUeu95godri-1814" value="" style="endArrow=none;html=1;rounded=0;entryX=0.371;entryY=0.014;entryDx=0;entryDy=0;entryPerimeter=0;" edge="1" parent="GC0I484NQkUeu95godri-200">
          <mxGeometry width="50" height="50" relative="1" as="geometry">
            <mxPoint x="250.15" y="134" as="sourcePoint" />
            <mxPoint x="249.99956999999998" y="118.00399999999998" as="targetPoint" />
          </mxGeometry>
        </mxCell>
        <mxCell id="GC0I484NQkUeu95godri-373" value="Felhasználó" style="ellipse;whiteSpace=wrap;html=1;" vertex="1" parent="1">
          <mxGeometry x="234" y="2500" width="120" height="80" as="geometry" />
        </mxCell>
        <mxCell id="GC0I484NQkUeu95godri-374" value="Látogató" style="ellipse;whiteSpace=wrap;html=1;" vertex="1" parent="1">
          <mxGeometry x="234" y="2720" width="120" height="80" as="geometry" />
        </mxCell>
        <mxCell id="GC0I484NQkUeu95godri-375" value="Adminisztrátor" style="ellipse;whiteSpace=wrap;html=1;" vertex="1" parent="1">
          <mxGeometry x="234" y="2610" width="120" height="80" as="geometry" />
        </mxCell>
        <mxCell id="GC0I484NQkUeu95godri-376" value="" style="endArrow=classic;html=1;rounded=0;exitX=1;exitY=0.5;exitDx=0;exitDy=0;entryX=0;entryY=0.25;entryDx=0;entryDy=0;" edge="1" parent="1" source="GC0I484NQkUeu95godri-373" target="GC0I484NQkUeu95godri-208">
          <mxGeometry width="50" height="50" relative="1" as="geometry">
            <mxPoint x="434" y="2540" as="sourcePoint" />
            <mxPoint x="484" y="2490" as="targetPoint" />
            <Array as="points">
              <mxPoint x="424" y="2540" />
              <mxPoint x="424" y="2559" />
            </Array>
          </mxGeometry>
        </mxCell>
        <mxCell id="GC0I484NQkUeu95godri-377" value="" style="endArrow=classic;html=1;rounded=0;exitX=1;exitY=0.5;exitDx=0;exitDy=0;entryX=0;entryY=0.46;entryDx=0;entryDy=0;entryPerimeter=0;" edge="1" parent="1" source="GC0I484NQkUeu95godri-375" target="GC0I484NQkUeu95godri-208">
          <mxGeometry width="50" height="50" relative="1" as="geometry">
            <mxPoint x="384" y="2650" as="sourcePoint" />
            <mxPoint x="434" y="2600" as="targetPoint" />
            <Array as="points">
              <mxPoint x="424" y="2650" />
              <mxPoint x="424" y="2572" />
            </Array>
          </mxGeometry>
        </mxCell>
        <mxCell id="GC0I484NQkUeu95godri-378" value="" style="endArrow=classic;html=1;rounded=0;exitX=1;exitY=0.5;exitDx=0;exitDy=0;entryX=0;entryY=0.5;entryDx=0;entryDy=0;" edge="1" parent="1" source="GC0I484NQkUeu95godri-374" target="GC0I484NQkUeu95godri-351">
          <mxGeometry width="50" height="50" relative="1" as="geometry">
            <mxPoint x="360" y="2782" as="sourcePoint" />
            <mxPoint x="410" y="2732" as="targetPoint" />
            <Array as="points">
              <mxPoint x="448" y="2760" />
              <mxPoint x="448" y="2655" />
            </Array>
          </mxGeometry>
        </mxCell>
        <mxCell id="GC0I484NQkUeu95godri-383" value="Bejelentkezés" style="text;html=1;align=center;verticalAlign=middle;resizable=0;points=[];autosize=1;strokeColor=none;fillColor=none;" vertex="1" parent="1">
          <mxGeometry x="356" y="2518" width="94" height="27" as="geometry" />
        </mxCell>
        <mxCell id="GC0I484NQkUeu95godri-384" value="Bejelentkezés" style="text;html=1;align=center;verticalAlign=middle;resizable=0;points=[];autosize=1;strokeColor=none;fillColor=none;" vertex="1" parent="1">
          <mxGeometry x="350" y="2646" width="94" height="27" as="geometry" />
        </mxCell>
        <mxCell id="GC0I484NQkUeu95godri-386" value="Regisztráció" style="text;html=1;align=center;verticalAlign=middle;resizable=0;points=[];autosize=1;strokeColor=none;fillColor=none;" vertex="1" parent="1">
          <mxGeometry x="358" y="2733" width="85" height="27" as="geometry" />
        </mxCell>
        <mxCell id="GC0I484NQkUeu95godri-382" value="" style="endArrow=classic;html=1;rounded=0;exitX=0.8;exitY=0.008;exitDx=0;exitDy=0;entryX=0.5;entryY=0;entryDx=0;entryDy=0;exitPerimeter=0;" edge="1" parent="1" source="GC0I484NQkUeu95godri-361" target="GC0I484NQkUeu95godri-373">
          <mxGeometry width="50" height="50" relative="1" as="geometry">
            <mxPoint x="830.95" y="2542" as="sourcePoint" />
            <mxPoint x="262.9999999999998" y="2468.92" as="targetPoint" />
            <Array as="points">
              <mxPoint x="830" y="2449" />
              <mxPoint x="294" y="2449" />
            </Array>
          </mxGeometry>
        </mxCell>
        <mxCell id="GC0I484NQkUeu95godri-387" value="" style="endArrow=classic;html=1;rounded=0;exitX=0.5;exitY=0;exitDx=0;exitDy=0;entryX=0;entryY=0.5;entryDx=0;entryDy=0;" edge="1" parent="1" source="GC0I484NQkUeu95godri-361" target="GC0I484NQkUeu95godri-375">
          <mxGeometry width="50" height="50" relative="1" as="geometry">
            <mxPoint x="720" y="2446" as="sourcePoint" />
            <mxPoint x="770" y="2396" as="targetPoint" />
            <Array as="points">
              <mxPoint x="791" y="2468" />
              <mxPoint x="204" y="2468" />
              <mxPoint x="204" y="2650" />
            </Array>
          </mxGeometry>
        </mxCell>
        <mxCell id="GC0I484NQkUeu95godri-388" value="Hibaüzenet" style="text;html=1;align=center;verticalAlign=middle;resizable=0;points=[];autosize=1;strokeColor=none;fillColor=none;" vertex="1" parent="1">
          <mxGeometry x="204" y="2444" width="84" height="28" as="geometry" />
        </mxCell>
        <mxCell id="GC0I484NQkUeu95godri-389" value="Hibaüzenet" style="text;html=1;align=center;verticalAlign=middle;resizable=0;points=[];autosize=1;strokeColor=none;fillColor=none;" vertex="1" parent="1">
          <mxGeometry x="332" y="2428" width="84" height="28" as="geometry" />
        </mxCell>
        <mxCell id="GC0I484NQkUeu95godri-390" value="" style="endArrow=classic;html=1;rounded=0;exitX=1;exitY=0.5;exitDx=0;exitDy=0;entryX=0.5;entryY=1;entryDx=0;entryDy=0;" edge="1" parent="1" source="GC0I484NQkUeu95godri-361" target="GC0I484NQkUeu95godri-374">
          <mxGeometry width="50" height="50" relative="1" as="geometry">
            <mxPoint x="888" y="2602" as="sourcePoint" />
            <mxPoint x="938" y="2552" as="targetPoint" />
            <Array as="points">
              <mxPoint x="888" y="2575" />
              <mxPoint x="888" y="2824" />
              <mxPoint x="294" y="2824" />
            </Array>
          </mxGeometry>
        </mxCell>
        <mxCell id="GC0I484NQkUeu95godri-391" value="" style="endArrow=classic;html=1;rounded=0;exitX=1;exitY=0.5;exitDx=0;exitDy=0;entryX=0.581;entryY=1.007;entryDx=0;entryDy=0;entryPerimeter=0;" edge="1" parent="1" source="GC0I484NQkUeu95godri-366" target="GC0I484NQkUeu95godri-374">
          <mxGeometry width="50" height="50" relative="1" as="geometry">
            <mxPoint x="868" y="2662" as="sourcePoint" />
            <mxPoint x="918" y="2612" as="targetPoint" />
            <Array as="points">
              <mxPoint x="880" y="2655" />
              <mxPoint x="880" y="2808" />
              <mxPoint x="304" y="2808" />
            </Array>
          </mxGeometry>
        </mxCell>
        <mxCell id="GC0I484NQkUeu95godri-393" value="Hibaüzenet" style="text;html=1;align=center;verticalAlign=middle;resizable=0;points=[];autosize=1;strokeColor=none;fillColor=none;" vertex="1" parent="1">
          <mxGeometry x="340" y="2820" width="84" height="28" as="geometry" />
        </mxCell>
        <mxCell id="GC0I484NQkUeu95godri-394" value="Hibaüzenet" style="text;html=1;align=center;verticalAlign=middle;resizable=0;points=[];autosize=1;strokeColor=none;fillColor=none;" vertex="1" parent="1">
          <mxGeometry x="344" y="2780" width="84" height="28" as="geometry" />
        </mxCell>
        <mxCell id="GC0I484NQkUeu95godri-396" value="" style="group" vertex="1" connectable="0" parent="1">
          <mxGeometry x="498" y="2848" width="157" height="30.000000000000057" as="geometry" />
        </mxCell>
        <mxCell id="GC0I484NQkUeu95godri-397" value="&amp;nbsp;L1" style="html=1;dashed=0;whiteSpace=wrap;shape=mxgraph.dfd.dataStoreID;align=left;spacingLeft=3;points=[[0,0],[0.5,0],[1,0],[0,0.5],[1,0.5],[0,1],[0.5,1],[1,1]];" vertex="1" parent="GC0I484NQkUeu95godri-396">
          <mxGeometry width="152" height="30" as="geometry" />
        </mxCell>
        <mxCell id="GC0I484NQkUeu95godri-398" value="" style="endArrow=none;html=1;rounded=0;entryX=0.078;entryY=0.005;entryDx=0;entryDy=0;entryPerimeter=0;exitX=0.077;exitY=1.001;exitDx=0;exitDy=0;exitPerimeter=0;" edge="1" parent="GC0I484NQkUeu95godri-396">
          <mxGeometry width="50" height="50" relative="1" as="geometry">
            <mxPoint x="4.699999999999932" y="30.000000000000057" as="sourcePoint" />
            <mxPoint x="4.7999999999999545" y="0.12000000000000455" as="targetPoint" />
          </mxGeometry>
        </mxCell>
        <mxCell id="GC0I484NQkUeu95godri-399" value="Felhasználói adatok" style="text;html=1;align=center;verticalAlign=middle;resizable=0;points=[];autosize=1;strokeColor=none;fillColor=none;" vertex="1" parent="GC0I484NQkUeu95godri-396">
          <mxGeometry x="27" width="130" height="30" as="geometry" />
        </mxCell>
        <mxCell id="GC0I484NQkUeu95godri-401" value="" style="endArrow=classic;html=1;rounded=0;exitX=0;exitY=0.5;exitDx=0;exitDy=0;entryX=0;entryY=0.75;entryDx=0;entryDy=0;" edge="1" parent="1" source="GC0I484NQkUeu95godri-397" target="GC0I484NQkUeu95godri-208">
          <mxGeometry width="50" height="50" relative="1" as="geometry">
            <mxPoint x="472" y="2862" as="sourcePoint" />
            <mxPoint x="522" y="2812" as="targetPoint" />
            <Array as="points">
              <mxPoint x="468" y="2863" />
              <mxPoint x="468" y="2592" />
            </Array>
          </mxGeometry>
        </mxCell>
        <mxCell id="GC0I484NQkUeu95godri-402" value="" style="endArrow=classic;html=1;rounded=0;exitX=0.5;exitY=1;exitDx=0;exitDy=0;" edge="1" parent="1" source="GC0I484NQkUeu95godri-351" target="GC0I484NQkUeu95godri-399">
          <mxGeometry width="50" height="50" relative="1" as="geometry">
            <mxPoint x="596" y="2774" as="sourcePoint" />
            <mxPoint x="646" y="2724" as="targetPoint" />
          </mxGeometry>
        </mxCell>
        <mxCell id="GC0I484NQkUeu95godri-403" value="" style="group" vertex="1" connectable="0" parent="1">
          <mxGeometry x="866" y="2884.0033333333336" width="164" height="82" as="geometry" />
        </mxCell>
        <mxCell id="GC0I484NQkUeu95godri-404" value="Felhasználó kezelése" style="rounded=0;whiteSpace=wrap;html=1;" vertex="1" parent="GC0I484NQkUeu95godri-403">
          <mxGeometry width="164" height="82" as="geometry" />
        </mxCell>
        <mxCell id="GC0I484NQkUeu95godri-405" value="" style="endArrow=none;html=1;rounded=0;exitX=0;exitY=0.25;exitDx=0;exitDy=0;entryX=1;entryY=0.25;entryDx=0;entryDy=0;" edge="1" parent="GC0I484NQkUeu95godri-403" source="GC0I484NQkUeu95godri-404" target="GC0I484NQkUeu95godri-404">
          <mxGeometry width="50" height="50" relative="1" as="geometry">
            <mxPoint x="54.66666666666667" y="68.33333333333333" as="sourcePoint" />
            <mxPoint x="123" as="targetPoint" />
          </mxGeometry>
        </mxCell>
        <mxCell id="GC0I484NQkUeu95godri-406" value="" style="endArrow=none;html=1;rounded=0;exitX=0.25;exitY=0;exitDx=0;exitDy=0;" edge="1" parent="GC0I484NQkUeu95godri-403" source="GC0I484NQkUeu95godri-404">
          <mxGeometry width="50" height="50" relative="1" as="geometry">
            <mxPoint x="41" y="-6.833333333333334" as="sourcePoint" />
            <mxPoint x="41" y="20.5" as="targetPoint" />
          </mxGeometry>
        </mxCell>
        <mxCell id="GC0I484NQkUeu95godri-407" value="&lt;font style=&quot;font-size: 11px;&quot;&gt;14&lt;/font&gt;" style="text;html=1;align=center;verticalAlign=middle;resizable=0;points=[];autosize=1;strokeColor=none;fillColor=none;" vertex="1" parent="GC0I484NQkUeu95godri-403">
          <mxGeometry x="7" y="-4" width="32" height="28" as="geometry" />
        </mxCell>
        <mxCell id="GC0I484NQkUeu95godri-408" value="" style="group" vertex="1" connectable="0" parent="1">
          <mxGeometry x="1036" y="2800" width="164" height="82" as="geometry" />
        </mxCell>
        <mxCell id="GC0I484NQkUeu95godri-409" value="Ismerősök kezelése&amp;nbsp;" style="rounded=0;whiteSpace=wrap;html=1;" vertex="1" parent="GC0I484NQkUeu95godri-408">
          <mxGeometry width="164" height="82" as="geometry" />
        </mxCell>
        <mxCell id="GC0I484NQkUeu95godri-410" value="" style="endArrow=none;html=1;rounded=0;exitX=0;exitY=0.25;exitDx=0;exitDy=0;entryX=1;entryY=0.25;entryDx=0;entryDy=0;" edge="1" parent="GC0I484NQkUeu95godri-408" source="GC0I484NQkUeu95godri-409" target="GC0I484NQkUeu95godri-409">
          <mxGeometry width="50" height="50" relative="1" as="geometry">
            <mxPoint x="54.66666666666667" y="68.33333333333333" as="sourcePoint" />
            <mxPoint x="123" as="targetPoint" />
          </mxGeometry>
        </mxCell>
        <mxCell id="GC0I484NQkUeu95godri-411" value="" style="endArrow=none;html=1;rounded=0;exitX=0.25;exitY=0;exitDx=0;exitDy=0;" edge="1" parent="GC0I484NQkUeu95godri-408" source="GC0I484NQkUeu95godri-409">
          <mxGeometry width="50" height="50" relative="1" as="geometry">
            <mxPoint x="41" y="-6.833333333333334" as="sourcePoint" />
            <mxPoint x="41" y="20.5" as="targetPoint" />
          </mxGeometry>
        </mxCell>
        <mxCell id="GC0I484NQkUeu95godri-412" value="&lt;font style=&quot;font-size: 11px;&quot;&gt;15&lt;/font&gt;" style="text;html=1;align=center;verticalAlign=middle;resizable=0;points=[];autosize=1;strokeColor=none;fillColor=none;" vertex="1" parent="GC0I484NQkUeu95godri-408">
          <mxGeometry x="7" y="-4" width="32" height="28" as="geometry" />
        </mxCell>
        <mxCell id="GC0I484NQkUeu95godri-413" value="" style="group" vertex="1" connectable="0" parent="1">
          <mxGeometry x="1036" y="2708" width="164" height="82" as="geometry" />
        </mxCell>
        <mxCell id="GC0I484NQkUeu95godri-414" value="Albumkezelés" style="rounded=0;whiteSpace=wrap;html=1;" vertex="1" parent="GC0I484NQkUeu95godri-413">
          <mxGeometry width="164" height="82" as="geometry" />
        </mxCell>
        <mxCell id="GC0I484NQkUeu95godri-415" value="" style="endArrow=none;html=1;rounded=0;exitX=0;exitY=0.25;exitDx=0;exitDy=0;entryX=1;entryY=0.25;entryDx=0;entryDy=0;" edge="1" parent="GC0I484NQkUeu95godri-413" source="GC0I484NQkUeu95godri-414" target="GC0I484NQkUeu95godri-414">
          <mxGeometry width="50" height="50" relative="1" as="geometry">
            <mxPoint x="54.66666666666667" y="68.33333333333333" as="sourcePoint" />
            <mxPoint x="123" as="targetPoint" />
          </mxGeometry>
        </mxCell>
        <mxCell id="GC0I484NQkUeu95godri-416" value="" style="endArrow=none;html=1;rounded=0;exitX=0.25;exitY=0;exitDx=0;exitDy=0;" edge="1" parent="GC0I484NQkUeu95godri-413" source="GC0I484NQkUeu95godri-414">
          <mxGeometry width="50" height="50" relative="1" as="geometry">
            <mxPoint x="41" y="-6.833333333333334" as="sourcePoint" />
            <mxPoint x="41" y="20.5" as="targetPoint" />
          </mxGeometry>
        </mxCell>
        <mxCell id="GC0I484NQkUeu95godri-417" value="&lt;font style=&quot;font-size: 11px;&quot;&gt;11&lt;/font&gt;" style="text;html=1;align=center;verticalAlign=middle;resizable=0;points=[];autosize=1;strokeColor=none;fillColor=none;" vertex="1" parent="GC0I484NQkUeu95godri-413">
          <mxGeometry x="8" y="-4" width="30" height="28" as="geometry" />
        </mxCell>
        <mxCell id="GC0I484NQkUeu95godri-418" value="Profil oldal" style="text;html=1;align=center;verticalAlign=middle;resizable=0;points=[];autosize=1;strokeColor=none;fillColor=none;" vertex="1" parent="GC0I484NQkUeu95godri-413">
          <mxGeometry x="58" y="-4" width="76" height="28" as="geometry" />
        </mxCell>
        <mxCell id="GC0I484NQkUeu95godri-419" value="" style="group" vertex="1" connectable="0" parent="1">
          <mxGeometry x="1036" y="2616" width="164" height="82" as="geometry" />
        </mxCell>
        <mxCell id="GC0I484NQkUeu95godri-420" value="Képkezelés" style="rounded=0;whiteSpace=wrap;html=1;" vertex="1" parent="GC0I484NQkUeu95godri-419">
          <mxGeometry width="164" height="82" as="geometry" />
        </mxCell>
        <mxCell id="GC0I484NQkUeu95godri-421" value="" style="endArrow=none;html=1;rounded=0;exitX=0;exitY=0.25;exitDx=0;exitDy=0;entryX=1;entryY=0.25;entryDx=0;entryDy=0;elbow=vertical;" edge="1" parent="GC0I484NQkUeu95godri-419" source="GC0I484NQkUeu95godri-420" target="GC0I484NQkUeu95godri-420">
          <mxGeometry width="50" height="50" relative="1" as="geometry">
            <mxPoint x="54.66666666666667" y="68.33333333333333" as="sourcePoint" />
            <mxPoint x="123" as="targetPoint" />
          </mxGeometry>
        </mxCell>
        <mxCell id="GC0I484NQkUeu95godri-422" value="" style="endArrow=none;html=1;rounded=0;exitX=0.25;exitY=0;exitDx=0;exitDy=0;" edge="1" parent="GC0I484NQkUeu95godri-419" source="GC0I484NQkUeu95godri-420">
          <mxGeometry width="50" height="50" relative="1" as="geometry">
            <mxPoint x="41" y="-6.833333333333334" as="sourcePoint" />
            <mxPoint x="41" y="20.5" as="targetPoint" />
          </mxGeometry>
        </mxCell>
        <mxCell id="GC0I484NQkUeu95godri-423" value="&lt;font style=&quot;font-size: 11px;&quot;&gt;10&lt;/font&gt;" style="text;html=1;align=center;verticalAlign=middle;resizable=0;points=[];autosize=1;strokeColor=none;fillColor=none;" vertex="1" parent="GC0I484NQkUeu95godri-419">
          <mxGeometry x="7" y="-4" width="32" height="28" as="geometry" />
        </mxCell>
        <mxCell id="GC0I484NQkUeu95godri-424" value="Profil oldal, album" style="text;html=1;align=center;verticalAlign=middle;resizable=0;points=[];autosize=1;strokeColor=none;fillColor=none;" vertex="1" parent="GC0I484NQkUeu95godri-419">
          <mxGeometry x="42" y="-4" width="114" height="28" as="geometry" />
        </mxCell>
        <mxCell id="GC0I484NQkUeu95godri-425" value="" style="group" vertex="1" connectable="0" parent="1">
          <mxGeometry x="1036" y="2524" width="164" height="82" as="geometry" />
        </mxCell>
        <mxCell id="GC0I484NQkUeu95godri-426" value="Üzenet" style="rounded=0;whiteSpace=wrap;html=1;" vertex="1" parent="GC0I484NQkUeu95godri-425">
          <mxGeometry width="164" height="82" as="geometry" />
        </mxCell>
        <mxCell id="GC0I484NQkUeu95godri-427" value="" style="endArrow=none;html=1;rounded=0;exitX=0;exitY=0.25;exitDx=0;exitDy=0;entryX=1;entryY=0.25;entryDx=0;entryDy=0;" edge="1" parent="GC0I484NQkUeu95godri-425" source="GC0I484NQkUeu95godri-426" target="GC0I484NQkUeu95godri-426">
          <mxGeometry width="50" height="50" relative="1" as="geometry">
            <mxPoint x="54.66666666666667" y="68.33333333333333" as="sourcePoint" />
            <mxPoint x="123" as="targetPoint" />
          </mxGeometry>
        </mxCell>
        <mxCell id="GC0I484NQkUeu95godri-428" value="" style="endArrow=none;html=1;rounded=0;exitX=0.25;exitY=0;exitDx=0;exitDy=0;" edge="1" parent="GC0I484NQkUeu95godri-425" source="GC0I484NQkUeu95godri-426">
          <mxGeometry width="50" height="50" relative="1" as="geometry">
            <mxPoint x="41" y="-6.833333333333334" as="sourcePoint" />
            <mxPoint x="41" y="20.5" as="targetPoint" />
          </mxGeometry>
        </mxCell>
        <mxCell id="GC0I484NQkUeu95godri-429" value="&lt;font style=&quot;font-size: 11px;&quot;&gt;8&lt;/font&gt;" style="text;html=1;align=center;verticalAlign=middle;resizable=0;points=[];autosize=1;strokeColor=none;fillColor=none;" vertex="1" parent="GC0I484NQkUeu95godri-425">
          <mxGeometry x="10" y="-4" width="26" height="28" as="geometry" />
        </mxCell>
        <mxCell id="GC0I484NQkUeu95godri-430" value="&lt;span style=&quot;color: rgb(0, 0, 0); font-family: Helvetica; font-size: 12px; font-style: normal; font-variant-ligatures: normal; font-variant-caps: normal; font-weight: 400; letter-spacing: normal; orphans: 2; text-align: center; text-indent: 0px; text-transform: none; widows: 2; word-spacing: 0px; -webkit-text-stroke-width: 0px; white-space: nowrap; background-color: rgb(251, 251, 251); text-decoration-thickness: initial; text-decoration-style: initial; text-decoration-color: initial; display: inline !important; float: none;&quot;&gt;Chat&lt;/span&gt;" style="text;whiteSpace=wrap;html=1;" vertex="1" parent="GC0I484NQkUeu95godri-425">
          <mxGeometry x="73.48000000000002" y="-4" width="52" height="30" as="geometry" />
        </mxCell>
        <mxCell id="GC0I484NQkUeu95godri-431" value="" style="group" vertex="1" connectable="0" parent="1">
          <mxGeometry x="1036" y="2432" width="164" height="82" as="geometry" />
        </mxCell>
        <mxCell id="GC0I484NQkUeu95godri-432" value="Csoportkezelés" style="rounded=0;whiteSpace=wrap;html=1;" vertex="1" parent="GC0I484NQkUeu95godri-431">
          <mxGeometry width="164" height="82" as="geometry" />
        </mxCell>
        <mxCell id="GC0I484NQkUeu95godri-433" value="" style="endArrow=none;html=1;rounded=0;exitX=0;exitY=0.25;exitDx=0;exitDy=0;entryX=1;entryY=0.25;entryDx=0;entryDy=0;" edge="1" parent="GC0I484NQkUeu95godri-431" source="GC0I484NQkUeu95godri-432" target="GC0I484NQkUeu95godri-432">
          <mxGeometry width="50" height="50" relative="1" as="geometry">
            <mxPoint x="54.66666666666667" y="68.33333333333333" as="sourcePoint" />
            <mxPoint x="123" as="targetPoint" />
          </mxGeometry>
        </mxCell>
        <mxCell id="GC0I484NQkUeu95godri-434" value="" style="endArrow=none;html=1;rounded=0;exitX=0.25;exitY=0;exitDx=0;exitDy=0;" edge="1" parent="GC0I484NQkUeu95godri-431" source="GC0I484NQkUeu95godri-432">
          <mxGeometry width="50" height="50" relative="1" as="geometry">
            <mxPoint x="41" y="-6.833333333333334" as="sourcePoint" />
            <mxPoint x="41" y="20.5" as="targetPoint" />
          </mxGeometry>
        </mxCell>
        <mxCell id="GC0I484NQkUeu95godri-435" value="&lt;font style=&quot;font-size: 11px;&quot;&gt;12&lt;/font&gt;" style="text;html=1;align=center;verticalAlign=middle;resizable=0;points=[];autosize=1;strokeColor=none;fillColor=none;" vertex="1" parent="GC0I484NQkUeu95godri-431">
          <mxGeometry x="7" y="-4" width="32" height="28" as="geometry" />
        </mxCell>
        <mxCell id="GC0I484NQkUeu95godri-436" value="Csoport oldal" style="text;html=1;align=center;verticalAlign=middle;resizable=0;points=[];autosize=1;strokeColor=none;fillColor=none;" vertex="1" parent="GC0I484NQkUeu95godri-431">
          <mxGeometry x="52" y="-6" width="90" height="28" as="geometry" />
        </mxCell>
        <mxCell id="GC0I484NQkUeu95godri-437" value="" style="group" vertex="1" connectable="0" parent="1">
          <mxGeometry x="866" y="2352" width="184" height="82" as="geometry" />
        </mxCell>
        <mxCell id="GC0I484NQkUeu95godri-438" value="Poszt" style="rounded=0;whiteSpace=wrap;html=1;" vertex="1" parent="GC0I484NQkUeu95godri-437">
          <mxGeometry width="164" height="82" as="geometry" />
        </mxCell>
        <mxCell id="GC0I484NQkUeu95godri-439" value="" style="endArrow=none;html=1;rounded=0;exitX=0;exitY=0.25;exitDx=0;exitDy=0;entryX=1;entryY=0.25;entryDx=0;entryDy=0;" edge="1" parent="GC0I484NQkUeu95godri-437" source="GC0I484NQkUeu95godri-438" target="GC0I484NQkUeu95godri-438">
          <mxGeometry width="50" height="50" relative="1" as="geometry">
            <mxPoint x="54.66666666666667" y="68.33333333333333" as="sourcePoint" />
            <mxPoint x="123" as="targetPoint" />
          </mxGeometry>
        </mxCell>
        <mxCell id="GC0I484NQkUeu95godri-440" value="" style="endArrow=none;html=1;rounded=0;exitX=0.25;exitY=0;exitDx=0;exitDy=0;" edge="1" parent="GC0I484NQkUeu95godri-437" source="GC0I484NQkUeu95godri-438">
          <mxGeometry width="50" height="50" relative="1" as="geometry">
            <mxPoint x="41" y="-6.833333333333334" as="sourcePoint" />
            <mxPoint x="41" y="20.5" as="targetPoint" />
          </mxGeometry>
        </mxCell>
        <mxCell id="GC0I484NQkUeu95godri-441" value="&lt;font style=&quot;font-size: 11px;&quot;&gt;5&lt;/font&gt;" style="text;html=1;align=center;verticalAlign=middle;resizable=0;points=[];autosize=1;strokeColor=none;fillColor=none;" vertex="1" parent="GC0I484NQkUeu95godri-437">
          <mxGeometry x="10" y="-4" width="26" height="28" as="geometry" />
        </mxCell>
        <mxCell id="GC0I484NQkUeu95godri-442" value="Főoldal/csoport oldal" style="text;html=1;align=center;verticalAlign=middle;whiteSpace=wrap;rounded=0;" vertex="1" parent="GC0I484NQkUeu95godri-437">
          <mxGeometry x="39" width="126" height="22" as="geometry" />
        </mxCell>
        <mxCell id="GC0I484NQkUeu95godri-444" style="edgeStyle=orthogonalEdgeStyle;rounded=0;orthogonalLoop=1;jettySize=auto;html=1;entryX=0.5;entryY=1;entryDx=0;entryDy=0;" edge="1" parent="1" source="GC0I484NQkUeu95godri-356" target="GC0I484NQkUeu95godri-438">
          <mxGeometry relative="1" as="geometry" />
        </mxCell>
        <mxCell id="GC0I484NQkUeu95godri-445" style="edgeStyle=orthogonalEdgeStyle;rounded=0;orthogonalLoop=1;jettySize=auto;html=1;entryX=0;entryY=0.5;entryDx=0;entryDy=0;" edge="1" parent="1" source="GC0I484NQkUeu95godri-356" target="GC0I484NQkUeu95godri-432">
          <mxGeometry relative="1" as="geometry" />
        </mxCell>
        <mxCell id="GC0I484NQkUeu95godri-446" style="edgeStyle=orthogonalEdgeStyle;rounded=0;orthogonalLoop=1;jettySize=auto;html=1;entryX=0;entryY=0.5;entryDx=0;entryDy=0;" edge="1" parent="1" source="GC0I484NQkUeu95godri-356" target="GC0I484NQkUeu95godri-426">
          <mxGeometry relative="1" as="geometry" />
        </mxCell>
        <mxCell id="GC0I484NQkUeu95godri-447" style="edgeStyle=orthogonalEdgeStyle;rounded=0;orthogonalLoop=1;jettySize=auto;html=1;entryX=0;entryY=0.5;entryDx=0;entryDy=0;" edge="1" parent="1" source="GC0I484NQkUeu95godri-356" target="GC0I484NQkUeu95godri-420">
          <mxGeometry relative="1" as="geometry" />
        </mxCell>
        <mxCell id="GC0I484NQkUeu95godri-448" style="edgeStyle=orthogonalEdgeStyle;rounded=0;orthogonalLoop=1;jettySize=auto;html=1;entryX=0;entryY=0.5;entryDx=0;entryDy=0;" edge="1" parent="1" source="GC0I484NQkUeu95godri-356" target="GC0I484NQkUeu95godri-414">
          <mxGeometry relative="1" as="geometry" />
        </mxCell>
        <mxCell id="GC0I484NQkUeu95godri-449" style="edgeStyle=orthogonalEdgeStyle;rounded=0;orthogonalLoop=1;jettySize=auto;html=1;entryX=0;entryY=0.5;entryDx=0;entryDy=0;" edge="1" parent="1" source="GC0I484NQkUeu95godri-356" target="GC0I484NQkUeu95godri-409">
          <mxGeometry relative="1" as="geometry" />
        </mxCell>
        <mxCell id="GC0I484NQkUeu95godri-450" style="edgeStyle=orthogonalEdgeStyle;rounded=0;orthogonalLoop=1;jettySize=auto;html=1;entryX=0.5;entryY=0;entryDx=0;entryDy=0;" edge="1" parent="1" source="GC0I484NQkUeu95godri-356" target="GC0I484NQkUeu95godri-404">
          <mxGeometry relative="1" as="geometry" />
        </mxCell>
        <mxCell id="GC0I484NQkUeu95godri-1081" value="" style="group" vertex="1" connectable="0" parent="1">
          <mxGeometry x="388" y="3176" width="370" height="312" as="geometry" />
        </mxCell>
        <mxCell id="GC0I484NQkUeu95godri-1082" value="" style="rounded=0;whiteSpace=wrap;html=1;" vertex="1" parent="GC0I484NQkUeu95godri-1081">
          <mxGeometry width="369.99999999999994" height="312" as="geometry" />
        </mxCell>
        <mxCell id="GC0I484NQkUeu95godri-1083" value="" style="endArrow=none;html=1;rounded=0;exitX=0;exitY=0.25;exitDx=0;exitDy=0;entryX=1;entryY=0.25;entryDx=0;entryDy=0;" edge="1" parent="GC0I484NQkUeu95godri-1081">
          <mxGeometry width="50" height="50" relative="1" as="geometry">
            <mxPoint y="22" as="sourcePoint" />
            <mxPoint x="370" y="22" as="targetPoint" />
          </mxGeometry>
        </mxCell>
        <mxCell id="GC0I484NQkUeu95godri-1084" value="" style="endArrow=none;html=1;rounded=0;" edge="1" parent="GC0I484NQkUeu95godri-1081">
          <mxGeometry width="50" height="50" relative="1" as="geometry">
            <mxPoint x="70" y="22" as="sourcePoint" />
            <mxPoint x="70" as="targetPoint" />
          </mxGeometry>
        </mxCell>
        <mxCell id="GC0I484NQkUeu95godri-1085" value="2" style="text;html=1;align=center;verticalAlign=middle;whiteSpace=wrap;rounded=0;" vertex="1" parent="GC0I484NQkUeu95godri-1081">
          <mxGeometry x="3" y="-3" width="60" height="30" as="geometry" />
        </mxCell>
        <mxCell id="GC0I484NQkUeu95godri-1103" value="" style="group" vertex="1" connectable="0" parent="GC0I484NQkUeu95godri-1081">
          <mxGeometry x="34" y="52" width="149.51" height="79" as="geometry" />
        </mxCell>
        <mxCell id="GC0I484NQkUeu95godri-1104" value="Érvényes jelszó-e?" style="rounded=0;whiteSpace=wrap;html=1;" vertex="1" parent="GC0I484NQkUeu95godri-1103">
          <mxGeometry width="131.67" height="66" as="geometry" />
        </mxCell>
        <mxCell id="GC0I484NQkUeu95godri-1105" value="" style="endArrow=none;html=1;rounded=0;exitX=0;exitY=0.25;exitDx=0;exitDy=0;entryX=1;entryY=0.25;entryDx=0;entryDy=0;" edge="1" parent="GC0I484NQkUeu95godri-1103" source="GC0I484NQkUeu95godri-1104" target="GC0I484NQkUeu95godri-1104">
          <mxGeometry width="50" height="50" relative="1" as="geometry">
            <mxPoint x="49.83666666666667" y="62.449999999999996" as="sourcePoint" />
            <mxPoint x="112.13250000000002" as="targetPoint" />
          </mxGeometry>
        </mxCell>
        <mxCell id="GC0I484NQkUeu95godri-1106" value="&lt;font style=&quot;font-size: 11px;&quot;&gt;2.1&lt;/font&gt;" style="text;html=1;align=center;verticalAlign=middle;resizable=0;points=[];autosize=1;strokeColor=none;fillColor=none;" vertex="1" parent="GC0I484NQkUeu95godri-1103">
          <mxGeometry x="-4.000121951219513" y="-5.9956097560975605" width="34" height="28" as="geometry" />
        </mxCell>
        <mxCell id="GC0I484NQkUeu95godri-1107" value="" style="endArrow=none;html=1;rounded=0;" edge="1" parent="GC0I484NQkUeu95godri-1103">
          <mxGeometry width="50" height="50" relative="1" as="geometry">
            <mxPoint x="28" y="16" as="sourcePoint" />
            <mxPoint x="28" as="targetPoint" />
          </mxGeometry>
        </mxCell>
        <mxCell id="GC0I484NQkUeu95godri-1730" value="" style="group" vertex="1" connectable="0" parent="GC0I484NQkUeu95godri-1103">
          <mxGeometry x="114" y="48" width="24" height="31" as="geometry" />
        </mxCell>
        <mxCell id="GC0I484NQkUeu95godri-1731" value="" style="endArrow=none;html=1;rounded=0;" edge="1" parent="GC0I484NQkUeu95godri-1730">
          <mxGeometry width="50" height="50" relative="1" as="geometry">
            <mxPoint y="18" as="sourcePoint" />
            <mxPoint x="18" as="targetPoint" />
          </mxGeometry>
        </mxCell>
        <mxCell id="GC0I484NQkUeu95godri-1732" value="&lt;font style=&quot;font-size: 13px;&quot;&gt;*&lt;/font&gt;" style="text;html=1;align=center;verticalAlign=middle;resizable=0;points=[];autosize=1;strokeColor=none;fillColor=none;" vertex="1" parent="GC0I484NQkUeu95godri-1730">
          <mxGeometry y="1" width="24" height="30" as="geometry" />
        </mxCell>
        <mxCell id="GC0I484NQkUeu95godri-1108" value="" style="group" vertex="1" connectable="0" parent="GC0I484NQkUeu95godri-1081">
          <mxGeometry x="34" y="156" width="149.51" height="74.94" as="geometry" />
        </mxCell>
        <mxCell id="GC0I484NQkUeu95godri-1109" value="Porfilképet módosít-e?" style="rounded=0;whiteSpace=wrap;html=1;" vertex="1" parent="GC0I484NQkUeu95godri-1108">
          <mxGeometry width="131.67" height="66" as="geometry" />
        </mxCell>
        <mxCell id="GC0I484NQkUeu95godri-1110" value="" style="endArrow=none;html=1;rounded=0;exitX=0;exitY=0.25;exitDx=0;exitDy=0;entryX=1;entryY=0.25;entryDx=0;entryDy=0;" edge="1" parent="GC0I484NQkUeu95godri-1108" source="GC0I484NQkUeu95godri-1109" target="GC0I484NQkUeu95godri-1109">
          <mxGeometry width="50" height="50" relative="1" as="geometry">
            <mxPoint x="49.83666666666667" y="62.449999999999996" as="sourcePoint" />
            <mxPoint x="112.13250000000002" as="targetPoint" />
          </mxGeometry>
        </mxCell>
        <mxCell id="GC0I484NQkUeu95godri-1111" value="&lt;font style=&quot;font-size: 11px;&quot;&gt;2.3&lt;/font&gt;" style="text;html=1;align=center;verticalAlign=middle;resizable=0;points=[];autosize=1;strokeColor=none;fillColor=none;" vertex="1" parent="GC0I484NQkUeu95godri-1108">
          <mxGeometry x="-4.000121951219513" y="-5.9956097560975605" width="34" height="28" as="geometry" />
        </mxCell>
        <mxCell id="GC0I484NQkUeu95godri-1112" value="" style="endArrow=none;html=1;rounded=0;" edge="1" parent="GC0I484NQkUeu95godri-1108">
          <mxGeometry width="50" height="50" relative="1" as="geometry">
            <mxPoint x="28" y="16" as="sourcePoint" />
            <mxPoint x="28" as="targetPoint" />
          </mxGeometry>
        </mxCell>
        <mxCell id="GC0I484NQkUeu95godri-1087" value="" style="group" vertex="1" connectable="0" parent="1">
          <mxGeometry x="556" y="3022.003333333333" width="164" height="82" as="geometry" />
        </mxCell>
        <mxCell id="GC0I484NQkUeu95godri-1088" value="Profil törlése" style="rounded=0;whiteSpace=wrap;html=1;" vertex="1" parent="GC0I484NQkUeu95godri-1087">
          <mxGeometry width="164" height="82" as="geometry" />
        </mxCell>
        <mxCell id="GC0I484NQkUeu95godri-1089" value="" style="endArrow=none;html=1;rounded=0;exitX=0;exitY=0.25;exitDx=0;exitDy=0;entryX=1;entryY=0.25;entryDx=0;entryDy=0;" edge="1" parent="GC0I484NQkUeu95godri-1087" source="GC0I484NQkUeu95godri-1088" target="GC0I484NQkUeu95godri-1088">
          <mxGeometry width="50" height="50" relative="1" as="geometry">
            <mxPoint x="54.66666666666667" y="68.33333333333333" as="sourcePoint" />
            <mxPoint x="123" as="targetPoint" />
          </mxGeometry>
        </mxCell>
        <mxCell id="GC0I484NQkUeu95godri-1090" value="" style="endArrow=none;html=1;rounded=0;exitX=0.25;exitY=0;exitDx=0;exitDy=0;" edge="1" parent="GC0I484NQkUeu95godri-1087" source="GC0I484NQkUeu95godri-1088">
          <mxGeometry width="50" height="50" relative="1" as="geometry">
            <mxPoint x="41" y="-6.833333333333334" as="sourcePoint" />
            <mxPoint x="41" y="20.5" as="targetPoint" />
          </mxGeometry>
        </mxCell>
        <mxCell id="GC0I484NQkUeu95godri-1091" value="&lt;font style=&quot;font-size: 11px;&quot;&gt;3&lt;/font&gt;" style="text;html=1;align=center;verticalAlign=middle;resizable=0;points=[];autosize=1;strokeColor=none;fillColor=none;" vertex="1" parent="GC0I484NQkUeu95godri-1087">
          <mxGeometry x="10" y="-4" width="26" height="28" as="geometry" />
        </mxCell>
        <mxCell id="GC0I484NQkUeu95godri-1092" value="Profil oldal" style="text;html=1;align=center;verticalAlign=middle;resizable=0;points=[];autosize=1;strokeColor=none;fillColor=none;" vertex="1" parent="GC0I484NQkUeu95godri-1087">
          <mxGeometry x="54" y="-4.00333333333333" width="76" height="28" as="geometry" />
        </mxCell>
        <mxCell id="GC0I484NQkUeu95godri-1099" value="" style="group" vertex="1" connectable="0" parent="1">
          <mxGeometry x="720" y="3516" width="157" height="30.000000000000057" as="geometry" />
        </mxCell>
        <mxCell id="GC0I484NQkUeu95godri-1100" value="&amp;nbsp;L1" style="html=1;dashed=0;whiteSpace=wrap;shape=mxgraph.dfd.dataStoreID;align=left;spacingLeft=3;points=[[0,0],[0.5,0],[1,0],[0,0.5],[1,0.5],[0,1],[0.5,1],[1,1]];" vertex="1" parent="GC0I484NQkUeu95godri-1099">
          <mxGeometry width="152" height="30" as="geometry" />
        </mxCell>
        <mxCell id="GC0I484NQkUeu95godri-1101" value="" style="endArrow=none;html=1;rounded=0;entryX=0.078;entryY=0.005;entryDx=0;entryDy=0;entryPerimeter=0;exitX=0.077;exitY=1.001;exitDx=0;exitDy=0;exitPerimeter=0;" edge="1" parent="GC0I484NQkUeu95godri-1099">
          <mxGeometry width="50" height="50" relative="1" as="geometry">
            <mxPoint x="4.699999999999932" y="30.000000000000057" as="sourcePoint" />
            <mxPoint x="4.7999999999999545" y="0.12000000000000455" as="targetPoint" />
          </mxGeometry>
        </mxCell>
        <mxCell id="GC0I484NQkUeu95godri-1102" value="Felhasználói adatok" style="text;html=1;align=center;verticalAlign=middle;resizable=0;points=[];autosize=1;strokeColor=none;fillColor=none;" vertex="1" parent="GC0I484NQkUeu95godri-1099">
          <mxGeometry x="27" width="130" height="30" as="geometry" />
        </mxCell>
        <mxCell id="GC0I484NQkUeu95godri-1113" value="" style="group" vertex="1" connectable="0" parent="1">
          <mxGeometry x="838" y="3178" width="370" height="312" as="geometry" />
        </mxCell>
        <mxCell id="GC0I484NQkUeu95godri-1114" value="" style="rounded=0;whiteSpace=wrap;html=1;" vertex="1" parent="GC0I484NQkUeu95godri-1113">
          <mxGeometry width="369.99999999999994" height="312" as="geometry" />
        </mxCell>
        <mxCell id="GC0I484NQkUeu95godri-1115" value="" style="endArrow=none;html=1;rounded=0;exitX=0;exitY=0.25;exitDx=0;exitDy=0;entryX=1;entryY=0.25;entryDx=0;entryDy=0;" edge="1" parent="GC0I484NQkUeu95godri-1113">
          <mxGeometry width="50" height="50" relative="1" as="geometry">
            <mxPoint y="22" as="sourcePoint" />
            <mxPoint x="370" y="22" as="targetPoint" />
          </mxGeometry>
        </mxCell>
        <mxCell id="GC0I484NQkUeu95godri-1116" value="" style="endArrow=none;html=1;rounded=0;" edge="1" parent="GC0I484NQkUeu95godri-1113">
          <mxGeometry width="50" height="50" relative="1" as="geometry">
            <mxPoint x="70" y="22" as="sourcePoint" />
            <mxPoint x="70" as="targetPoint" />
          </mxGeometry>
        </mxCell>
        <mxCell id="GC0I484NQkUeu95godri-1117" value="4" style="text;html=1;align=center;verticalAlign=middle;whiteSpace=wrap;rounded=0;" vertex="1" parent="GC0I484NQkUeu95godri-1113">
          <mxGeometry x="3" y="-3" width="60" height="30" as="geometry" />
        </mxCell>
        <mxCell id="GC0I484NQkUeu95godri-1123" value="" style="group" vertex="1" connectable="0" parent="GC0I484NQkUeu95godri-1113">
          <mxGeometry x="38" y="52" width="149.51" height="74.94" as="geometry" />
        </mxCell>
        <mxCell id="GC0I484NQkUeu95godri-1124" value="Megfelelő a méret?" style="rounded=0;whiteSpace=wrap;html=1;" vertex="1" parent="GC0I484NQkUeu95godri-1123">
          <mxGeometry width="131.67" height="66" as="geometry" />
        </mxCell>
        <mxCell id="GC0I484NQkUeu95godri-1125" value="" style="endArrow=none;html=1;rounded=0;exitX=0;exitY=0.25;exitDx=0;exitDy=0;entryX=1;entryY=0.25;entryDx=0;entryDy=0;" edge="1" parent="GC0I484NQkUeu95godri-1123" source="GC0I484NQkUeu95godri-1124" target="GC0I484NQkUeu95godri-1124">
          <mxGeometry width="50" height="50" relative="1" as="geometry">
            <mxPoint x="49.83666666666667" y="62.449999999999996" as="sourcePoint" />
            <mxPoint x="112.13250000000002" as="targetPoint" />
          </mxGeometry>
        </mxCell>
        <mxCell id="GC0I484NQkUeu95godri-1126" value="&lt;font style=&quot;font-size: 11px;&quot;&gt;4.1&lt;/font&gt;" style="text;html=1;align=center;verticalAlign=middle;resizable=0;points=[];autosize=1;strokeColor=none;fillColor=none;" vertex="1" parent="GC0I484NQkUeu95godri-1123">
          <mxGeometry x="-4.000121951219513" y="-5.9956097560975605" width="34" height="28" as="geometry" />
        </mxCell>
        <mxCell id="GC0I484NQkUeu95godri-1127" value="" style="endArrow=none;html=1;rounded=0;" edge="1" parent="GC0I484NQkUeu95godri-1123">
          <mxGeometry width="50" height="50" relative="1" as="geometry">
            <mxPoint x="28" y="16" as="sourcePoint" />
            <mxPoint x="28" as="targetPoint" />
          </mxGeometry>
        </mxCell>
        <mxCell id="GC0I484NQkUeu95godri-1161" style="edgeStyle=orthogonalEdgeStyle;rounded=0;orthogonalLoop=1;jettySize=auto;html=1;entryX=0.001;entryY=0.403;entryDx=0;entryDy=0;entryPerimeter=0;exitX=1.006;exitY=0.957;exitDx=0;exitDy=0;exitPerimeter=0;" edge="1" parent="1" source="GC0I484NQkUeu95godri-1196" target="GC0I484NQkUeu95godri-1109">
          <mxGeometry relative="1" as="geometry">
            <mxPoint x="168.9909083394699" y="3286" as="sourcePoint" />
            <Array as="points">
              <mxPoint x="224" y="3321" />
              <mxPoint x="368" y="3320" />
              <mxPoint x="368" y="3359" />
            </Array>
          </mxGeometry>
        </mxCell>
        <mxCell id="GC0I484NQkUeu95godri-1162" style="edgeStyle=orthogonalEdgeStyle;rounded=0;orthogonalLoop=1;jettySize=auto;html=1;entryX=0;entryY=0.5;entryDx=0;entryDy=0;" edge="1" parent="1" source="GC0I484NQkUeu95godri-1109" target="GC0I484NQkUeu95godri-1124">
          <mxGeometry relative="1" as="geometry" />
        </mxCell>
        <mxCell id="GC0I484NQkUeu95godri-1167" style="edgeStyle=orthogonalEdgeStyle;rounded=0;orthogonalLoop=1;jettySize=auto;html=1;" edge="1" parent="1" source="GC0I484NQkUeu95godri-1124">
          <mxGeometry relative="1" as="geometry">
            <mxPoint x="114" y="3242" as="targetPoint" />
            <Array as="points">
              <mxPoint x="942" y="3154" />
              <mxPoint x="114" y="3154" />
            </Array>
          </mxGeometry>
        </mxCell>
        <mxCell id="GC0I484NQkUeu95godri-1168" value="Hibaüzenet" style="text;html=1;align=center;verticalAlign=middle;resizable=0;points=[];autosize=1;strokeColor=none;fillColor=none;" vertex="1" parent="1">
          <mxGeometry x="120" y="3130" width="80" height="28" as="geometry" />
        </mxCell>
        <mxCell id="GC0I484NQkUeu95godri-1171" style="edgeStyle=orthogonalEdgeStyle;rounded=0;orthogonalLoop=1;jettySize=auto;html=1;entryX=1;entryY=0;entryDx=0;entryDy=0;" edge="1" parent="1" source="GC0I484NQkUeu95godri-1104">
          <mxGeometry relative="1" as="geometry">
            <mxPoint x="156.42640687119274" y="3241.715728752538" as="targetPoint" />
            <Array as="points">
              <mxPoint x="488" y="3216" />
              <mxPoint x="156" y="3216" />
              <mxPoint x="156" y="3242" />
            </Array>
          </mxGeometry>
        </mxCell>
        <mxCell id="GC0I484NQkUeu95godri-1172" value="&lt;span style=&quot;text-wrap: wrap;&quot;&gt;Hibaüzenet&lt;/span&gt;" style="text;html=1;align=center;verticalAlign=middle;resizable=0;points=[];autosize=1;strokeColor=none;fillColor=none;" vertex="1" parent="1">
          <mxGeometry x="158" y="3192" width="80" height="28" as="geometry" />
        </mxCell>
        <mxCell id="GC0I484NQkUeu95godri-1173" style="edgeStyle=orthogonalEdgeStyle;rounded=0;orthogonalLoop=1;jettySize=auto;html=1;entryX=0.353;entryY=1.005;entryDx=0;entryDy=0;entryPerimeter=0;exitX=0.25;exitY=1;exitDx=0;exitDy=0;" edge="1" parent="1" source="GC0I484NQkUeu95godri-1104" target="GC0I484NQkUeu95godri-1196">
          <mxGeometry relative="1" as="geometry">
            <mxPoint x="118" y="3332" as="targetPoint" />
            <Array as="points">
              <mxPoint x="455" y="3304" />
              <mxPoint x="408" y="3304" />
              <mxPoint x="408" y="3348" />
              <mxPoint x="118" y="3348" />
            </Array>
          </mxGeometry>
        </mxCell>
        <mxCell id="GC0I484NQkUeu95godri-1174" value="&lt;span style=&quot;text-wrap: wrap;&quot;&gt;Hibaüzenet&lt;/span&gt;" style="text;html=1;align=center;verticalAlign=middle;resizable=0;points=[];autosize=1;strokeColor=none;fillColor=none;" vertex="1" parent="1">
          <mxGeometry x="112" y="3344" width="80" height="28" as="geometry" />
        </mxCell>
        <mxCell id="GC0I484NQkUeu95godri-1175" value="Adatmódosítás" style="text;html=1;align=center;verticalAlign=middle;resizable=0;points=[];autosize=1;strokeColor=none;fillColor=none;" vertex="1" parent="1">
          <mxGeometry x="222" y="3262" width="100" height="28" as="geometry" />
        </mxCell>
        <mxCell id="GC0I484NQkUeu95godri-1195" value="" style="group" vertex="1" connectable="0" parent="1">
          <mxGeometry x="60" y="3242.003333333333" width="164" height="82" as="geometry" />
        </mxCell>
        <mxCell id="GC0I484NQkUeu95godri-1196" value="Sikeres bejelentkezés esetén profil oldalra váltás" style="rounded=0;whiteSpace=wrap;html=1;" vertex="1" parent="GC0I484NQkUeu95godri-1195">
          <mxGeometry width="164" height="82" as="geometry" />
        </mxCell>
        <mxCell id="GC0I484NQkUeu95godri-1197" value="" style="endArrow=none;html=1;rounded=0;exitX=0;exitY=0.25;exitDx=0;exitDy=0;entryX=1;entryY=0.25;entryDx=0;entryDy=0;" edge="1" parent="GC0I484NQkUeu95godri-1195" source="GC0I484NQkUeu95godri-1196" target="GC0I484NQkUeu95godri-1196">
          <mxGeometry width="50" height="50" relative="1" as="geometry">
            <mxPoint x="54.66666666666667" y="68.33333333333333" as="sourcePoint" />
            <mxPoint x="123" as="targetPoint" />
          </mxGeometry>
        </mxCell>
        <mxCell id="GC0I484NQkUeu95godri-1198" value="" style="endArrow=none;html=1;rounded=0;exitX=0.25;exitY=0;exitDx=0;exitDy=0;" edge="1" parent="GC0I484NQkUeu95godri-1195" source="GC0I484NQkUeu95godri-1196">
          <mxGeometry width="50" height="50" relative="1" as="geometry">
            <mxPoint x="41" y="-6.833333333333334" as="sourcePoint" />
            <mxPoint x="41" y="20.5" as="targetPoint" />
          </mxGeometry>
        </mxCell>
        <mxCell id="GC0I484NQkUeu95godri-1199" value="&lt;font style=&quot;font-size: 11px;&quot;&gt;1&lt;/font&gt;" style="text;html=1;align=center;verticalAlign=middle;resizable=0;points=[];autosize=1;strokeColor=none;fillColor=none;" vertex="1" parent="GC0I484NQkUeu95godri-1195">
          <mxGeometry x="8" y="-5" width="30" height="30" as="geometry" />
        </mxCell>
        <mxCell id="GC0I484NQkUeu95godri-1200" value="Főoldal" style="text;html=1;align=center;verticalAlign=middle;resizable=0;points=[];autosize=1;strokeColor=none;fillColor=none;" vertex="1" parent="GC0I484NQkUeu95godri-1195">
          <mxGeometry x="66" y="-4.00333333333333" width="58" height="28" as="geometry" />
        </mxCell>
        <mxCell id="GC0I484NQkUeu95godri-1177" value="Profilkép változtatás" style="text;html=1;align=center;verticalAlign=middle;resizable=0;points=[];autosize=1;strokeColor=none;fillColor=none;" vertex="1" parent="1">
          <mxGeometry x="226" y="3300" width="126" height="28" as="geometry" />
        </mxCell>
        <mxCell id="GC0I484NQkUeu95godri-1201" style="edgeStyle=orthogonalEdgeStyle;rounded=0;orthogonalLoop=1;jettySize=auto;html=1;entryX=0;entryY=0.5;entryDx=0;entryDy=0;" edge="1" parent="1" source="GC0I484NQkUeu95godri-1196" target="GC0I484NQkUeu95godri-1104">
          <mxGeometry relative="1" as="geometry" />
        </mxCell>
        <mxCell id="GC0I484NQkUeu95godri-1239" style="edgeStyle=orthogonalEdgeStyle;rounded=0;orthogonalLoop=1;jettySize=auto;html=1;entryX=0.5;entryY=0;entryDx=0;entryDy=0;" edge="1" parent="1" target="GC0I484NQkUeu95godri-1228">
          <mxGeometry relative="1" as="geometry">
            <mxPoint x="638.0000000000009" y="3872" as="sourcePoint" />
          </mxGeometry>
        </mxCell>
        <mxCell id="GC0I484NQkUeu95godri-1382" style="edgeStyle=orthogonalEdgeStyle;rounded=0;orthogonalLoop=1;jettySize=auto;html=1;entryX=0.5;entryY=-0.017;entryDx=0;entryDy=0;entryPerimeter=0;" edge="1" parent="1" source="GC0I484NQkUeu95godri-1381">
          <mxGeometry relative="1" as="geometry">
            <Array as="points">
              <mxPoint x="2566" y="3842.0299999999997" />
              <mxPoint x="2740" y="3842.0299999999997" />
            </Array>
            <mxPoint x="2740" y="3861.5709999999995" as="targetPoint" />
          </mxGeometry>
        </mxCell>
        <mxCell id="GC0I484NQkUeu95godri-1733" value="" style="group" vertex="1" connectable="0" parent="1">
          <mxGeometry x="536" y="3380" width="24" height="31" as="geometry" />
        </mxCell>
        <mxCell id="GC0I484NQkUeu95godri-1734" value="" style="endArrow=none;html=1;rounded=0;" edge="1" parent="GC0I484NQkUeu95godri-1733">
          <mxGeometry width="50" height="50" relative="1" as="geometry">
            <mxPoint y="18" as="sourcePoint" />
            <mxPoint x="18" as="targetPoint" />
          </mxGeometry>
        </mxCell>
        <mxCell id="GC0I484NQkUeu95godri-1735" value="&lt;font style=&quot;font-size: 13px;&quot;&gt;*&lt;/font&gt;" style="text;html=1;align=center;verticalAlign=middle;resizable=0;points=[];autosize=1;strokeColor=none;fillColor=none;" vertex="1" parent="GC0I484NQkUeu95godri-1733">
          <mxGeometry y="1" width="24" height="30" as="geometry" />
        </mxCell>
        <mxCell id="GC0I484NQkUeu95godri-1739" value="" style="group" vertex="1" connectable="0" parent="1">
          <mxGeometry x="990" y="3278" width="24" height="31" as="geometry" />
        </mxCell>
        <mxCell id="GC0I484NQkUeu95godri-1740" value="" style="endArrow=none;html=1;rounded=0;" edge="1" parent="GC0I484NQkUeu95godri-1739">
          <mxGeometry width="50" height="50" relative="1" as="geometry">
            <mxPoint y="18" as="sourcePoint" />
            <mxPoint x="18" as="targetPoint" />
          </mxGeometry>
        </mxCell>
        <mxCell id="GC0I484NQkUeu95godri-1741" value="&lt;font style=&quot;font-size: 13px;&quot;&gt;*&lt;/font&gt;" style="text;html=1;align=center;verticalAlign=middle;resizable=0;points=[];autosize=1;strokeColor=none;fillColor=none;" vertex="1" parent="GC0I484NQkUeu95godri-1739">
          <mxGeometry y="1" width="24" height="30" as="geometry" />
        </mxCell>
        <mxCell id="GC0I484NQkUeu95godri-2248" value="" style="group" vertex="1" connectable="0" parent="1">
          <mxGeometry x="-308" y="2556" width="370" height="312" as="geometry" />
        </mxCell>
        <mxCell id="GC0I484NQkUeu95godri-2249" value="" style="rounded=0;whiteSpace=wrap;html=1;" vertex="1" parent="GC0I484NQkUeu95godri-2248">
          <mxGeometry y="-2" width="369.99999999999994" height="312" as="geometry" />
        </mxCell>
        <mxCell id="GC0I484NQkUeu95godri-2250" value="" style="endArrow=none;html=1;rounded=0;exitX=0;exitY=0.25;exitDx=0;exitDy=0;entryX=1;entryY=0.25;entryDx=0;entryDy=0;" edge="1" parent="GC0I484NQkUeu95godri-2248">
          <mxGeometry width="50" height="50" relative="1" as="geometry">
            <mxPoint y="22" as="sourcePoint" />
            <mxPoint x="370" y="22" as="targetPoint" />
          </mxGeometry>
        </mxCell>
        <mxCell id="GC0I484NQkUeu95godri-2251" value="" style="endArrow=none;html=1;rounded=0;" edge="1" parent="GC0I484NQkUeu95godri-2248">
          <mxGeometry width="50" height="50" relative="1" as="geometry">
            <mxPoint x="70" y="22" as="sourcePoint" />
            <mxPoint x="70" y="-2" as="targetPoint" />
          </mxGeometry>
        </mxCell>
        <mxCell id="GC0I484NQkUeu95godri-2252" value="5" style="text;html=1;align=center;verticalAlign=middle;whiteSpace=wrap;rounded=0;" vertex="1" parent="GC0I484NQkUeu95godri-2248">
          <mxGeometry x="3" y="-3" width="60" height="30" as="geometry" />
        </mxCell>
        <mxCell id="GC0I484NQkUeu95godri-2253" value="" style="group" vertex="1" connectable="0" parent="GC0I484NQkUeu95godri-2248">
          <mxGeometry x="24" y="218" width="149.51" height="79" as="geometry" />
        </mxCell>
        <mxCell id="GC0I484NQkUeu95godri-2254" value="Poszt kezelése&lt;div&gt;(törlés, beállítások)&lt;/div&gt;" style="rounded=0;whiteSpace=wrap;html=1;" vertex="1" parent="GC0I484NQkUeu95godri-2253">
          <mxGeometry width="131.67" height="66" as="geometry" />
        </mxCell>
        <mxCell id="GC0I484NQkUeu95godri-2255" value="" style="endArrow=none;html=1;rounded=0;exitX=0;exitY=0.25;exitDx=0;exitDy=0;entryX=1;entryY=0.25;entryDx=0;entryDy=0;" edge="1" parent="GC0I484NQkUeu95godri-2253" source="GC0I484NQkUeu95godri-2254" target="GC0I484NQkUeu95godri-2254">
          <mxGeometry width="50" height="50" relative="1" as="geometry">
            <mxPoint x="49.83666666666667" y="62.449999999999996" as="sourcePoint" />
            <mxPoint x="112.13250000000002" as="targetPoint" />
          </mxGeometry>
        </mxCell>
        <mxCell id="GC0I484NQkUeu95godri-2256" value="&lt;font style=&quot;font-size: 11px;&quot;&gt;5.3&lt;/font&gt;" style="text;html=1;align=center;verticalAlign=middle;resizable=0;points=[];autosize=1;strokeColor=none;fillColor=none;" vertex="1" parent="GC0I484NQkUeu95godri-2253">
          <mxGeometry x="-4.000121951219513" y="-5.9956097560975605" width="34" height="28" as="geometry" />
        </mxCell>
        <mxCell id="GC0I484NQkUeu95godri-2257" value="" style="endArrow=none;html=1;rounded=0;" edge="1" parent="GC0I484NQkUeu95godri-2253">
          <mxGeometry width="50" height="50" relative="1" as="geometry">
            <mxPoint x="28" y="16" as="sourcePoint" />
            <mxPoint x="28" as="targetPoint" />
          </mxGeometry>
        </mxCell>
        <mxCell id="GC0I484NQkUeu95godri-2258" value="" style="group" vertex="1" connectable="0" parent="GC0I484NQkUeu95godri-2253">
          <mxGeometry x="114" y="48" width="24" height="31" as="geometry" />
        </mxCell>
        <mxCell id="GC0I484NQkUeu95godri-2259" value="" style="endArrow=none;html=1;rounded=0;" edge="1" parent="GC0I484NQkUeu95godri-2258">
          <mxGeometry width="50" height="50" relative="1" as="geometry">
            <mxPoint y="18" as="sourcePoint" />
            <mxPoint x="18" as="targetPoint" />
          </mxGeometry>
        </mxCell>
        <mxCell id="GC0I484NQkUeu95godri-2260" value="&lt;font style=&quot;font-size: 13px;&quot;&gt;*&lt;/font&gt;" style="text;html=1;align=center;verticalAlign=middle;resizable=0;points=[];autosize=1;strokeColor=none;fillColor=none;" vertex="1" parent="GC0I484NQkUeu95godri-2258">
          <mxGeometry y="1" width="24" height="30" as="geometry" />
        </mxCell>
        <mxCell id="GC0I484NQkUeu95godri-2261" value="" style="group" vertex="1" connectable="0" parent="GC0I484NQkUeu95godri-2248">
          <mxGeometry x="24" y="40" width="149.51" height="74.94" as="geometry" />
        </mxCell>
        <mxCell id="GC0I484NQkUeu95godri-2262" value="Érvényes név?" style="rounded=0;whiteSpace=wrap;html=1;" vertex="1" parent="GC0I484NQkUeu95godri-2261">
          <mxGeometry width="131.67" height="66" as="geometry" />
        </mxCell>
        <mxCell id="GC0I484NQkUeu95godri-2263" value="" style="endArrow=none;html=1;rounded=0;exitX=0;exitY=0.25;exitDx=0;exitDy=0;entryX=1;entryY=0.25;entryDx=0;entryDy=0;" edge="1" parent="GC0I484NQkUeu95godri-2261" source="GC0I484NQkUeu95godri-2262" target="GC0I484NQkUeu95godri-2262">
          <mxGeometry width="50" height="50" relative="1" as="geometry">
            <mxPoint x="49.83666666666667" y="62.449999999999996" as="sourcePoint" />
            <mxPoint x="112.13250000000002" as="targetPoint" />
          </mxGeometry>
        </mxCell>
        <mxCell id="GC0I484NQkUeu95godri-2264" value="&lt;font style=&quot;font-size: 11px;&quot;&gt;5.1&lt;/font&gt;" style="text;html=1;align=center;verticalAlign=middle;resizable=0;points=[];autosize=1;strokeColor=none;fillColor=none;" vertex="1" parent="GC0I484NQkUeu95godri-2261">
          <mxGeometry x="-4.000121951219513" y="-5.9956097560975605" width="34" height="28" as="geometry" />
        </mxCell>
        <mxCell id="GC0I484NQkUeu95godri-2265" value="" style="endArrow=none;html=1;rounded=0;" edge="1" parent="GC0I484NQkUeu95godri-2261">
          <mxGeometry width="50" height="50" relative="1" as="geometry">
            <mxPoint x="28" y="16" as="sourcePoint" />
            <mxPoint x="28" as="targetPoint" />
          </mxGeometry>
        </mxCell>
        <mxCell id="GC0I484NQkUeu95godri-2266" value="" style="group" vertex="1" connectable="0" parent="GC0I484NQkUeu95godri-2248">
          <mxGeometry x="24" y="128" width="149.51" height="79" as="geometry" />
        </mxCell>
        <mxCell id="GC0I484NQkUeu95godri-2267" value="Poszt megtekintése" style="rounded=0;whiteSpace=wrap;html=1;" vertex="1" parent="GC0I484NQkUeu95godri-2266">
          <mxGeometry width="131.67" height="66" as="geometry" />
        </mxCell>
        <mxCell id="GC0I484NQkUeu95godri-2268" value="" style="endArrow=none;html=1;rounded=0;exitX=0;exitY=0.25;exitDx=0;exitDy=0;entryX=1;entryY=0.25;entryDx=0;entryDy=0;" edge="1" parent="GC0I484NQkUeu95godri-2266" source="GC0I484NQkUeu95godri-2267" target="GC0I484NQkUeu95godri-2267">
          <mxGeometry width="50" height="50" relative="1" as="geometry">
            <mxPoint x="49.83666666666667" y="62.449999999999996" as="sourcePoint" />
            <mxPoint x="112.13250000000002" as="targetPoint" />
          </mxGeometry>
        </mxCell>
        <mxCell id="GC0I484NQkUeu95godri-2269" value="&lt;font style=&quot;font-size: 11px;&quot;&gt;5.2&lt;/font&gt;" style="text;html=1;align=center;verticalAlign=middle;resizable=0;points=[];autosize=1;strokeColor=none;fillColor=none;" vertex="1" parent="GC0I484NQkUeu95godri-2266">
          <mxGeometry x="-4.000121951219513" y="-5.9956097560975605" width="34" height="28" as="geometry" />
        </mxCell>
        <mxCell id="GC0I484NQkUeu95godri-2270" value="" style="endArrow=none;html=1;rounded=0;" edge="1" parent="GC0I484NQkUeu95godri-2266">
          <mxGeometry width="50" height="50" relative="1" as="geometry">
            <mxPoint x="28" y="16" as="sourcePoint" />
            <mxPoint x="28" as="targetPoint" />
          </mxGeometry>
        </mxCell>
        <mxCell id="GC0I484NQkUeu95godri-2271" value="" style="group" vertex="1" connectable="0" parent="GC0I484NQkUeu95godri-2266">
          <mxGeometry x="112" y="48" width="24" height="31" as="geometry" />
        </mxCell>
        <mxCell id="GC0I484NQkUeu95godri-2272" value="" style="endArrow=none;html=1;rounded=0;" edge="1" parent="GC0I484NQkUeu95godri-2271">
          <mxGeometry width="50" height="50" relative="1" as="geometry">
            <mxPoint y="18" as="sourcePoint" />
            <mxPoint x="18" as="targetPoint" />
          </mxGeometry>
        </mxCell>
        <mxCell id="GC0I484NQkUeu95godri-2273" value="&lt;font style=&quot;font-size: 13px;&quot;&gt;*&lt;/font&gt;" style="text;html=1;align=center;verticalAlign=middle;resizable=0;points=[];autosize=1;strokeColor=none;fillColor=none;" vertex="1" parent="GC0I484NQkUeu95godri-2271">
          <mxGeometry y="1" width="24" height="30" as="geometry" />
        </mxCell>
        <mxCell id="GC0I484NQkUeu95godri-2274" value="" style="group" vertex="1" connectable="0" parent="GC0I484NQkUeu95godri-2248">
          <mxGeometry x="196" y="218" width="149.51" height="79" as="geometry" />
        </mxCell>
        <mxCell id="GC0I484NQkUeu95godri-2275" value="Megfelelőek a jogok?&lt;div&gt;(Csoporttulaj/admin?)&lt;/div&gt;" style="rounded=0;whiteSpace=wrap;html=1;" vertex="1" parent="GC0I484NQkUeu95godri-2274">
          <mxGeometry width="131.67" height="66" as="geometry" />
        </mxCell>
        <mxCell id="GC0I484NQkUeu95godri-2276" value="" style="endArrow=none;html=1;rounded=0;exitX=0;exitY=0.25;exitDx=0;exitDy=0;entryX=1;entryY=0.25;entryDx=0;entryDy=0;" edge="1" parent="GC0I484NQkUeu95godri-2274" source="GC0I484NQkUeu95godri-2275" target="GC0I484NQkUeu95godri-2275">
          <mxGeometry width="50" height="50" relative="1" as="geometry">
            <mxPoint x="49.83666666666667" y="62.449999999999996" as="sourcePoint" />
            <mxPoint x="112.13250000000002" as="targetPoint" />
          </mxGeometry>
        </mxCell>
        <mxCell id="GC0I484NQkUeu95godri-2277" value="&lt;font style=&quot;font-size: 11px;&quot;&gt;5.5&lt;/font&gt;" style="text;html=1;align=center;verticalAlign=middle;resizable=0;points=[];autosize=1;strokeColor=none;fillColor=none;" vertex="1" parent="GC0I484NQkUeu95godri-2274">
          <mxGeometry x="-4.000121951219513" y="-5.9956097560975605" width="34" height="28" as="geometry" />
        </mxCell>
        <mxCell id="GC0I484NQkUeu95godri-2278" value="" style="endArrow=none;html=1;rounded=0;" edge="1" parent="GC0I484NQkUeu95godri-2274">
          <mxGeometry width="50" height="50" relative="1" as="geometry">
            <mxPoint x="28" y="16" as="sourcePoint" />
            <mxPoint x="28" as="targetPoint" />
          </mxGeometry>
        </mxCell>
        <mxCell id="GC0I484NQkUeu95godri-2279" value="" style="group" vertex="1" connectable="0" parent="GC0I484NQkUeu95godri-2274">
          <mxGeometry x="114" y="48" width="24" height="31" as="geometry" />
        </mxCell>
        <mxCell id="GC0I484NQkUeu95godri-2280" value="" style="endArrow=none;html=1;rounded=0;" edge="1" parent="GC0I484NQkUeu95godri-2279">
          <mxGeometry width="50" height="50" relative="1" as="geometry">
            <mxPoint y="18" as="sourcePoint" />
            <mxPoint x="18" as="targetPoint" />
          </mxGeometry>
        </mxCell>
        <mxCell id="GC0I484NQkUeu95godri-2281" value="&lt;font style=&quot;font-size: 13px;&quot;&gt;*&lt;/font&gt;" style="text;html=1;align=center;verticalAlign=middle;resizable=0;points=[];autosize=1;strokeColor=none;fillColor=none;" vertex="1" parent="GC0I484NQkUeu95godri-2279">
          <mxGeometry y="1" width="24" height="30" as="geometry" />
        </mxCell>
        <mxCell id="GC0I484NQkUeu95godri-2282" style="edgeStyle=orthogonalEdgeStyle;rounded=0;orthogonalLoop=1;jettySize=auto;html=1;entryX=0;entryY=0.5;entryDx=0;entryDy=0;" edge="1" parent="GC0I484NQkUeu95godri-2248" source="GC0I484NQkUeu95godri-2254" target="GC0I484NQkUeu95godri-2275">
          <mxGeometry relative="1" as="geometry" />
        </mxCell>
        <mxCell id="GC0I484NQkUeu95godri-2293" value="" style="group" vertex="1" connectable="0" parent="GC0I484NQkUeu95godri-2248">
          <mxGeometry x="136" y="88" width="24" height="31" as="geometry" />
        </mxCell>
        <mxCell id="GC0I484NQkUeu95godri-2294" value="" style="endArrow=none;html=1;rounded=0;" edge="1" parent="GC0I484NQkUeu95godri-2293">
          <mxGeometry width="50" height="50" relative="1" as="geometry">
            <mxPoint y="18" as="sourcePoint" />
            <mxPoint x="18" as="targetPoint" />
          </mxGeometry>
        </mxCell>
        <mxCell id="GC0I484NQkUeu95godri-2295" value="&lt;font style=&quot;font-size: 13px;&quot;&gt;*&lt;/font&gt;" style="text;html=1;align=center;verticalAlign=middle;resizable=0;points=[];autosize=1;strokeColor=none;fillColor=none;" vertex="1" parent="GC0I484NQkUeu95godri-2293">
          <mxGeometry y="1" width="24" height="30" as="geometry" />
        </mxCell>
        <mxCell id="GC0I484NQkUeu95godri-2296" value="" style="group" vertex="1" connectable="0" parent="1">
          <mxGeometry x="-714" y="2642.003333333333" width="164" height="82" as="geometry" />
        </mxCell>
        <mxCell id="GC0I484NQkUeu95godri-2297" value="Sikeres bejelentkezés esetén" style="rounded=0;whiteSpace=wrap;html=1;" vertex="1" parent="GC0I484NQkUeu95godri-2296">
          <mxGeometry width="164" height="82" as="geometry" />
        </mxCell>
        <mxCell id="GC0I484NQkUeu95godri-2298" value="" style="endArrow=none;html=1;rounded=0;exitX=0;exitY=0.25;exitDx=0;exitDy=0;entryX=1;entryY=0.25;entryDx=0;entryDy=0;" edge="1" parent="GC0I484NQkUeu95godri-2296" source="GC0I484NQkUeu95godri-2297" target="GC0I484NQkUeu95godri-2297">
          <mxGeometry width="50" height="50" relative="1" as="geometry">
            <mxPoint x="54.66666666666667" y="68.33333333333333" as="sourcePoint" />
            <mxPoint x="123" as="targetPoint" />
          </mxGeometry>
        </mxCell>
        <mxCell id="GC0I484NQkUeu95godri-2299" value="" style="endArrow=none;html=1;rounded=0;exitX=0.25;exitY=0;exitDx=0;exitDy=0;" edge="1" parent="GC0I484NQkUeu95godri-2296" source="GC0I484NQkUeu95godri-2297">
          <mxGeometry width="50" height="50" relative="1" as="geometry">
            <mxPoint x="41" y="-6.833333333333334" as="sourcePoint" />
            <mxPoint x="41" y="20.5" as="targetPoint" />
          </mxGeometry>
        </mxCell>
        <mxCell id="GC0I484NQkUeu95godri-2300" value="&lt;font style=&quot;font-size: 11px;&quot;&gt;1&lt;/font&gt;" style="text;html=1;align=center;verticalAlign=middle;resizable=0;points=[];autosize=1;strokeColor=none;fillColor=none;" vertex="1" parent="GC0I484NQkUeu95godri-2296">
          <mxGeometry x="8" y="-5" width="30" height="30" as="geometry" />
        </mxCell>
        <mxCell id="GC0I484NQkUeu95godri-2301" value="Főoldal" style="text;html=1;align=center;verticalAlign=middle;resizable=0;points=[];autosize=1;strokeColor=none;fillColor=none;" vertex="1" parent="GC0I484NQkUeu95godri-2296">
          <mxGeometry x="66" y="-4.00333333333333" width="58" height="28" as="geometry" />
        </mxCell>
        <mxCell id="GC0I484NQkUeu95godri-2302" value="" style="group" vertex="1" connectable="0" parent="1">
          <mxGeometry x="-110" y="2900" width="170" height="95" as="geometry" />
        </mxCell>
        <mxCell id="GC0I484NQkUeu95godri-2303" value="&lt;span style=&quot;text-wrap: nowrap;&quot;&gt;Hozzászólás&lt;/span&gt;" style="rounded=0;whiteSpace=wrap;html=1;" vertex="1" parent="GC0I484NQkUeu95godri-2302">
          <mxGeometry width="164" height="82" as="geometry" />
        </mxCell>
        <mxCell id="GC0I484NQkUeu95godri-2304" value="" style="endArrow=none;html=1;rounded=0;exitX=0;exitY=0.25;exitDx=0;exitDy=0;entryX=1;entryY=0.25;entryDx=0;entryDy=0;" edge="1" parent="GC0I484NQkUeu95godri-2302" source="GC0I484NQkUeu95godri-2303" target="GC0I484NQkUeu95godri-2303">
          <mxGeometry width="50" height="50" relative="1" as="geometry">
            <mxPoint x="54.66666666666667" y="68.33333333333333" as="sourcePoint" />
            <mxPoint x="123" as="targetPoint" />
          </mxGeometry>
        </mxCell>
        <mxCell id="GC0I484NQkUeu95godri-2305" value="" style="endArrow=none;html=1;rounded=0;exitX=0.25;exitY=0;exitDx=0;exitDy=0;" edge="1" parent="GC0I484NQkUeu95godri-2302" source="GC0I484NQkUeu95godri-2303">
          <mxGeometry width="50" height="50" relative="1" as="geometry">
            <mxPoint x="41" y="-6.833333333333334" as="sourcePoint" />
            <mxPoint x="41" y="20.5" as="targetPoint" />
          </mxGeometry>
        </mxCell>
        <mxCell id="GC0I484NQkUeu95godri-2306" value="&lt;font style=&quot;font-size: 11px;&quot;&gt;6&lt;/font&gt;" style="text;html=1;align=center;verticalAlign=middle;resizable=0;points=[];autosize=1;strokeColor=none;fillColor=none;" vertex="1" parent="GC0I484NQkUeu95godri-2302">
          <mxGeometry x="10" y="-4" width="26" height="28" as="geometry" />
        </mxCell>
        <mxCell id="GC0I484NQkUeu95godri-2307" value="Poszt" style="text;html=1;align=center;verticalAlign=middle;resizable=0;points=[];autosize=1;strokeColor=none;fillColor=none;" vertex="1" parent="GC0I484NQkUeu95godri-2302">
          <mxGeometry x="62" y="-3" width="50" height="28" as="geometry" />
        </mxCell>
        <mxCell id="GC0I484NQkUeu95godri-2308" value="" style="group" vertex="1" connectable="0" parent="GC0I484NQkUeu95godri-2302">
          <mxGeometry x="146" y="64" width="24" height="31" as="geometry" />
        </mxCell>
        <mxCell id="GC0I484NQkUeu95godri-2309" value="" style="endArrow=none;html=1;rounded=0;" edge="1" parent="GC0I484NQkUeu95godri-2308">
          <mxGeometry width="50" height="50" relative="1" as="geometry">
            <mxPoint y="18" as="sourcePoint" />
            <mxPoint x="18" as="targetPoint" />
          </mxGeometry>
        </mxCell>
        <mxCell id="GC0I484NQkUeu95godri-2310" value="&lt;font style=&quot;font-size: 13px;&quot;&gt;*&lt;/font&gt;" style="text;html=1;align=center;verticalAlign=middle;resizable=0;points=[];autosize=1;strokeColor=none;fillColor=none;" vertex="1" parent="GC0I484NQkUeu95godri-2308">
          <mxGeometry y="1" width="24" height="30" as="geometry" />
        </mxCell>
        <mxCell id="GC0I484NQkUeu95godri-2311" style="edgeStyle=orthogonalEdgeStyle;rounded=0;orthogonalLoop=1;jettySize=auto;html=1;" edge="1" parent="1" source="GC0I484NQkUeu95godri-2267" target="GC0I484NQkUeu95godri-2303">
          <mxGeometry relative="1" as="geometry">
            <Array as="points">
              <mxPoint x="-132" y="2717" />
              <mxPoint x="-132" y="2941" />
            </Array>
          </mxGeometry>
        </mxCell>
        <mxCell id="GC0I484NQkUeu95godri-2312" style="edgeStyle=orthogonalEdgeStyle;rounded=0;orthogonalLoop=1;jettySize=auto;html=1;entryX=0;entryY=0.5;entryDx=0;entryDy=0;" edge="1" parent="1" source="GC0I484NQkUeu95godri-2297" target="GC0I484NQkUeu95godri-2262">
          <mxGeometry relative="1" as="geometry">
            <Array as="points">
              <mxPoint x="-417" y="2660" />
              <mxPoint x="-417" y="2629" />
            </Array>
          </mxGeometry>
        </mxCell>
        <mxCell id="GC0I484NQkUeu95godri-2313" style="edgeStyle=orthogonalEdgeStyle;rounded=0;orthogonalLoop=1;jettySize=auto;html=1;entryX=0.004;entryY=0.446;entryDx=0;entryDy=0;entryPerimeter=0;" edge="1" parent="1" source="GC0I484NQkUeu95godri-2297" target="GC0I484NQkUeu95godri-2267">
          <mxGeometry relative="1" as="geometry">
            <Array as="points">
              <mxPoint x="-372" y="2683" />
              <mxPoint x="-372" y="2713" />
            </Array>
          </mxGeometry>
        </mxCell>
        <mxCell id="GC0I484NQkUeu95godri-2314" style="edgeStyle=orthogonalEdgeStyle;rounded=0;orthogonalLoop=1;jettySize=auto;html=1;entryX=0;entryY=0.5;entryDx=0;entryDy=0;" edge="1" parent="1" source="GC0I484NQkUeu95godri-2297" target="GC0I484NQkUeu95godri-2254">
          <mxGeometry relative="1" as="geometry">
            <Array as="points">
              <mxPoint x="-417" y="2714" />
              <mxPoint x="-417" y="2807" />
            </Array>
          </mxGeometry>
        </mxCell>
        <mxCell id="GC0I484NQkUeu95godri-2315" value="Poszt létrehozása" style="text;html=1;align=center;verticalAlign=middle;resizable=0;points=[];autosize=1;strokeColor=none;fillColor=none;" vertex="1" parent="1">
          <mxGeometry x="-544" y="2636" width="114" height="28" as="geometry" />
        </mxCell>
        <mxCell id="GC0I484NQkUeu95godri-2316" value="Poszt megtekintés" style="text;html=1;align=center;verticalAlign=middle;resizable=0;points=[];autosize=1;strokeColor=none;fillColor=none;" vertex="1" parent="1">
          <mxGeometry x="-550" y="2660" width="118" height="28" as="geometry" />
        </mxCell>
        <mxCell id="GC0I484NQkUeu95godri-2317" value="Poszt kezelése" style="text;html=1;align=center;verticalAlign=middle;resizable=0;points=[];autosize=1;strokeColor=none;fillColor=none;" vertex="1" parent="1">
          <mxGeometry x="-548" y="2690" width="100" height="28" as="geometry" />
        </mxCell>
        <mxCell id="GC0I484NQkUeu95godri-2318" value="" style="group" vertex="1" connectable="0" parent="1">
          <mxGeometry x="-262" y="2486" width="157" height="30.000000000000057" as="geometry" />
        </mxCell>
        <mxCell id="GC0I484NQkUeu95godri-2319" value="&amp;nbsp;L2" style="html=1;dashed=0;whiteSpace=wrap;shape=mxgraph.dfd.dataStoreID;align=left;spacingLeft=3;points=[[0,0],[0.5,0],[1,0],[0,0.5],[1,0.5],[0,1],[0.5,1],[1,1]];" vertex="1" parent="GC0I484NQkUeu95godri-2318">
          <mxGeometry width="152" height="30" as="geometry" />
        </mxCell>
        <mxCell id="GC0I484NQkUeu95godri-2320" value="" style="endArrow=none;html=1;rounded=0;entryX=0.078;entryY=0.005;entryDx=0;entryDy=0;entryPerimeter=0;exitX=0.077;exitY=1.001;exitDx=0;exitDy=0;exitPerimeter=0;" edge="1" parent="GC0I484NQkUeu95godri-2318">
          <mxGeometry width="50" height="50" relative="1" as="geometry">
            <mxPoint x="4.699999999999932" y="30.000000000000057" as="sourcePoint" />
            <mxPoint x="4.7999999999999545" y="0.12000000000000455" as="targetPoint" />
          </mxGeometry>
        </mxCell>
        <mxCell id="GC0I484NQkUeu95godri-2321" value="Posztok" style="text;html=1;align=center;verticalAlign=middle;resizable=0;points=[];autosize=1;strokeColor=none;fillColor=none;" vertex="1" parent="GC0I484NQkUeu95godri-2318">
          <mxGeometry x="57" width="70" height="30" as="geometry" />
        </mxCell>
        <mxCell id="GC0I484NQkUeu95godri-2322" value="" style="group" vertex="1" connectable="0" parent="1">
          <mxGeometry x="-88" y="2432" width="157" height="30.000000000000057" as="geometry" />
        </mxCell>
        <mxCell id="GC0I484NQkUeu95godri-2323" value="&amp;nbsp;L3" style="html=1;dashed=0;whiteSpace=wrap;shape=mxgraph.dfd.dataStoreID;align=left;spacingLeft=3;points=[[0,0],[0.5,0],[1,0],[0,0.5],[1,0.5],[0,1],[0.5,1],[1,1]];" vertex="1" parent="GC0I484NQkUeu95godri-2322">
          <mxGeometry width="152" height="30" as="geometry" />
        </mxCell>
        <mxCell id="GC0I484NQkUeu95godri-2324" value="" style="endArrow=none;html=1;rounded=0;entryX=0.078;entryY=0.005;entryDx=0;entryDy=0;entryPerimeter=0;exitX=0.077;exitY=1.001;exitDx=0;exitDy=0;exitPerimeter=0;" edge="1" parent="GC0I484NQkUeu95godri-2322">
          <mxGeometry width="50" height="50" relative="1" as="geometry">
            <mxPoint x="4.699999999999932" y="30.000000000000057" as="sourcePoint" />
            <mxPoint x="4.7999999999999545" y="0.12000000000000455" as="targetPoint" />
          </mxGeometry>
        </mxCell>
        <mxCell id="GC0I484NQkUeu95godri-2325" value="Hozzászólások" style="text;html=1;align=center;verticalAlign=middle;resizable=0;points=[];autosize=1;strokeColor=none;fillColor=none;" vertex="1" parent="GC0I484NQkUeu95godri-2322">
          <mxGeometry x="42" y="1" width="100" height="28" as="geometry" />
        </mxCell>
        <mxCell id="GC0I484NQkUeu95godri-2326" style="edgeStyle=orthogonalEdgeStyle;rounded=0;orthogonalLoop=1;jettySize=auto;html=1;entryX=0.994;entryY=0.345;entryDx=0;entryDy=0;entryPerimeter=0;" edge="1" parent="1" source="GC0I484NQkUeu95godri-2319" target="GC0I484NQkUeu95godri-2267">
          <mxGeometry relative="1" as="geometry">
            <Array as="points">
              <mxPoint x="-152" y="2530" />
              <mxPoint x="-132" y="2530" />
              <mxPoint x="-132" y="2707" />
            </Array>
          </mxGeometry>
        </mxCell>
        <mxCell id="GC0I484NQkUeu95godri-2327" style="edgeStyle=orthogonalEdgeStyle;rounded=0;orthogonalLoop=1;jettySize=auto;html=1;" edge="1" parent="1" source="GC0I484NQkUeu95godri-2323" target="GC0I484NQkUeu95godri-2319">
          <mxGeometry relative="1" as="geometry" />
        </mxCell>
        <mxCell id="GC0I484NQkUeu95godri-2329" style="edgeStyle=orthogonalEdgeStyle;rounded=0;orthogonalLoop=1;jettySize=auto;html=1;entryX=0.331;entryY=0.006;entryDx=0;entryDy=0;entryPerimeter=0;" edge="1" parent="1" source="GC0I484NQkUeu95godri-2262" target="GC0I484NQkUeu95godri-2297">
          <mxGeometry relative="1" as="geometry">
            <Array as="points">
              <mxPoint x="-218" y="2590" />
              <mxPoint x="-660" y="2590" />
              <mxPoint x="-660" y="2596" />
            </Array>
          </mxGeometry>
        </mxCell>
        <mxCell id="GC0I484NQkUeu95godri-2330" value="Hibaüzenet" style="text;html=1;align=center;verticalAlign=middle;resizable=0;points=[];autosize=1;strokeColor=none;fillColor=none;" vertex="1" parent="1">
          <mxGeometry x="-666" y="2586" width="80" height="28" as="geometry" />
        </mxCell>
        <mxCell id="GC0I484NQkUeu95godri-2416" value="" style="group" vertex="1" connectable="0" parent="1">
          <mxGeometry x="-412" y="3159.9700000000003" width="367.51" height="234" as="geometry" />
        </mxCell>
        <mxCell id="GC0I484NQkUeu95godri-2417" value="" style="rounded=0;whiteSpace=wrap;html=1;" vertex="1" parent="GC0I484NQkUeu95godri-2416">
          <mxGeometry width="366" height="216" as="geometry" />
        </mxCell>
        <mxCell id="GC0I484NQkUeu95godri-2418" value="" style="endArrow=none;html=1;rounded=0;exitX=0;exitY=0.25;exitDx=0;exitDy=0;entryX=1.001;entryY=0.068;entryDx=0;entryDy=0;entryPerimeter=0;" edge="1" parent="GC0I484NQkUeu95godri-2416" target="GC0I484NQkUeu95godri-2417">
          <mxGeometry width="50" height="50" relative="1" as="geometry">
            <mxPoint y="15.08974358974359" as="sourcePoint" />
            <mxPoint x="253.79" y="15.08974358974359" as="targetPoint" />
          </mxGeometry>
        </mxCell>
        <mxCell id="GC0I484NQkUeu95godri-2419" value="" style="endArrow=none;html=1;rounded=0;" edge="1" parent="GC0I484NQkUeu95godri-2416">
          <mxGeometry width="50" height="50" relative="1" as="geometry">
            <mxPoint x="48.01432432432433" y="15.08974358974359" as="sourcePoint" />
            <mxPoint x="48.01432432432433" as="targetPoint" />
          </mxGeometry>
        </mxCell>
        <mxCell id="GC0I484NQkUeu95godri-2420" value="10" style="text;html=1;align=center;verticalAlign=middle;whiteSpace=wrap;rounded=0;" vertex="1" parent="GC0I484NQkUeu95godri-2416">
          <mxGeometry x="2.0577567567567567" y="-2.0576923076923075" width="41.15513513513513" height="20.576923076923077" as="geometry" />
        </mxCell>
        <mxCell id="GC0I484NQkUeu95godri-2421" value="" style="group" vertex="1" connectable="0" parent="GC0I484NQkUeu95godri-2416">
          <mxGeometry x="21.99931516797156" y="29.996865907653376" width="172.01986988847582" height="157.4731340923467" as="geometry" />
        </mxCell>
        <mxCell id="GC0I484NQkUeu95godri-2422" value="Megfelelő a kiterjesztés?" style="rounded=0;whiteSpace=wrap;html=1;" vertex="1" parent="GC0I484NQkUeu95godri-2421">
          <mxGeometry width="131.67" height="66" as="geometry" />
        </mxCell>
        <mxCell id="GC0I484NQkUeu95godri-2423" value="" style="endArrow=none;html=1;rounded=0;exitX=0;exitY=0.25;exitDx=0;exitDy=0;entryX=1;entryY=0.25;entryDx=0;entryDy=0;" edge="1" parent="GC0I484NQkUeu95godri-2421" source="GC0I484NQkUeu95godri-2422" target="GC0I484NQkUeu95godri-2422">
          <mxGeometry width="50" height="50" relative="1" as="geometry">
            <mxPoint x="57.339956629491944" y="71.8510752688172" as="sourcePoint" />
            <mxPoint x="129.0149024163569" as="targetPoint" />
          </mxGeometry>
        </mxCell>
        <mxCell id="GC0I484NQkUeu95godri-2424" value="&lt;font style=&quot;font-size: 11px;&quot;&gt;10.1&lt;/font&gt;" style="text;html=1;align=center;verticalAlign=middle;resizable=0;points=[];autosize=1;strokeColor=none;fillColor=none;" vertex="1" parent="GC0I484NQkUeu95godri-2421">
          <mxGeometry x="-8.054043657629885" y="-6.898174665617623" width="40" height="28" as="geometry" />
        </mxCell>
        <mxCell id="GC0I484NQkUeu95godri-2425" value="" style="endArrow=none;html=1;rounded=0;" edge="1" parent="GC0I484NQkUeu95godri-2421">
          <mxGeometry width="50" height="50" relative="1" as="geometry">
            <mxPoint x="32.00068483202858" y="16.0031340923465" as="sourcePoint" />
            <mxPoint x="32.215613382899626" as="targetPoint" />
          </mxGeometry>
        </mxCell>
        <mxCell id="GC0I484NQkUeu95godri-2426" value="" style="group" vertex="1" connectable="0" parent="GC0I484NQkUeu95godri-2421">
          <mxGeometry x="114.00068483202858" y="48.0031340923465" width="24" height="31" as="geometry" />
        </mxCell>
        <mxCell id="GC0I484NQkUeu95godri-2427" value="" style="endArrow=none;html=1;rounded=0;" edge="1" parent="GC0I484NQkUeu95godri-2426">
          <mxGeometry width="50" height="50" relative="1" as="geometry">
            <mxPoint y="18" as="sourcePoint" />
            <mxPoint x="18" as="targetPoint" />
          </mxGeometry>
        </mxCell>
        <mxCell id="GC0I484NQkUeu95godri-2428" value="&lt;font style=&quot;font-size: 13px;&quot;&gt;*&lt;/font&gt;" style="text;html=1;align=center;verticalAlign=middle;resizable=0;points=[];autosize=1;strokeColor=none;fillColor=none;" vertex="1" parent="GC0I484NQkUeu95godri-2426">
          <mxGeometry y="1" width="24" height="30" as="geometry" />
        </mxCell>
        <mxCell id="GC0I484NQkUeu95godri-2429" value="" style="group" vertex="1" connectable="0" parent="GC0I484NQkUeu95godri-2416">
          <mxGeometry x="106" y="130" width="149.51" height="79" as="geometry" />
        </mxCell>
        <mxCell id="GC0I484NQkUeu95godri-2430" value="Megfelelő a méret?" style="rounded=0;whiteSpace=wrap;html=1;" vertex="1" parent="GC0I484NQkUeu95godri-2429">
          <mxGeometry width="131.67" height="66" as="geometry" />
        </mxCell>
        <mxCell id="GC0I484NQkUeu95godri-2431" value="" style="endArrow=none;html=1;rounded=0;exitX=0;exitY=0.25;exitDx=0;exitDy=0;entryX=1;entryY=0.25;entryDx=0;entryDy=0;" edge="1" parent="GC0I484NQkUeu95godri-2429" source="GC0I484NQkUeu95godri-2430" target="GC0I484NQkUeu95godri-2430">
          <mxGeometry width="50" height="50" relative="1" as="geometry">
            <mxPoint x="49.83666666666667" y="62.449999999999996" as="sourcePoint" />
            <mxPoint x="112.13250000000002" as="targetPoint" />
          </mxGeometry>
        </mxCell>
        <mxCell id="GC0I484NQkUeu95godri-2432" value="&lt;font style=&quot;font-size: 11px;&quot;&gt;10.2&lt;/font&gt;" style="text;html=1;align=center;verticalAlign=middle;resizable=0;points=[];autosize=1;strokeColor=none;fillColor=none;" vertex="1" parent="GC0I484NQkUeu95godri-2429">
          <mxGeometry x="-7.000121951219513" y="-5.9956097560975605" width="40" height="28" as="geometry" />
        </mxCell>
        <mxCell id="GC0I484NQkUeu95godri-2433" value="" style="endArrow=none;html=1;rounded=0;" edge="1" parent="GC0I484NQkUeu95godri-2429">
          <mxGeometry width="50" height="50" relative="1" as="geometry">
            <mxPoint x="28" y="16" as="sourcePoint" />
            <mxPoint x="28" as="targetPoint" />
          </mxGeometry>
        </mxCell>
        <mxCell id="GC0I484NQkUeu95godri-2434" value="" style="group" vertex="1" connectable="0" parent="GC0I484NQkUeu95godri-2429">
          <mxGeometry x="114" y="48" width="24" height="31" as="geometry" />
        </mxCell>
        <mxCell id="GC0I484NQkUeu95godri-2435" value="" style="endArrow=none;html=1;rounded=0;" edge="1" parent="GC0I484NQkUeu95godri-2434">
          <mxGeometry width="50" height="50" relative="1" as="geometry">
            <mxPoint y="18" as="sourcePoint" />
            <mxPoint x="18" as="targetPoint" />
          </mxGeometry>
        </mxCell>
        <mxCell id="GC0I484NQkUeu95godri-2436" value="&lt;font style=&quot;font-size: 13px;&quot;&gt;*&lt;/font&gt;" style="text;html=1;align=center;verticalAlign=middle;resizable=0;points=[];autosize=1;strokeColor=none;fillColor=none;" vertex="1" parent="GC0I484NQkUeu95godri-2434">
          <mxGeometry y="1" width="24" height="30" as="geometry" />
        </mxCell>
        <mxCell id="GC0I484NQkUeu95godri-2437" style="edgeStyle=orthogonalEdgeStyle;rounded=0;orthogonalLoop=1;jettySize=auto;html=1;entryX=0.5;entryY=0;entryDx=0;entryDy=0;" edge="1" parent="GC0I484NQkUeu95godri-2416" source="GC0I484NQkUeu95godri-2422" target="GC0I484NQkUeu95godri-2430">
          <mxGeometry relative="1" as="geometry" />
        </mxCell>
        <mxCell id="GC0I484NQkUeu95godri-2444" value="" style="group" vertex="1" connectable="0" parent="1">
          <mxGeometry x="-712" y="3151.9733333333334" width="164" height="82" as="geometry" />
        </mxCell>
        <mxCell id="GC0I484NQkUeu95godri-2445" value="Sikeres bejelentkezés esetén" style="rounded=0;whiteSpace=wrap;html=1;" vertex="1" parent="GC0I484NQkUeu95godri-2444">
          <mxGeometry width="164" height="82" as="geometry" />
        </mxCell>
        <mxCell id="GC0I484NQkUeu95godri-2446" value="" style="endArrow=none;html=1;rounded=0;exitX=0;exitY=0.25;exitDx=0;exitDy=0;entryX=1;entryY=0.25;entryDx=0;entryDy=0;" edge="1" parent="GC0I484NQkUeu95godri-2444" source="GC0I484NQkUeu95godri-2445" target="GC0I484NQkUeu95godri-2445">
          <mxGeometry width="50" height="50" relative="1" as="geometry">
            <mxPoint x="54.66666666666667" y="68.33333333333333" as="sourcePoint" />
            <mxPoint x="123" as="targetPoint" />
          </mxGeometry>
        </mxCell>
        <mxCell id="GC0I484NQkUeu95godri-2447" value="" style="endArrow=none;html=1;rounded=0;exitX=0.25;exitY=0;exitDx=0;exitDy=0;" edge="1" parent="GC0I484NQkUeu95godri-2444" source="GC0I484NQkUeu95godri-2445">
          <mxGeometry width="50" height="50" relative="1" as="geometry">
            <mxPoint x="41" y="-6.833333333333334" as="sourcePoint" />
            <mxPoint x="41" y="20.5" as="targetPoint" />
          </mxGeometry>
        </mxCell>
        <mxCell id="GC0I484NQkUeu95godri-2448" value="&lt;font style=&quot;font-size: 11px;&quot;&gt;1&lt;/font&gt;" style="text;html=1;align=center;verticalAlign=middle;resizable=0;points=[];autosize=1;strokeColor=none;fillColor=none;" vertex="1" parent="GC0I484NQkUeu95godri-2444">
          <mxGeometry x="8" y="-5" width="30" height="30" as="geometry" />
        </mxCell>
        <mxCell id="GC0I484NQkUeu95godri-2449" value="Főoldal" style="text;html=1;align=center;verticalAlign=middle;resizable=0;points=[];autosize=1;strokeColor=none;fillColor=none;" vertex="1" parent="GC0I484NQkUeu95godri-2444">
          <mxGeometry x="66" y="-4.00333333333333" width="58" height="28" as="geometry" />
        </mxCell>
        <mxCell id="GC0I484NQkUeu95godri-2450" value="" style="group" vertex="1" connectable="0" parent="1">
          <mxGeometry x="-766" y="3295.9700000000003" width="164" height="82" as="geometry" />
        </mxCell>
        <mxCell id="GC0I484NQkUeu95godri-2451" value="Album megtekintése esetén" style="rounded=0;whiteSpace=wrap;html=1;" vertex="1" parent="GC0I484NQkUeu95godri-2450">
          <mxGeometry width="164" height="82" as="geometry" />
        </mxCell>
        <mxCell id="GC0I484NQkUeu95godri-2452" value="" style="endArrow=none;html=1;rounded=0;exitX=0;exitY=0.25;exitDx=0;exitDy=0;entryX=1;entryY=0.25;entryDx=0;entryDy=0;" edge="1" parent="GC0I484NQkUeu95godri-2450" source="GC0I484NQkUeu95godri-2451" target="GC0I484NQkUeu95godri-2451">
          <mxGeometry width="50" height="50" relative="1" as="geometry">
            <mxPoint x="54.66666666666667" y="68.33333333333333" as="sourcePoint" />
            <mxPoint x="123" as="targetPoint" />
          </mxGeometry>
        </mxCell>
        <mxCell id="GC0I484NQkUeu95godri-2453" value="" style="endArrow=none;html=1;rounded=0;exitX=0.25;exitY=0;exitDx=0;exitDy=0;" edge="1" parent="GC0I484NQkUeu95godri-2450" source="GC0I484NQkUeu95godri-2451">
          <mxGeometry width="50" height="50" relative="1" as="geometry">
            <mxPoint x="41" y="-6.833333333333334" as="sourcePoint" />
            <mxPoint x="41" y="20.5" as="targetPoint" />
          </mxGeometry>
        </mxCell>
        <mxCell id="GC0I484NQkUeu95godri-2454" value="&lt;font style=&quot;font-size: 11px;&quot;&gt;11&lt;/font&gt;" style="text;html=1;align=center;verticalAlign=middle;resizable=0;points=[];autosize=1;strokeColor=none;fillColor=none;" vertex="1" parent="GC0I484NQkUeu95godri-2450">
          <mxGeometry x="8" y="-4" width="30" height="28" as="geometry" />
        </mxCell>
        <mxCell id="GC0I484NQkUeu95godri-2455" value="Profil oldal" style="text;html=1;align=center;verticalAlign=middle;resizable=0;points=[];autosize=1;strokeColor=none;fillColor=none;" vertex="1" parent="GC0I484NQkUeu95godri-2450">
          <mxGeometry x="58" y="-4" width="76" height="28" as="geometry" />
        </mxCell>
        <mxCell id="GC0I484NQkUeu95godri-2456" style="edgeStyle=orthogonalEdgeStyle;rounded=0;orthogonalLoop=1;jettySize=auto;html=1;entryX=0;entryY=0.5;entryDx=0;entryDy=0;" edge="1" parent="1" source="GC0I484NQkUeu95godri-2445" target="GC0I484NQkUeu95godri-2422">
          <mxGeometry relative="1" as="geometry" />
        </mxCell>
        <mxCell id="GC0I484NQkUeu95godri-2457" style="edgeStyle=orthogonalEdgeStyle;rounded=0;orthogonalLoop=1;jettySize=auto;html=1;entryX=0;entryY=0.614;entryDx=0;entryDy=0;entryPerimeter=0;" edge="1" parent="1" source="GC0I484NQkUeu95godri-2451" target="GC0I484NQkUeu95godri-2422">
          <mxGeometry relative="1" as="geometry">
            <Array as="points">
              <mxPoint x="-472" y="3336.9700000000003" />
              <mxPoint x="-472" y="3230.9700000000003" />
            </Array>
          </mxGeometry>
        </mxCell>
        <mxCell id="GC0I484NQkUeu95godri-2458" value="Képfeltöltés" style="text;html=1;align=center;verticalAlign=middle;resizable=0;points=[];autosize=1;strokeColor=none;fillColor=none;" vertex="1" parent="1">
          <mxGeometry x="-548" y="3169.9700000000003" width="82" height="28" as="geometry" />
        </mxCell>
        <mxCell id="GC0I484NQkUeu95godri-2459" value="Képfeltöltés albumba" style="text;html=1;align=center;verticalAlign=middle;resizable=0;points=[];autosize=1;strokeColor=none;fillColor=none;" vertex="1" parent="1">
          <mxGeometry x="-608" y="3335.9700000000003" width="132" height="28" as="geometry" />
        </mxCell>
        <mxCell id="GC0I484NQkUeu95godri-2460" value="" style="group" vertex="1" connectable="0" parent="1">
          <mxGeometry x="-258" y="3094" width="157" height="30.000000000000057" as="geometry" />
        </mxCell>
        <mxCell id="GC0I484NQkUeu95godri-2461" value="&amp;nbsp;L6" style="html=1;dashed=0;whiteSpace=wrap;shape=mxgraph.dfd.dataStoreID;align=left;spacingLeft=3;points=[[0,0],[0.5,0],[1,0],[0,0.5],[1,0.5],[0,1],[0.5,1],[1,1]];" vertex="1" parent="GC0I484NQkUeu95godri-2460">
          <mxGeometry width="152" height="30" as="geometry" />
        </mxCell>
        <mxCell id="GC0I484NQkUeu95godri-2462" value="" style="endArrow=none;html=1;rounded=0;entryX=0.078;entryY=0.005;entryDx=0;entryDy=0;entryPerimeter=0;exitX=0.077;exitY=1.001;exitDx=0;exitDy=0;exitPerimeter=0;" edge="1" parent="GC0I484NQkUeu95godri-2460">
          <mxGeometry width="50" height="50" relative="1" as="geometry">
            <mxPoint x="4.699999999999932" y="30.000000000000057" as="sourcePoint" />
            <mxPoint x="4.7999999999999545" y="0.12000000000000455" as="targetPoint" />
          </mxGeometry>
        </mxCell>
        <mxCell id="GC0I484NQkUeu95godri-2463" value="Albumok" style="text;html=1;align=center;verticalAlign=middle;resizable=0;points=[];autosize=1;strokeColor=none;fillColor=none;" vertex="1" parent="GC0I484NQkUeu95godri-2460">
          <mxGeometry x="59" y="2" width="66" height="27" as="geometry" />
        </mxCell>
        <mxCell id="GC0I484NQkUeu95godri-2464" value="" style="group" vertex="1" connectable="0" parent="1">
          <mxGeometry x="-432" y="3094" width="157" height="30.000000000000057" as="geometry" />
        </mxCell>
        <mxCell id="GC0I484NQkUeu95godri-2465" value="&amp;nbsp;L4" style="html=1;dashed=0;whiteSpace=wrap;shape=mxgraph.dfd.dataStoreID;align=left;spacingLeft=3;points=[[0,0],[0.5,0],[1,0],[0,0.5],[1,0.5],[0,1],[0.5,1],[1,1]];" vertex="1" parent="GC0I484NQkUeu95godri-2464">
          <mxGeometry width="152" height="30" as="geometry" />
        </mxCell>
        <mxCell id="GC0I484NQkUeu95godri-2466" value="" style="endArrow=none;html=1;rounded=0;entryX=0.078;entryY=0.005;entryDx=0;entryDy=0;entryPerimeter=0;exitX=0.077;exitY=1.001;exitDx=0;exitDy=0;exitPerimeter=0;" edge="1" parent="GC0I484NQkUeu95godri-2464">
          <mxGeometry width="50" height="50" relative="1" as="geometry">
            <mxPoint x="4.699999999999932" y="30.000000000000057" as="sourcePoint" />
            <mxPoint x="4.7999999999999545" y="0.12000000000000455" as="targetPoint" />
          </mxGeometry>
        </mxCell>
        <mxCell id="GC0I484NQkUeu95godri-2467" value="Képek" style="text;html=1;align=center;verticalAlign=middle;resizable=0;points=[];autosize=1;strokeColor=none;fillColor=none;" vertex="1" parent="GC0I484NQkUeu95godri-2464">
          <mxGeometry x="62" width="60" height="30" as="geometry" />
        </mxCell>
        <mxCell id="GC0I484NQkUeu95godri-2468" style="edgeStyle=orthogonalEdgeStyle;rounded=0;orthogonalLoop=1;jettySize=auto;html=1;entryX=0.5;entryY=0;entryDx=0;entryDy=0;" edge="1" parent="1" source="GC0I484NQkUeu95godri-2422" target="GC0I484NQkUeu95godri-2445">
          <mxGeometry relative="1" as="geometry">
            <Array as="points">
              <mxPoint x="-460" y="3211.9700000000003" />
              <mxPoint x="-460" y="3131.9700000000003" />
              <mxPoint x="-630" y="3131.9700000000003" />
            </Array>
          </mxGeometry>
        </mxCell>
        <mxCell id="GC0I484NQkUeu95godri-2469" value="Hibaüzenet" style="text;html=1;align=center;verticalAlign=middle;resizable=0;points=[];autosize=1;strokeColor=none;fillColor=none;" vertex="1" parent="1">
          <mxGeometry x="-608" y="3109.9700000000003" width="80" height="28" as="geometry" />
        </mxCell>
        <mxCell id="GC0I484NQkUeu95godri-2470" style="edgeStyle=orthogonalEdgeStyle;rounded=0;orthogonalLoop=1;jettySize=auto;html=1;" edge="1" parent="1" source="GC0I484NQkUeu95godri-2422" target="GC0I484NQkUeu95godri-2451">
          <mxGeometry relative="1" as="geometry">
            <Array as="points">
              <mxPoint x="-346" y="3269.9700000000003" />
              <mxPoint x="-684" y="3269.9700000000003" />
            </Array>
          </mxGeometry>
        </mxCell>
        <mxCell id="GC0I484NQkUeu95godri-2471" value="Hibaüzenet" style="text;html=1;align=center;verticalAlign=middle;resizable=0;points=[];autosize=1;strokeColor=none;fillColor=none;" vertex="1" parent="1">
          <mxGeometry x="-684" y="3246.9700000000003" width="80" height="28" as="geometry" />
        </mxCell>
        <mxCell id="GC0I484NQkUeu95godri-2472" style="edgeStyle=orthogonalEdgeStyle;rounded=0;orthogonalLoop=1;jettySize=auto;html=1;entryX=0.941;entryY=1.003;entryDx=0;entryDy=0;entryPerimeter=0;" edge="1" parent="1" source="GC0I484NQkUeu95godri-2430" target="GC0I484NQkUeu95godri-2445">
          <mxGeometry relative="1" as="geometry" />
        </mxCell>
        <mxCell id="GC0I484NQkUeu95godri-2473" value="&lt;span style=&quot;color: rgb(0, 0, 0); font-family: Helvetica; font-size: 12px; font-style: normal; font-variant-ligatures: normal; font-variant-caps: normal; font-weight: 400; letter-spacing: normal; orphans: 2; text-align: center; text-indent: 0px; text-transform: none; widows: 2; word-spacing: 0px; -webkit-text-stroke-width: 0px; white-space: nowrap; background-color: rgb(251, 251, 251); text-decoration-thickness: initial; text-decoration-style: initial; text-decoration-color: initial; display: inline !important; float: none;&quot;&gt;Hibaüzenet&lt;/span&gt;" style="text;whiteSpace=wrap;html=1;" vertex="1" parent="1">
          <mxGeometry x="-554" y="3301.9700000000003" width="82" height="30" as="geometry" />
        </mxCell>
        <mxCell id="GC0I484NQkUeu95godri-2474" style="edgeStyle=orthogonalEdgeStyle;rounded=0;orthogonalLoop=1;jettySize=auto;html=1;entryX=0.5;entryY=1;entryDx=0;entryDy=0;" edge="1" parent="1" source="GC0I484NQkUeu95godri-2430" target="GC0I484NQkUeu95godri-2451">
          <mxGeometry relative="1" as="geometry">
            <Array as="points">
              <mxPoint x="-454" y="3339.9700000000003" />
              <mxPoint x="-454" y="3397.9700000000003" />
              <mxPoint x="-684" y="3397.9700000000003" />
            </Array>
          </mxGeometry>
        </mxCell>
        <mxCell id="GC0I484NQkUeu95godri-2475" value="&lt;span style=&quot;color: rgb(0, 0, 0); font-family: Helvetica; font-size: 12px; font-style: normal; font-variant-ligatures: normal; font-variant-caps: normal; font-weight: 400; letter-spacing: normal; orphans: 2; text-align: center; text-indent: 0px; text-transform: none; widows: 2; word-spacing: 0px; -webkit-text-stroke-width: 0px; white-space: nowrap; background-color: rgb(251, 251, 251); text-decoration-thickness: initial; text-decoration-style: initial; text-decoration-color: initial; display: inline !important; float: none;&quot;&gt;Hibaüzenet&lt;/span&gt;" style="text;whiteSpace=wrap;html=1;" vertex="1" parent="1">
          <mxGeometry x="-686" y="3395.9700000000003" width="82" height="30" as="geometry" />
        </mxCell>
        <mxCell id="GC0I484NQkUeu95godri-2480" value="" style="group" vertex="1" connectable="0" parent="1">
          <mxGeometry x="-296" y="3558" width="373.51" height="312" as="geometry" />
        </mxCell>
        <mxCell id="GC0I484NQkUeu95godri-2481" value="" style="rounded=0;whiteSpace=wrap;html=1;" vertex="1" parent="GC0I484NQkUeu95godri-2480">
          <mxGeometry width="369.99999999999994" height="312" as="geometry" />
        </mxCell>
        <mxCell id="GC0I484NQkUeu95godri-2482" value="" style="endArrow=none;html=1;rounded=0;exitX=0;exitY=0.25;exitDx=0;exitDy=0;entryX=1;entryY=0.25;entryDx=0;entryDy=0;" edge="1" parent="GC0I484NQkUeu95godri-2480">
          <mxGeometry width="50" height="50" relative="1" as="geometry">
            <mxPoint y="22" as="sourcePoint" />
            <mxPoint x="370" y="22" as="targetPoint" />
          </mxGeometry>
        </mxCell>
        <mxCell id="GC0I484NQkUeu95godri-2483" value="" style="endArrow=none;html=1;rounded=0;" edge="1" parent="GC0I484NQkUeu95godri-2480">
          <mxGeometry width="50" height="50" relative="1" as="geometry">
            <mxPoint x="70" y="22" as="sourcePoint" />
            <mxPoint x="70" as="targetPoint" />
          </mxGeometry>
        </mxCell>
        <mxCell id="GC0I484NQkUeu95godri-2484" value="11" style="text;html=1;align=center;verticalAlign=middle;whiteSpace=wrap;rounded=0;" vertex="1" parent="GC0I484NQkUeu95godri-2480">
          <mxGeometry x="3" y="-3" width="60" height="30" as="geometry" />
        </mxCell>
        <mxCell id="GC0I484NQkUeu95godri-2485" value="" style="group" vertex="1" connectable="0" parent="GC0I484NQkUeu95godri-2480">
          <mxGeometry x="22" y="38" width="149.51" height="74.94" as="geometry" />
        </mxCell>
        <mxCell id="GC0I484NQkUeu95godri-2486" value="Érvényes album név?" style="rounded=0;whiteSpace=wrap;html=1;" vertex="1" parent="GC0I484NQkUeu95godri-2485">
          <mxGeometry width="131.67" height="66" as="geometry" />
        </mxCell>
        <mxCell id="GC0I484NQkUeu95godri-2487" value="" style="endArrow=none;html=1;rounded=0;exitX=0;exitY=0.25;exitDx=0;exitDy=0;entryX=1;entryY=0.25;entryDx=0;entryDy=0;" edge="1" parent="GC0I484NQkUeu95godri-2485" source="GC0I484NQkUeu95godri-2486" target="GC0I484NQkUeu95godri-2486">
          <mxGeometry width="50" height="50" relative="1" as="geometry">
            <mxPoint x="49.83666666666667" y="62.449999999999996" as="sourcePoint" />
            <mxPoint x="112.13250000000002" as="targetPoint" />
          </mxGeometry>
        </mxCell>
        <mxCell id="GC0I484NQkUeu95godri-2488" value="&lt;font style=&quot;font-size: 11px;&quot;&gt;11.1&lt;/font&gt;" style="text;html=1;align=center;verticalAlign=middle;resizable=0;points=[];autosize=1;strokeColor=none;fillColor=none;" vertex="1" parent="GC0I484NQkUeu95godri-2485">
          <mxGeometry x="-7.000121951219513" y="-5.9956097560975605" width="40" height="28" as="geometry" />
        </mxCell>
        <mxCell id="GC0I484NQkUeu95godri-2489" value="" style="endArrow=none;html=1;rounded=0;" edge="1" parent="GC0I484NQkUeu95godri-2485">
          <mxGeometry width="50" height="50" relative="1" as="geometry">
            <mxPoint x="28" y="16" as="sourcePoint" />
            <mxPoint x="28" as="targetPoint" />
          </mxGeometry>
        </mxCell>
        <mxCell id="GC0I484NQkUeu95godri-2490" value="" style="group" vertex="1" connectable="0" parent="GC0I484NQkUeu95godri-2480">
          <mxGeometry x="22" y="202" width="149.51" height="74.94" as="geometry" />
        </mxCell>
        <mxCell id="GC0I484NQkUeu95godri-2491" value="Kép hozzáadása ablak" style="rounded=0;whiteSpace=wrap;html=1;" vertex="1" parent="GC0I484NQkUeu95godri-2490">
          <mxGeometry width="131.67" height="66" as="geometry" />
        </mxCell>
        <mxCell id="GC0I484NQkUeu95godri-2492" value="" style="endArrow=none;html=1;rounded=0;exitX=0;exitY=0.25;exitDx=0;exitDy=0;entryX=1;entryY=0.25;entryDx=0;entryDy=0;" edge="1" parent="GC0I484NQkUeu95godri-2490" source="GC0I484NQkUeu95godri-2491" target="GC0I484NQkUeu95godri-2491">
          <mxGeometry width="50" height="50" relative="1" as="geometry">
            <mxPoint x="49.83666666666667" y="62.449999999999996" as="sourcePoint" />
            <mxPoint x="112.13250000000002" as="targetPoint" />
          </mxGeometry>
        </mxCell>
        <mxCell id="GC0I484NQkUeu95godri-2493" value="&lt;font style=&quot;font-size: 11px;&quot;&gt;11.3&lt;/font&gt;" style="text;html=1;align=center;verticalAlign=middle;resizable=0;points=[];autosize=1;strokeColor=none;fillColor=none;" vertex="1" parent="GC0I484NQkUeu95godri-2490">
          <mxGeometry x="-7.000121951219513" y="-5.9956097560975605" width="40" height="28" as="geometry" />
        </mxCell>
        <mxCell id="GC0I484NQkUeu95godri-2494" value="" style="endArrow=none;html=1;rounded=0;" edge="1" parent="GC0I484NQkUeu95godri-2490">
          <mxGeometry width="50" height="50" relative="1" as="geometry">
            <mxPoint x="28" y="16" as="sourcePoint" />
            <mxPoint x="28" as="targetPoint" />
          </mxGeometry>
        </mxCell>
        <mxCell id="GC0I484NQkUeu95godri-2495" value="" style="group" vertex="1" connectable="0" parent="GC0I484NQkUeu95godri-2480">
          <mxGeometry x="22" y="116" width="149.51" height="74.94" as="geometry" />
        </mxCell>
        <mxCell id="GC0I484NQkUeu95godri-2496" value="Albumot megnyitása" style="rounded=0;whiteSpace=wrap;html=1;" vertex="1" parent="GC0I484NQkUeu95godri-2495">
          <mxGeometry width="131.67" height="66" as="geometry" />
        </mxCell>
        <mxCell id="GC0I484NQkUeu95godri-2497" value="" style="endArrow=none;html=1;rounded=0;exitX=0;exitY=0.25;exitDx=0;exitDy=0;entryX=1;entryY=0.25;entryDx=0;entryDy=0;" edge="1" parent="GC0I484NQkUeu95godri-2495" source="GC0I484NQkUeu95godri-2496" target="GC0I484NQkUeu95godri-2496">
          <mxGeometry width="50" height="50" relative="1" as="geometry">
            <mxPoint x="49.83666666666667" y="62.449999999999996" as="sourcePoint" />
            <mxPoint x="112.13250000000002" as="targetPoint" />
          </mxGeometry>
        </mxCell>
        <mxCell id="GC0I484NQkUeu95godri-2498" value="&lt;font style=&quot;font-size: 11px;&quot;&gt;11.2&lt;/font&gt;" style="text;html=1;align=center;verticalAlign=middle;resizable=0;points=[];autosize=1;strokeColor=none;fillColor=none;" vertex="1" parent="GC0I484NQkUeu95godri-2495">
          <mxGeometry x="-7.000121951219513" y="-5.9956097560975605" width="40" height="28" as="geometry" />
        </mxCell>
        <mxCell id="GC0I484NQkUeu95godri-2499" value="" style="endArrow=none;html=1;rounded=0;" edge="1" parent="GC0I484NQkUeu95godri-2495">
          <mxGeometry width="50" height="50" relative="1" as="geometry">
            <mxPoint x="28" y="16" as="sourcePoint" />
            <mxPoint x="28" as="targetPoint" />
          </mxGeometry>
        </mxCell>
        <mxCell id="GC0I484NQkUeu95godri-2509" value="" style="group" vertex="1" connectable="0" parent="1">
          <mxGeometry x="-650" y="3662.003333333333" width="164" height="82" as="geometry" />
        </mxCell>
        <mxCell id="GC0I484NQkUeu95godri-2510" value="Sikeres bejelentkezés esetén" style="rounded=0;whiteSpace=wrap;html=1;" vertex="1" parent="GC0I484NQkUeu95godri-2509">
          <mxGeometry width="164" height="82" as="geometry" />
        </mxCell>
        <mxCell id="GC0I484NQkUeu95godri-2511" value="" style="endArrow=none;html=1;rounded=0;exitX=0;exitY=0.25;exitDx=0;exitDy=0;entryX=1;entryY=0.25;entryDx=0;entryDy=0;" edge="1" parent="GC0I484NQkUeu95godri-2509" source="GC0I484NQkUeu95godri-2510" target="GC0I484NQkUeu95godri-2510">
          <mxGeometry width="50" height="50" relative="1" as="geometry">
            <mxPoint x="54.66666666666667" y="68.33333333333333" as="sourcePoint" />
            <mxPoint x="123" as="targetPoint" />
          </mxGeometry>
        </mxCell>
        <mxCell id="GC0I484NQkUeu95godri-2512" value="" style="endArrow=none;html=1;rounded=0;exitX=0.25;exitY=0;exitDx=0;exitDy=0;" edge="1" parent="GC0I484NQkUeu95godri-2509" source="GC0I484NQkUeu95godri-2510">
          <mxGeometry width="50" height="50" relative="1" as="geometry">
            <mxPoint x="41" y="-6.833333333333334" as="sourcePoint" />
            <mxPoint x="41" y="20.5" as="targetPoint" />
          </mxGeometry>
        </mxCell>
        <mxCell id="GC0I484NQkUeu95godri-2513" value="&lt;font style=&quot;font-size: 11px;&quot;&gt;1&lt;/font&gt;" style="text;html=1;align=center;verticalAlign=middle;resizable=0;points=[];autosize=1;strokeColor=none;fillColor=none;" vertex="1" parent="GC0I484NQkUeu95godri-2509">
          <mxGeometry x="8" y="-5" width="30" height="30" as="geometry" />
        </mxCell>
        <mxCell id="GC0I484NQkUeu95godri-2514" value="Főoldal" style="text;html=1;align=center;verticalAlign=middle;resizable=0;points=[];autosize=1;strokeColor=none;fillColor=none;" vertex="1" parent="GC0I484NQkUeu95godri-2509">
          <mxGeometry x="66" y="-4.00333333333333" width="58" height="28" as="geometry" />
        </mxCell>
        <mxCell id="GC0I484NQkUeu95godri-2515" value="" style="group" vertex="1" connectable="0" parent="1">
          <mxGeometry x="-174" y="3906" width="164" height="82" as="geometry" />
        </mxCell>
        <mxCell id="GC0I484NQkUeu95godri-2516" value="Képkezelés" style="rounded=0;whiteSpace=wrap;html=1;" vertex="1" parent="GC0I484NQkUeu95godri-2515">
          <mxGeometry width="164" height="82" as="geometry" />
        </mxCell>
        <mxCell id="GC0I484NQkUeu95godri-2517" value="" style="endArrow=none;html=1;rounded=0;exitX=0;exitY=0.25;exitDx=0;exitDy=0;entryX=1;entryY=0.25;entryDx=0;entryDy=0;elbow=vertical;" edge="1" parent="GC0I484NQkUeu95godri-2515" source="GC0I484NQkUeu95godri-2516" target="GC0I484NQkUeu95godri-2516">
          <mxGeometry width="50" height="50" relative="1" as="geometry">
            <mxPoint x="54.66666666666667" y="68.33333333333333" as="sourcePoint" />
            <mxPoint x="123" as="targetPoint" />
          </mxGeometry>
        </mxCell>
        <mxCell id="GC0I484NQkUeu95godri-2518" value="" style="endArrow=none;html=1;rounded=0;exitX=0.25;exitY=0;exitDx=0;exitDy=0;" edge="1" parent="GC0I484NQkUeu95godri-2515" source="GC0I484NQkUeu95godri-2516">
          <mxGeometry width="50" height="50" relative="1" as="geometry">
            <mxPoint x="41" y="-6.833333333333334" as="sourcePoint" />
            <mxPoint x="41" y="20.5" as="targetPoint" />
          </mxGeometry>
        </mxCell>
        <mxCell id="GC0I484NQkUeu95godri-2519" value="&lt;font style=&quot;font-size: 11px;&quot;&gt;10&lt;/font&gt;" style="text;html=1;align=center;verticalAlign=middle;resizable=0;points=[];autosize=1;strokeColor=none;fillColor=none;" vertex="1" parent="GC0I484NQkUeu95godri-2515">
          <mxGeometry x="7" y="-4" width="32" height="28" as="geometry" />
        </mxCell>
        <mxCell id="GC0I484NQkUeu95godri-2520" value="Profil oldal, album" style="text;html=1;align=center;verticalAlign=middle;resizable=0;points=[];autosize=1;strokeColor=none;fillColor=none;" vertex="1" parent="GC0I484NQkUeu95godri-2515">
          <mxGeometry x="42" y="-4" width="114" height="28" as="geometry" />
        </mxCell>
        <mxCell id="GC0I484NQkUeu95godri-2521" style="edgeStyle=orthogonalEdgeStyle;rounded=0;orthogonalLoop=1;jettySize=auto;html=1;entryX=0;entryY=0.5;entryDx=0;entryDy=0;" edge="1" parent="1" source="GC0I484NQkUeu95godri-2510" target="GC0I484NQkUeu95godri-2486">
          <mxGeometry relative="1" as="geometry">
            <Array as="points">
              <mxPoint x="-338" y="3674" />
              <mxPoint x="-338" y="3629" />
            </Array>
          </mxGeometry>
        </mxCell>
        <mxCell id="GC0I484NQkUeu95godri-2522" style="edgeStyle=orthogonalEdgeStyle;rounded=0;orthogonalLoop=1;jettySize=auto;html=1;entryX=0;entryY=0.5;entryDx=0;entryDy=0;" edge="1" parent="1" source="GC0I484NQkUeu95godri-2510" target="GC0I484NQkUeu95godri-2491">
          <mxGeometry relative="1" as="geometry">
            <Array as="points">
              <mxPoint x="-354" y="3706" />
              <mxPoint x="-354" y="3793" />
            </Array>
          </mxGeometry>
        </mxCell>
        <mxCell id="GC0I484NQkUeu95godri-2523" value="Albumot készít" style="text;html=1;align=center;verticalAlign=middle;resizable=0;points=[];autosize=1;strokeColor=none;fillColor=none;" vertex="1" parent="1">
          <mxGeometry x="-472" y="3650" width="98" height="28" as="geometry" />
        </mxCell>
        <mxCell id="GC0I484NQkUeu95godri-2524" style="edgeStyle=orthogonalEdgeStyle;rounded=0;orthogonalLoop=1;jettySize=auto;html=1;entryX=0.5;entryY=0;entryDx=0;entryDy=0;" edge="1" parent="1" source="GC0I484NQkUeu95godri-2486" target="GC0I484NQkUeu95godri-2510">
          <mxGeometry relative="1" as="geometry">
            <Array as="points">
              <mxPoint x="-208" y="3588" />
              <mxPoint x="-568" y="3588" />
            </Array>
          </mxGeometry>
        </mxCell>
        <mxCell id="GC0I484NQkUeu95godri-2525" value="Hibaüzenet" style="text;html=1;align=center;verticalAlign=middle;resizable=0;points=[];autosize=1;strokeColor=none;fillColor=none;" vertex="1" parent="1">
          <mxGeometry x="-572" y="3582" width="80" height="28" as="geometry" />
        </mxCell>
        <mxCell id="GC0I484NQkUeu95godri-2526" value="Albumot tekint meg" style="text;html=1;align=center;verticalAlign=middle;resizable=0;points=[];autosize=1;strokeColor=none;fillColor=none;" vertex="1" parent="1">
          <mxGeometry x="-530" y="3752" width="122" height="28" as="geometry" />
        </mxCell>
        <mxCell id="GC0I484NQkUeu95godri-2527" style="edgeStyle=orthogonalEdgeStyle;rounded=0;orthogonalLoop=1;jettySize=auto;html=1;" edge="1" parent="1" source="GC0I484NQkUeu95godri-2491" target="GC0I484NQkUeu95godri-2516">
          <mxGeometry relative="1" as="geometry">
            <Array as="points">
              <mxPoint x="-208" y="3854" />
              <mxPoint x="-124" y="3854" />
            </Array>
          </mxGeometry>
        </mxCell>
        <mxCell id="GC0I484NQkUeu95godri-2528" style="edgeStyle=orthogonalEdgeStyle;rounded=0;orthogonalLoop=1;jettySize=auto;html=1;entryX=0;entryY=0.5;entryDx=0;entryDy=0;" edge="1" parent="1" source="GC0I484NQkUeu95godri-2510" target="GC0I484NQkUeu95godri-2496">
          <mxGeometry relative="1" as="geometry">
            <Array as="points">
              <mxPoint x="-526" y="3756" />
              <mxPoint x="-324" y="3756" />
              <mxPoint x="-324" y="3707" />
            </Array>
          </mxGeometry>
        </mxCell>
        <mxCell id="GC0I484NQkUeu95godri-2529" value="Kép hozzáadása albumhoz" style="text;html=1;align=center;verticalAlign=middle;resizable=0;points=[];autosize=1;strokeColor=none;fillColor=none;" vertex="1" parent="1">
          <mxGeometry x="-486" y="3684" width="164" height="28" as="geometry" />
        </mxCell>
        <mxCell id="GC0I484NQkUeu95godri-2530" value="" style="group" vertex="1" connectable="0" parent="1">
          <mxGeometry x="-160" y="3722" width="24" height="31" as="geometry" />
        </mxCell>
        <mxCell id="GC0I484NQkUeu95godri-2531" value="" style="endArrow=none;html=1;rounded=0;" edge="1" parent="GC0I484NQkUeu95godri-2530">
          <mxGeometry width="50" height="50" relative="1" as="geometry">
            <mxPoint y="18" as="sourcePoint" />
            <mxPoint x="18" as="targetPoint" />
          </mxGeometry>
        </mxCell>
        <mxCell id="GC0I484NQkUeu95godri-2532" value="&lt;font style=&quot;font-size: 13px;&quot;&gt;*&lt;/font&gt;" style="text;html=1;align=center;verticalAlign=middle;resizable=0;points=[];autosize=1;strokeColor=none;fillColor=none;" vertex="1" parent="GC0I484NQkUeu95godri-2530">
          <mxGeometry y="1" width="24" height="30" as="geometry" />
        </mxCell>
        <mxCell id="GC0I484NQkUeu95godri-2533" value="" style="group" vertex="1" connectable="0" parent="1">
          <mxGeometry x="-160" y="3644" width="24" height="31" as="geometry" />
        </mxCell>
        <mxCell id="GC0I484NQkUeu95godri-2534" value="" style="endArrow=none;html=1;rounded=0;" edge="1" parent="GC0I484NQkUeu95godri-2533">
          <mxGeometry width="50" height="50" relative="1" as="geometry">
            <mxPoint y="18" as="sourcePoint" />
            <mxPoint x="18" as="targetPoint" />
          </mxGeometry>
        </mxCell>
        <mxCell id="GC0I484NQkUeu95godri-2535" value="&lt;font style=&quot;font-size: 13px;&quot;&gt;*&lt;/font&gt;" style="text;html=1;align=center;verticalAlign=middle;resizable=0;points=[];autosize=1;strokeColor=none;fillColor=none;" vertex="1" parent="GC0I484NQkUeu95godri-2533">
          <mxGeometry y="1" width="24" height="30" as="geometry" />
        </mxCell>
        <mxCell id="GC0I484NQkUeu95godri-2536" value="" style="group" vertex="1" connectable="0" parent="1">
          <mxGeometry x="-160" y="3808" width="24" height="31" as="geometry" />
        </mxCell>
        <mxCell id="GC0I484NQkUeu95godri-2537" value="" style="endArrow=none;html=1;rounded=0;" edge="1" parent="GC0I484NQkUeu95godri-2536">
          <mxGeometry width="50" height="50" relative="1" as="geometry">
            <mxPoint y="18" as="sourcePoint" />
            <mxPoint x="18" as="targetPoint" />
          </mxGeometry>
        </mxCell>
        <mxCell id="GC0I484NQkUeu95godri-2538" value="&lt;font style=&quot;font-size: 13px;&quot;&gt;*&lt;/font&gt;" style="text;html=1;align=center;verticalAlign=middle;resizable=0;points=[];autosize=1;strokeColor=none;fillColor=none;" vertex="1" parent="GC0I484NQkUeu95godri-2536">
          <mxGeometry y="1" width="24" height="30" as="geometry" />
        </mxCell>
        <mxCell id="GC0I484NQkUeu95godri-2561" value="" style="group" vertex="1" connectable="0" parent="1">
          <mxGeometry x="-88" y="3489.89" width="157" height="30.000000000000057" as="geometry" />
        </mxCell>
        <mxCell id="GC0I484NQkUeu95godri-2562" value="&amp;nbsp;L6" style="html=1;dashed=0;whiteSpace=wrap;shape=mxgraph.dfd.dataStoreID;align=left;spacingLeft=3;points=[[0,0],[0.5,0],[1,0],[0,0.5],[1,0.5],[0,1],[0.5,1],[1,1]];" vertex="1" parent="GC0I484NQkUeu95godri-2561">
          <mxGeometry width="152" height="30" as="geometry" />
        </mxCell>
        <mxCell id="GC0I484NQkUeu95godri-2563" value="" style="endArrow=none;html=1;rounded=0;entryX=0.078;entryY=0.005;entryDx=0;entryDy=0;entryPerimeter=0;exitX=0.077;exitY=1.001;exitDx=0;exitDy=0;exitPerimeter=0;" edge="1" parent="GC0I484NQkUeu95godri-2561">
          <mxGeometry width="50" height="50" relative="1" as="geometry">
            <mxPoint x="4.699999999999932" y="30.000000000000057" as="sourcePoint" />
            <mxPoint x="4.7999999999999545" y="0.12000000000000455" as="targetPoint" />
          </mxGeometry>
        </mxCell>
        <mxCell id="GC0I484NQkUeu95godri-2564" value="Albumok" style="text;html=1;align=center;verticalAlign=middle;resizable=0;points=[];autosize=1;strokeColor=none;fillColor=none;" vertex="1" parent="GC0I484NQkUeu95godri-2561">
          <mxGeometry x="59" y="2" width="66" height="27" as="geometry" />
        </mxCell>
        <mxCell id="GC0I484NQkUeu95godri-2565" value="" style="group" vertex="1" connectable="0" parent="1">
          <mxGeometry x="-262" y="3489.89" width="157" height="30.000000000000057" as="geometry" />
        </mxCell>
        <mxCell id="GC0I484NQkUeu95godri-2566" value="&amp;nbsp;L4" style="html=1;dashed=0;whiteSpace=wrap;shape=mxgraph.dfd.dataStoreID;align=left;spacingLeft=3;points=[[0,0],[0.5,0],[1,0],[0,0.5],[1,0.5],[0,1],[0.5,1],[1,1]];" vertex="1" parent="GC0I484NQkUeu95godri-2565">
          <mxGeometry width="152" height="30" as="geometry" />
        </mxCell>
        <mxCell id="GC0I484NQkUeu95godri-2567" value="" style="endArrow=none;html=1;rounded=0;entryX=0.078;entryY=0.005;entryDx=0;entryDy=0;entryPerimeter=0;exitX=0.077;exitY=1.001;exitDx=0;exitDy=0;exitPerimeter=0;" edge="1" parent="GC0I484NQkUeu95godri-2565">
          <mxGeometry width="50" height="50" relative="1" as="geometry">
            <mxPoint x="4.699999999999932" y="30.000000000000057" as="sourcePoint" />
            <mxPoint x="4.7999999999999545" y="0.12000000000000455" as="targetPoint" />
          </mxGeometry>
        </mxCell>
        <mxCell id="GC0I484NQkUeu95godri-2568" value="Képek" style="text;html=1;align=center;verticalAlign=middle;resizable=0;points=[];autosize=1;strokeColor=none;fillColor=none;" vertex="1" parent="GC0I484NQkUeu95godri-2565">
          <mxGeometry x="62" width="60" height="30" as="geometry" />
        </mxCell>
        <mxCell id="GC0I484NQkUeu95godri-2569" style="edgeStyle=orthogonalEdgeStyle;rounded=0;orthogonalLoop=1;jettySize=auto;html=1;entryX=1;entryY=0.5;entryDx=0;entryDy=0;exitX=0.59;exitY=0.996;exitDx=0;exitDy=0;exitPerimeter=0;" edge="1" parent="1" source="GC0I484NQkUeu95godri-2562">
          <mxGeometry relative="1" as="geometry">
            <mxPoint x="-142.32999999999993" y="3706.89" as="targetPoint" />
            <Array as="points">
              <mxPoint x="14" y="3519.89" />
              <mxPoint x="14" y="3706.89" />
            </Array>
          </mxGeometry>
        </mxCell>
        <mxCell id="GC0I484NQkUeu95godri-2570" style="edgeStyle=orthogonalEdgeStyle;rounded=0;orthogonalLoop=1;jettySize=auto;html=1;entryX=0.5;entryY=-0.017;entryDx=0;entryDy=0;entryPerimeter=0;" edge="1" parent="1" source="GC0I484NQkUeu95godri-2568" target="GC0I484NQkUeu95godri-2564">
          <mxGeometry relative="1" as="geometry">
            <Array as="points">
              <mxPoint x="-170" y="3471.89" />
              <mxPoint x="4" y="3471.89" />
            </Array>
          </mxGeometry>
        </mxCell>
        <mxCell id="GC0I484NQkUeu95godri-2572" value="" style="group" vertex="1" connectable="0" parent="1">
          <mxGeometry x="590" y="3808" width="370" height="312" as="geometry" />
        </mxCell>
        <mxCell id="GC0I484NQkUeu95godri-2573" value="" style="rounded=0;whiteSpace=wrap;html=1;" vertex="1" parent="GC0I484NQkUeu95godri-2572">
          <mxGeometry width="369.99999999999994" height="312" as="geometry" />
        </mxCell>
        <mxCell id="GC0I484NQkUeu95godri-2574" value="" style="endArrow=none;html=1;rounded=0;exitX=0;exitY=0.25;exitDx=0;exitDy=0;entryX=1;entryY=0.25;entryDx=0;entryDy=0;" edge="1" parent="GC0I484NQkUeu95godri-2572">
          <mxGeometry width="50" height="50" relative="1" as="geometry">
            <mxPoint y="22" as="sourcePoint" />
            <mxPoint x="370" y="22" as="targetPoint" />
          </mxGeometry>
        </mxCell>
        <mxCell id="GC0I484NQkUeu95godri-2575" value="" style="endArrow=none;html=1;rounded=0;" edge="1" parent="GC0I484NQkUeu95godri-2572">
          <mxGeometry width="50" height="50" relative="1" as="geometry">
            <mxPoint x="70" y="22" as="sourcePoint" />
            <mxPoint x="70" as="targetPoint" />
          </mxGeometry>
        </mxCell>
        <mxCell id="GC0I484NQkUeu95godri-2576" value="12" style="text;html=1;align=center;verticalAlign=middle;whiteSpace=wrap;rounded=0;" vertex="1" parent="GC0I484NQkUeu95godri-2572">
          <mxGeometry x="3" y="-3" width="60" height="30" as="geometry" />
        </mxCell>
        <mxCell id="GC0I484NQkUeu95godri-2577" value="" style="group" vertex="1" connectable="0" parent="GC0I484NQkUeu95godri-2572">
          <mxGeometry x="36" y="46" width="149.51" height="74.94" as="geometry" />
        </mxCell>
        <mxCell id="GC0I484NQkUeu95godri-2578" value="Érvényes csoport név?" style="rounded=0;whiteSpace=wrap;html=1;" vertex="1" parent="GC0I484NQkUeu95godri-2577">
          <mxGeometry width="131.67" height="66" as="geometry" />
        </mxCell>
        <mxCell id="GC0I484NQkUeu95godri-2579" value="" style="endArrow=none;html=1;rounded=0;exitX=0;exitY=0.25;exitDx=0;exitDy=0;entryX=1;entryY=0.25;entryDx=0;entryDy=0;" edge="1" parent="GC0I484NQkUeu95godri-2577" source="GC0I484NQkUeu95godri-2578" target="GC0I484NQkUeu95godri-2578">
          <mxGeometry width="50" height="50" relative="1" as="geometry">
            <mxPoint x="49.83666666666667" y="62.449999999999996" as="sourcePoint" />
            <mxPoint x="112.13250000000002" as="targetPoint" />
          </mxGeometry>
        </mxCell>
        <mxCell id="GC0I484NQkUeu95godri-2580" value="&lt;font style=&quot;font-size: 11px;&quot;&gt;12.1&lt;/font&gt;" style="text;html=1;align=center;verticalAlign=middle;resizable=0;points=[];autosize=1;strokeColor=none;fillColor=none;" vertex="1" parent="GC0I484NQkUeu95godri-2577">
          <mxGeometry x="-7.000121951219513" y="-5.9956097560975605" width="40" height="28" as="geometry" />
        </mxCell>
        <mxCell id="GC0I484NQkUeu95godri-2581" value="" style="endArrow=none;html=1;rounded=0;" edge="1" parent="GC0I484NQkUeu95godri-2577">
          <mxGeometry width="50" height="50" relative="1" as="geometry">
            <mxPoint x="28" y="16" as="sourcePoint" />
            <mxPoint x="28" as="targetPoint" />
          </mxGeometry>
        </mxCell>
        <mxCell id="GC0I484NQkUeu95godri-2582" value="" style="group" vertex="1" connectable="0" parent="GC0I484NQkUeu95godri-2572">
          <mxGeometry x="36" y="128" width="149.51" height="79" as="geometry" />
        </mxCell>
        <mxCell id="GC0I484NQkUeu95godri-2583" value="Csoport megnyitása" style="rounded=0;whiteSpace=wrap;html=1;" vertex="1" parent="GC0I484NQkUeu95godri-2582">
          <mxGeometry width="131.67" height="66" as="geometry" />
        </mxCell>
        <mxCell id="GC0I484NQkUeu95godri-2584" value="" style="endArrow=none;html=1;rounded=0;exitX=0;exitY=0.25;exitDx=0;exitDy=0;entryX=1;entryY=0.25;entryDx=0;entryDy=0;" edge="1" parent="GC0I484NQkUeu95godri-2582" source="GC0I484NQkUeu95godri-2583" target="GC0I484NQkUeu95godri-2583">
          <mxGeometry width="50" height="50" relative="1" as="geometry">
            <mxPoint x="49.83666666666667" y="62.449999999999996" as="sourcePoint" />
            <mxPoint x="112.13250000000002" as="targetPoint" />
          </mxGeometry>
        </mxCell>
        <mxCell id="GC0I484NQkUeu95godri-2585" value="&lt;font style=&quot;font-size: 11px;&quot;&gt;12.2&lt;/font&gt;" style="text;html=1;align=center;verticalAlign=middle;resizable=0;points=[];autosize=1;strokeColor=none;fillColor=none;" vertex="1" parent="GC0I484NQkUeu95godri-2582">
          <mxGeometry x="-7.000121951219513" y="-5.9956097560975605" width="40" height="28" as="geometry" />
        </mxCell>
        <mxCell id="GC0I484NQkUeu95godri-2586" value="" style="endArrow=none;html=1;rounded=0;" edge="1" parent="GC0I484NQkUeu95godri-2582">
          <mxGeometry width="50" height="50" relative="1" as="geometry">
            <mxPoint x="28" y="16" as="sourcePoint" />
            <mxPoint x="28" as="targetPoint" />
          </mxGeometry>
        </mxCell>
        <mxCell id="GC0I484NQkUeu95godri-2587" value="" style="group" vertex="1" connectable="0" parent="GC0I484NQkUeu95godri-2582">
          <mxGeometry x="114" y="48" width="24" height="31" as="geometry" />
        </mxCell>
        <mxCell id="GC0I484NQkUeu95godri-2588" value="" style="endArrow=none;html=1;rounded=0;" edge="1" parent="GC0I484NQkUeu95godri-2587">
          <mxGeometry width="50" height="50" relative="1" as="geometry">
            <mxPoint y="18" as="sourcePoint" />
            <mxPoint x="18" as="targetPoint" />
          </mxGeometry>
        </mxCell>
        <mxCell id="GC0I484NQkUeu95godri-2589" value="&lt;font style=&quot;font-size: 13px;&quot;&gt;*&lt;/font&gt;" style="text;html=1;align=center;verticalAlign=middle;resizable=0;points=[];autosize=1;strokeColor=none;fillColor=none;" vertex="1" parent="GC0I484NQkUeu95godri-2587">
          <mxGeometry y="1" width="24" height="30" as="geometry" />
        </mxCell>
        <mxCell id="GC0I484NQkUeu95godri-2590" value="" style="group" vertex="1" connectable="0" parent="GC0I484NQkUeu95godri-2572">
          <mxGeometry x="36" y="212" width="149.51" height="74.94" as="geometry" />
        </mxCell>
        <mxCell id="GC0I484NQkUeu95godri-2591" value="Csoport kezelése&lt;div&gt;(törlés, beállítások)&lt;/div&gt;" style="rounded=0;whiteSpace=wrap;html=1;" vertex="1" parent="GC0I484NQkUeu95godri-2590">
          <mxGeometry width="131.67" height="66" as="geometry" />
        </mxCell>
        <mxCell id="GC0I484NQkUeu95godri-2592" value="" style="endArrow=none;html=1;rounded=0;exitX=0;exitY=0.25;exitDx=0;exitDy=0;entryX=1;entryY=0.25;entryDx=0;entryDy=0;" edge="1" parent="GC0I484NQkUeu95godri-2590" source="GC0I484NQkUeu95godri-2591" target="GC0I484NQkUeu95godri-2591">
          <mxGeometry width="50" height="50" relative="1" as="geometry">
            <mxPoint x="49.83666666666667" y="62.449999999999996" as="sourcePoint" />
            <mxPoint x="112.13250000000002" as="targetPoint" />
          </mxGeometry>
        </mxCell>
        <mxCell id="GC0I484NQkUeu95godri-2593" value="&lt;font style=&quot;font-size: 11px;&quot;&gt;12.3&lt;/font&gt;" style="text;html=1;align=center;verticalAlign=middle;resizable=0;points=[];autosize=1;strokeColor=none;fillColor=none;" vertex="1" parent="GC0I484NQkUeu95godri-2590">
          <mxGeometry x="-7.000121951219513" y="-5.9956097560975605" width="40" height="28" as="geometry" />
        </mxCell>
        <mxCell id="GC0I484NQkUeu95godri-2594" value="" style="endArrow=none;html=1;rounded=0;" edge="1" parent="GC0I484NQkUeu95godri-2590">
          <mxGeometry width="50" height="50" relative="1" as="geometry">
            <mxPoint x="28" y="16" as="sourcePoint" />
            <mxPoint x="28" as="targetPoint" />
          </mxGeometry>
        </mxCell>
        <mxCell id="GC0I484NQkUeu95godri-2601" value="" style="group" vertex="1" connectable="0" parent="GC0I484NQkUeu95godri-2572">
          <mxGeometry x="218" y="216" width="149.51" height="74.94" as="geometry" />
        </mxCell>
        <mxCell id="GC0I484NQkUeu95godri-2602" value="Megfelelőek a jogok?&lt;div&gt;(Csoporttulaj/admin?)&lt;/div&gt;" style="rounded=0;whiteSpace=wrap;html=1;" vertex="1" parent="GC0I484NQkUeu95godri-2601">
          <mxGeometry width="131.67" height="66" as="geometry" />
        </mxCell>
        <mxCell id="GC0I484NQkUeu95godri-2603" value="" style="endArrow=none;html=1;rounded=0;exitX=0;exitY=0.25;exitDx=0;exitDy=0;entryX=1;entryY=0.25;entryDx=0;entryDy=0;" edge="1" parent="GC0I484NQkUeu95godri-2601" source="GC0I484NQkUeu95godri-2602" target="GC0I484NQkUeu95godri-2602">
          <mxGeometry width="50" height="50" relative="1" as="geometry">
            <mxPoint x="49.83666666666667" y="62.449999999999996" as="sourcePoint" />
            <mxPoint x="112.13250000000002" as="targetPoint" />
          </mxGeometry>
        </mxCell>
        <mxCell id="GC0I484NQkUeu95godri-2604" value="&lt;font style=&quot;font-size: 11px;&quot;&gt;12.5&lt;/font&gt;" style="text;html=1;align=center;verticalAlign=middle;resizable=0;points=[];autosize=1;strokeColor=none;fillColor=none;" vertex="1" parent="GC0I484NQkUeu95godri-2601">
          <mxGeometry x="-7.000121951219513" y="-5.9956097560975605" width="40" height="28" as="geometry" />
        </mxCell>
        <mxCell id="GC0I484NQkUeu95godri-2605" value="" style="endArrow=none;html=1;rounded=0;" edge="1" parent="GC0I484NQkUeu95godri-2601">
          <mxGeometry width="50" height="50" relative="1" as="geometry">
            <mxPoint x="28" y="16" as="sourcePoint" />
            <mxPoint x="28" as="targetPoint" />
          </mxGeometry>
        </mxCell>
        <mxCell id="GC0I484NQkUeu95godri-2606" style="edgeStyle=orthogonalEdgeStyle;rounded=0;orthogonalLoop=1;jettySize=auto;html=1;" edge="1" parent="GC0I484NQkUeu95godri-2572" source="GC0I484NQkUeu95godri-2591" target="GC0I484NQkUeu95godri-2602">
          <mxGeometry relative="1" as="geometry" />
        </mxCell>
        <mxCell id="GC0I484NQkUeu95godri-2608" value="" style="group" vertex="1" connectable="0" parent="GC0I484NQkUeu95godri-2572">
          <mxGeometry x="150" y="94" width="24" height="31" as="geometry" />
        </mxCell>
        <mxCell id="GC0I484NQkUeu95godri-2609" value="" style="endArrow=none;html=1;rounded=0;" edge="1" parent="GC0I484NQkUeu95godri-2608">
          <mxGeometry width="50" height="50" relative="1" as="geometry">
            <mxPoint y="18" as="sourcePoint" />
            <mxPoint x="18" as="targetPoint" />
          </mxGeometry>
        </mxCell>
        <mxCell id="GC0I484NQkUeu95godri-2610" value="&lt;font style=&quot;font-size: 13px;&quot;&gt;*&lt;/font&gt;" style="text;html=1;align=center;verticalAlign=middle;resizable=0;points=[];autosize=1;strokeColor=none;fillColor=none;" vertex="1" parent="GC0I484NQkUeu95godri-2608">
          <mxGeometry y="1" width="24" height="30" as="geometry" />
        </mxCell>
        <mxCell id="GC0I484NQkUeu95godri-2611" value="" style="group" vertex="1" connectable="0" parent="1">
          <mxGeometry x="800" y="4164" width="184" height="82" as="geometry" />
        </mxCell>
        <mxCell id="GC0I484NQkUeu95godri-2612" value="Poszt" style="rounded=0;whiteSpace=wrap;html=1;" vertex="1" parent="GC0I484NQkUeu95godri-2611">
          <mxGeometry width="164" height="82" as="geometry" />
        </mxCell>
        <mxCell id="GC0I484NQkUeu95godri-2613" value="" style="endArrow=none;html=1;rounded=0;exitX=0;exitY=0.25;exitDx=0;exitDy=0;entryX=1;entryY=0.25;entryDx=0;entryDy=0;" edge="1" parent="GC0I484NQkUeu95godri-2611" source="GC0I484NQkUeu95godri-2612" target="GC0I484NQkUeu95godri-2612">
          <mxGeometry width="50" height="50" relative="1" as="geometry">
            <mxPoint x="54.66666666666667" y="68.33333333333333" as="sourcePoint" />
            <mxPoint x="123" as="targetPoint" />
          </mxGeometry>
        </mxCell>
        <mxCell id="GC0I484NQkUeu95godri-2614" value="" style="endArrow=none;html=1;rounded=0;exitX=0.25;exitY=0;exitDx=0;exitDy=0;" edge="1" parent="GC0I484NQkUeu95godri-2611" source="GC0I484NQkUeu95godri-2612">
          <mxGeometry width="50" height="50" relative="1" as="geometry">
            <mxPoint x="41" y="-6.833333333333334" as="sourcePoint" />
            <mxPoint x="41" y="20.5" as="targetPoint" />
          </mxGeometry>
        </mxCell>
        <mxCell id="GC0I484NQkUeu95godri-2615" value="&lt;font style=&quot;font-size: 11px;&quot;&gt;5&lt;/font&gt;" style="text;html=1;align=center;verticalAlign=middle;resizable=0;points=[];autosize=1;strokeColor=none;fillColor=none;" vertex="1" parent="GC0I484NQkUeu95godri-2611">
          <mxGeometry x="10" y="-4" width="26" height="28" as="geometry" />
        </mxCell>
        <mxCell id="GC0I484NQkUeu95godri-2616" value="Főoldal/csoport oldal" style="text;html=1;align=center;verticalAlign=middle;whiteSpace=wrap;rounded=0;" vertex="1" parent="GC0I484NQkUeu95godri-2611">
          <mxGeometry x="39" width="126" height="22" as="geometry" />
        </mxCell>
        <mxCell id="GC0I484NQkUeu95godri-2617" style="edgeStyle=orthogonalEdgeStyle;rounded=0;orthogonalLoop=1;jettySize=auto;html=1;" edge="1" parent="1" source="GC0I484NQkUeu95godri-2583" target="GC0I484NQkUeu95godri-2616">
          <mxGeometry relative="1" as="geometry">
            <Array as="points">
              <mxPoint x="692" y="4010" />
              <mxPoint x="794" y="4010" />
              <mxPoint x="794" y="4130" />
              <mxPoint x="902" y="4130" />
            </Array>
          </mxGeometry>
        </mxCell>
        <mxCell id="GC0I484NQkUeu95godri-2618" value="" style="group" vertex="1" connectable="0" parent="1">
          <mxGeometry x="710" y="3726" width="157" height="30.000000000000057" as="geometry" />
        </mxCell>
        <mxCell id="GC0I484NQkUeu95godri-2619" value="&amp;nbsp;L7" style="html=1;dashed=0;whiteSpace=wrap;shape=mxgraph.dfd.dataStoreID;align=left;spacingLeft=3;points=[[0,0],[0.5,0],[1,0],[0,0.5],[1,0.5],[0,1],[0.5,1],[1,1]];" vertex="1" parent="GC0I484NQkUeu95godri-2618">
          <mxGeometry width="152" height="30" as="geometry" />
        </mxCell>
        <mxCell id="GC0I484NQkUeu95godri-2620" value="" style="endArrow=none;html=1;rounded=0;entryX=0.078;entryY=0.005;entryDx=0;entryDy=0;entryPerimeter=0;exitX=0.077;exitY=1.001;exitDx=0;exitDy=0;exitPerimeter=0;" edge="1" parent="GC0I484NQkUeu95godri-2618">
          <mxGeometry width="50" height="50" relative="1" as="geometry">
            <mxPoint x="4.699999999999932" y="30.000000000000057" as="sourcePoint" />
            <mxPoint x="4.7999999999999545" y="0.12000000000000455" as="targetPoint" />
          </mxGeometry>
        </mxCell>
        <mxCell id="GC0I484NQkUeu95godri-2621" value="Csoportok" style="text;html=1;align=center;verticalAlign=middle;resizable=0;points=[];autosize=1;strokeColor=none;fillColor=none;" vertex="1" parent="GC0I484NQkUeu95godri-2618">
          <mxGeometry x="55" y="2" width="74" height="27" as="geometry" />
        </mxCell>
        <mxCell id="GC0I484NQkUeu95godri-2622" value="" style="group" vertex="1" connectable="0" parent="1">
          <mxGeometry x="828" y="3652" width="157" height="30.000000000000057" as="geometry" />
        </mxCell>
        <mxCell id="GC0I484NQkUeu95godri-2623" value="&amp;nbsp;L4" style="html=1;dashed=0;whiteSpace=wrap;shape=mxgraph.dfd.dataStoreID;align=left;spacingLeft=3;points=[[0,0],[0.5,0],[1,0],[0,0.5],[1,0.5],[0,1],[0.5,1],[1,1]];" vertex="1" parent="GC0I484NQkUeu95godri-2622">
          <mxGeometry width="152" height="30" as="geometry" />
        </mxCell>
        <mxCell id="GC0I484NQkUeu95godri-2624" value="" style="endArrow=none;html=1;rounded=0;entryX=0.078;entryY=0.005;entryDx=0;entryDy=0;entryPerimeter=0;exitX=0.077;exitY=1.001;exitDx=0;exitDy=0;exitPerimeter=0;" edge="1" parent="GC0I484NQkUeu95godri-2622">
          <mxGeometry width="50" height="50" relative="1" as="geometry">
            <mxPoint x="4.699999999999932" y="30.000000000000057" as="sourcePoint" />
            <mxPoint x="4.7999999999999545" y="0.12000000000000455" as="targetPoint" />
          </mxGeometry>
        </mxCell>
        <mxCell id="GC0I484NQkUeu95godri-2625" value="Képek" style="text;html=1;align=center;verticalAlign=middle;resizable=0;points=[];autosize=1;strokeColor=none;fillColor=none;" vertex="1" parent="GC0I484NQkUeu95godri-2622">
          <mxGeometry x="62" width="60" height="30" as="geometry" />
        </mxCell>
        <mxCell id="GC0I484NQkUeu95godri-2626" value="" style="group" vertex="1" connectable="0" parent="1">
          <mxGeometry x="622" y="3652" width="157" height="30.000000000000057" as="geometry" />
        </mxCell>
        <mxCell id="GC0I484NQkUeu95godri-2627" value="&amp;nbsp;L1" style="html=1;dashed=0;whiteSpace=wrap;shape=mxgraph.dfd.dataStoreID;align=left;spacingLeft=3;points=[[0,0],[0.5,0],[1,0],[0,0.5],[1,0.5],[0,1],[0.5,1],[1,1]];" vertex="1" parent="GC0I484NQkUeu95godri-2626">
          <mxGeometry width="152" height="30" as="geometry" />
        </mxCell>
        <mxCell id="GC0I484NQkUeu95godri-2628" value="" style="endArrow=none;html=1;rounded=0;entryX=0.078;entryY=0.005;entryDx=0;entryDy=0;entryPerimeter=0;exitX=0.077;exitY=1.001;exitDx=0;exitDy=0;exitPerimeter=0;" edge="1" parent="GC0I484NQkUeu95godri-2626">
          <mxGeometry width="50" height="50" relative="1" as="geometry">
            <mxPoint x="4.699999999999932" y="30.000000000000057" as="sourcePoint" />
            <mxPoint x="4.7999999999999545" y="0.12000000000000455" as="targetPoint" />
          </mxGeometry>
        </mxCell>
        <mxCell id="GC0I484NQkUeu95godri-2629" value="Felhasználói adatok" style="text;html=1;align=center;verticalAlign=middle;resizable=0;points=[];autosize=1;strokeColor=none;fillColor=none;" vertex="1" parent="GC0I484NQkUeu95godri-2626">
          <mxGeometry x="27" width="130" height="30" as="geometry" />
        </mxCell>
        <mxCell id="GC0I484NQkUeu95godri-2630" style="edgeStyle=orthogonalEdgeStyle;rounded=0;orthogonalLoop=1;jettySize=auto;html=1;" edge="1" parent="1" source="GC0I484NQkUeu95godri-2629" target="GC0I484NQkUeu95godri-2621">
          <mxGeometry relative="1" as="geometry" />
        </mxCell>
        <mxCell id="GC0I484NQkUeu95godri-2631" style="edgeStyle=orthogonalEdgeStyle;rounded=0;orthogonalLoop=1;jettySize=auto;html=1;entryX=0.766;entryY=-0.044;entryDx=0;entryDy=0;entryPerimeter=0;" edge="1" parent="1" source="GC0I484NQkUeu95godri-2625" target="GC0I484NQkUeu95godri-2621">
          <mxGeometry relative="1" as="geometry">
            <Array as="points">
              <mxPoint x="920" y="3694" />
              <mxPoint x="822" y="3694" />
            </Array>
          </mxGeometry>
        </mxCell>
        <mxCell id="GC0I484NQkUeu95godri-2632" style="edgeStyle=orthogonalEdgeStyle;rounded=0;orthogonalLoop=1;jettySize=auto;html=1;entryX=1;entryY=0.5;entryDx=0;entryDy=0;" edge="1" parent="1" source="GC0I484NQkUeu95godri-2621" target="GC0I484NQkUeu95godri-2583">
          <mxGeometry relative="1" as="geometry">
            <Array as="points">
              <mxPoint x="800" y="3846" />
              <mxPoint x="778" y="3846" />
              <mxPoint x="778" y="3969" />
            </Array>
          </mxGeometry>
        </mxCell>
        <mxCell id="GC0I484NQkUeu95godri-2634" value="" style="group" vertex="1" connectable="0" parent="1">
          <mxGeometry x="268" y="3906.003333333333" width="164" height="82" as="geometry" />
        </mxCell>
        <mxCell id="GC0I484NQkUeu95godri-2635" value="Sikeres bejelentkezés esetén" style="rounded=0;whiteSpace=wrap;html=1;" vertex="1" parent="GC0I484NQkUeu95godri-2634">
          <mxGeometry width="164" height="82" as="geometry" />
        </mxCell>
        <mxCell id="GC0I484NQkUeu95godri-2636" value="" style="endArrow=none;html=1;rounded=0;exitX=0;exitY=0.25;exitDx=0;exitDy=0;entryX=1;entryY=0.25;entryDx=0;entryDy=0;" edge="1" parent="GC0I484NQkUeu95godri-2634" source="GC0I484NQkUeu95godri-2635" target="GC0I484NQkUeu95godri-2635">
          <mxGeometry width="50" height="50" relative="1" as="geometry">
            <mxPoint x="54.66666666666667" y="68.33333333333333" as="sourcePoint" />
            <mxPoint x="123" as="targetPoint" />
          </mxGeometry>
        </mxCell>
        <mxCell id="GC0I484NQkUeu95godri-2637" value="" style="endArrow=none;html=1;rounded=0;exitX=0.25;exitY=0;exitDx=0;exitDy=0;" edge="1" parent="GC0I484NQkUeu95godri-2634" source="GC0I484NQkUeu95godri-2635">
          <mxGeometry width="50" height="50" relative="1" as="geometry">
            <mxPoint x="41" y="-6.833333333333334" as="sourcePoint" />
            <mxPoint x="41" y="20.5" as="targetPoint" />
          </mxGeometry>
        </mxCell>
        <mxCell id="GC0I484NQkUeu95godri-2638" value="&lt;font style=&quot;font-size: 11px;&quot;&gt;1&lt;/font&gt;" style="text;html=1;align=center;verticalAlign=middle;resizable=0;points=[];autosize=1;strokeColor=none;fillColor=none;" vertex="1" parent="GC0I484NQkUeu95godri-2634">
          <mxGeometry x="8" y="-5" width="30" height="30" as="geometry" />
        </mxCell>
        <mxCell id="GC0I484NQkUeu95godri-2639" value="Főoldal" style="text;html=1;align=center;verticalAlign=middle;resizable=0;points=[];autosize=1;strokeColor=none;fillColor=none;" vertex="1" parent="GC0I484NQkUeu95godri-2634">
          <mxGeometry x="66" y="-4.00333333333333" width="58" height="28" as="geometry" />
        </mxCell>
        <mxCell id="GC0I484NQkUeu95godri-2640" style="edgeStyle=orthogonalEdgeStyle;rounded=0;orthogonalLoop=1;jettySize=auto;html=1;entryX=0;entryY=0.5;entryDx=0;entryDy=0;" edge="1" parent="1" source="GC0I484NQkUeu95godri-2635" target="GC0I484NQkUeu95godri-2578">
          <mxGeometry relative="1" as="geometry">
            <Array as="points">
              <mxPoint x="549" y="3926" />
              <mxPoint x="549" y="3887" />
            </Array>
          </mxGeometry>
        </mxCell>
        <mxCell id="GC0I484NQkUeu95godri-2641" style="edgeStyle=orthogonalEdgeStyle;rounded=0;orthogonalLoop=1;jettySize=auto;html=1;entryX=0;entryY=0.5;entryDx=0;entryDy=0;" edge="1" parent="1" source="GC0I484NQkUeu95godri-2635" target="GC0I484NQkUeu95godri-2583">
          <mxGeometry relative="1" as="geometry" />
        </mxCell>
        <mxCell id="GC0I484NQkUeu95godri-2642" style="edgeStyle=orthogonalEdgeStyle;rounded=0;orthogonalLoop=1;jettySize=auto;html=1;entryX=0;entryY=0.5;entryDx=0;entryDy=0;" edge="1" parent="1" source="GC0I484NQkUeu95godri-2635" target="GC0I484NQkUeu95godri-2591">
          <mxGeometry relative="1" as="geometry">
            <Array as="points">
              <mxPoint x="549" y="3982" />
              <mxPoint x="549" y="4053" />
            </Array>
          </mxGeometry>
        </mxCell>
        <mxCell id="GC0I484NQkUeu95godri-2643" value="Csoport létrehozása" style="text;html=1;align=center;verticalAlign=middle;resizable=0;points=[];autosize=1;strokeColor=none;fillColor=none;" vertex="1" parent="1">
          <mxGeometry x="428" y="3903" width="126" height="28" as="geometry" />
        </mxCell>
        <mxCell id="GC0I484NQkUeu95godri-2644" value="Csoport megtekintése" style="text;html=1;align=center;verticalAlign=middle;resizable=0;points=[];autosize=1;strokeColor=none;fillColor=none;" vertex="1" parent="1">
          <mxGeometry x="426" y="3924" width="136" height="28" as="geometry" />
        </mxCell>
        <mxCell id="GC0I484NQkUeu95godri-2645" value="&lt;span style=&quot;color: rgb(0, 0, 0); font-family: Helvetica; font-size: 12px; font-style: normal; font-variant-ligatures: normal; font-variant-caps: normal; font-weight: 400; letter-spacing: normal; orphans: 2; text-align: center; text-indent: 0px; text-transform: none; widows: 2; word-spacing: 0px; -webkit-text-stroke-width: 0px; white-space: nowrap; background-color: rgb(251, 251, 251); text-decoration-thickness: initial; text-decoration-style: initial; text-decoration-color: initial; display: inline !important; float: none;&quot;&gt;Csoport kezelése&lt;/span&gt;" style="text;whiteSpace=wrap;html=1;" vertex="1" parent="1">
          <mxGeometry x="438" y="3978" width="128" height="30" as="geometry" />
        </mxCell>
        <mxCell id="GC0I484NQkUeu95godri-2646" style="edgeStyle=orthogonalEdgeStyle;rounded=0;orthogonalLoop=1;jettySize=auto;html=1;entryX=0.5;entryY=0;entryDx=0;entryDy=0;" edge="1" parent="1" source="GC0I484NQkUeu95godri-2578" target="GC0I484NQkUeu95godri-2635">
          <mxGeometry relative="1" as="geometry">
            <Array as="points">
              <mxPoint x="692" y="3848" />
              <mxPoint x="350" y="3848" />
            </Array>
          </mxGeometry>
        </mxCell>
        <mxCell id="GC0I484NQkUeu95godri-2647" value="Hibaüzenet" style="text;html=1;align=center;verticalAlign=middle;resizable=0;points=[];autosize=1;strokeColor=none;fillColor=none;" vertex="1" parent="1">
          <mxGeometry x="346" y="3845" width="80" height="28" as="geometry" />
        </mxCell>
        <mxCell id="GC0I484NQkUeu95godri-2648" value="" style="group" vertex="1" connectable="0" parent="1">
          <mxGeometry x="740" y="4068" width="24" height="31" as="geometry" />
        </mxCell>
        <mxCell id="GC0I484NQkUeu95godri-2649" value="" style="endArrow=none;html=1;rounded=0;" edge="1" parent="GC0I484NQkUeu95godri-2648">
          <mxGeometry width="50" height="50" relative="1" as="geometry">
            <mxPoint y="18" as="sourcePoint" />
            <mxPoint x="18" as="targetPoint" />
          </mxGeometry>
        </mxCell>
        <mxCell id="GC0I484NQkUeu95godri-2650" value="&lt;font style=&quot;font-size: 13px;&quot;&gt;*&lt;/font&gt;" style="text;html=1;align=center;verticalAlign=middle;resizable=0;points=[];autosize=1;strokeColor=none;fillColor=none;" vertex="1" parent="GC0I484NQkUeu95godri-2648">
          <mxGeometry y="1" width="24" height="30" as="geometry" />
        </mxCell>
        <mxCell id="GC0I484NQkUeu95godri-2654" value="" style="group" vertex="1" connectable="0" parent="1">
          <mxGeometry x="922" y="4072" width="24" height="31" as="geometry" />
        </mxCell>
        <mxCell id="GC0I484NQkUeu95godri-2655" value="" style="endArrow=none;html=1;rounded=0;" edge="1" parent="GC0I484NQkUeu95godri-2654">
          <mxGeometry width="50" height="50" relative="1" as="geometry">
            <mxPoint y="18" as="sourcePoint" />
            <mxPoint x="18" as="targetPoint" />
          </mxGeometry>
        </mxCell>
        <mxCell id="GC0I484NQkUeu95godri-2656" value="&lt;font style=&quot;font-size: 13px;&quot;&gt;*&lt;/font&gt;" style="text;html=1;align=center;verticalAlign=middle;resizable=0;points=[];autosize=1;strokeColor=none;fillColor=none;" vertex="1" parent="GC0I484NQkUeu95godri-2654">
          <mxGeometry y="1" width="24" height="30" as="geometry" />
        </mxCell>
        <mxCell id="GC0I484NQkUeu95godri-2657" value="" style="group" vertex="1" connectable="0" parent="1">
          <mxGeometry x="-396" y="4116" width="327.51" height="218" as="geometry" />
        </mxCell>
        <mxCell id="GC0I484NQkUeu95godri-2658" value="" style="rounded=0;whiteSpace=wrap;html=1;" vertex="1" parent="GC0I484NQkUeu95godri-2657">
          <mxGeometry width="315.99999999999994" height="218" as="geometry" />
        </mxCell>
        <mxCell id="GC0I484NQkUeu95godri-2659" value="" style="endArrow=none;html=1;rounded=0;exitX=0;exitY=0.25;exitDx=0;exitDy=0;entryX=1;entryY=0.25;entryDx=0;entryDy=0;" edge="1" parent="GC0I484NQkUeu95godri-2657">
          <mxGeometry width="50" height="50" relative="1" as="geometry">
            <mxPoint y="15.37179487179487" as="sourcePoint" />
            <mxPoint x="316" y="15.37179487179487" as="targetPoint" />
          </mxGeometry>
        </mxCell>
        <mxCell id="GC0I484NQkUeu95godri-2660" value="" style="endArrow=none;html=1;rounded=0;" edge="1" parent="GC0I484NQkUeu95godri-2657">
          <mxGeometry width="50" height="50" relative="1" as="geometry">
            <mxPoint x="59.78378378378379" y="15.37179487179487" as="sourcePoint" />
            <mxPoint x="59.78378378378379" as="targetPoint" />
          </mxGeometry>
        </mxCell>
        <mxCell id="GC0I484NQkUeu95godri-2661" value="15" style="text;html=1;align=center;verticalAlign=middle;whiteSpace=wrap;rounded=0;" vertex="1" parent="GC0I484NQkUeu95godri-2657">
          <mxGeometry x="2.562162162162162" y="-2.096153846153846" width="51.24324324324325" height="20.96153846153846" as="geometry" />
        </mxCell>
        <mxCell id="GC0I484NQkUeu95godri-2662" value="" style="group" vertex="1" connectable="0" parent="GC0I484NQkUeu95godri-2657">
          <mxGeometry x="16" y="28" width="149.51" height="79" as="geometry" />
        </mxCell>
        <mxCell id="GC0I484NQkUeu95godri-2663" value="Eléri az ismerős korlátot?" style="rounded=0;whiteSpace=wrap;html=1;" vertex="1" parent="GC0I484NQkUeu95godri-2662">
          <mxGeometry width="131.67" height="66" as="geometry" />
        </mxCell>
        <mxCell id="GC0I484NQkUeu95godri-2664" value="" style="endArrow=none;html=1;rounded=0;exitX=0;exitY=0.25;exitDx=0;exitDy=0;entryX=1;entryY=0.25;entryDx=0;entryDy=0;" edge="1" parent="GC0I484NQkUeu95godri-2662" source="GC0I484NQkUeu95godri-2663" target="GC0I484NQkUeu95godri-2663">
          <mxGeometry width="50" height="50" relative="1" as="geometry">
            <mxPoint x="49.83666666666667" y="62.449999999999996" as="sourcePoint" />
            <mxPoint x="112.13250000000002" as="targetPoint" />
          </mxGeometry>
        </mxCell>
        <mxCell id="GC0I484NQkUeu95godri-2665" value="&lt;font style=&quot;font-size: 11px;&quot;&gt;15.1&lt;/font&gt;" style="text;html=1;align=center;verticalAlign=middle;resizable=0;points=[];autosize=1;strokeColor=none;fillColor=none;" vertex="1" parent="GC0I484NQkUeu95godri-2662">
          <mxGeometry x="-7.000121951219513" y="-5.9956097560975605" width="40" height="28" as="geometry" />
        </mxCell>
        <mxCell id="GC0I484NQkUeu95godri-2666" value="" style="endArrow=none;html=1;rounded=0;" edge="1" parent="GC0I484NQkUeu95godri-2662">
          <mxGeometry width="50" height="50" relative="1" as="geometry">
            <mxPoint x="28" y="16" as="sourcePoint" />
            <mxPoint x="28" as="targetPoint" />
          </mxGeometry>
        </mxCell>
        <mxCell id="GC0I484NQkUeu95godri-2667" value="" style="group" vertex="1" connectable="0" parent="GC0I484NQkUeu95godri-2662">
          <mxGeometry x="112" y="48" width="24" height="31" as="geometry" />
        </mxCell>
        <mxCell id="GC0I484NQkUeu95godri-2668" value="" style="endArrow=none;html=1;rounded=0;" edge="1" parent="GC0I484NQkUeu95godri-2667">
          <mxGeometry width="50" height="50" relative="1" as="geometry">
            <mxPoint y="18" as="sourcePoint" />
            <mxPoint x="18" as="targetPoint" />
          </mxGeometry>
        </mxCell>
        <mxCell id="GC0I484NQkUeu95godri-2669" value="&lt;font style=&quot;font-size: 13px;&quot;&gt;*&lt;/font&gt;" style="text;html=1;align=center;verticalAlign=middle;resizable=0;points=[];autosize=1;strokeColor=none;fillColor=none;" vertex="1" parent="GC0I484NQkUeu95godri-2667">
          <mxGeometry y="1" width="24" height="30" as="geometry" />
        </mxCell>
        <mxCell id="GC0I484NQkUeu95godri-2678" value="" style="group" vertex="1" connectable="0" parent="GC0I484NQkUeu95godri-2657">
          <mxGeometry x="16" y="108" width="149.51" height="74.94" as="geometry" />
        </mxCell>
        <mxCell id="GC0I484NQkUeu95godri-2679" value="Törli az ismerőst?" style="rounded=0;whiteSpace=wrap;html=1;" vertex="1" parent="GC0I484NQkUeu95godri-2678">
          <mxGeometry width="131.67" height="66" as="geometry" />
        </mxCell>
        <mxCell id="GC0I484NQkUeu95godri-2680" value="" style="endArrow=none;html=1;rounded=0;exitX=0;exitY=0.25;exitDx=0;exitDy=0;entryX=1;entryY=0.25;entryDx=0;entryDy=0;" edge="1" parent="GC0I484NQkUeu95godri-2678" source="GC0I484NQkUeu95godri-2679" target="GC0I484NQkUeu95godri-2679">
          <mxGeometry width="50" height="50" relative="1" as="geometry">
            <mxPoint x="49.83666666666667" y="62.449999999999996" as="sourcePoint" />
            <mxPoint x="112.13250000000002" as="targetPoint" />
          </mxGeometry>
        </mxCell>
        <mxCell id="GC0I484NQkUeu95godri-2681" value="&lt;font style=&quot;font-size: 11px;&quot;&gt;15.2&lt;/font&gt;" style="text;html=1;align=center;verticalAlign=middle;resizable=0;points=[];autosize=1;strokeColor=none;fillColor=none;" vertex="1" parent="GC0I484NQkUeu95godri-2678">
          <mxGeometry x="-7.000121951219513" y="-5.9956097560975605" width="40" height="28" as="geometry" />
        </mxCell>
        <mxCell id="GC0I484NQkUeu95godri-2682" value="" style="endArrow=none;html=1;rounded=0;" edge="1" parent="GC0I484NQkUeu95godri-2678">
          <mxGeometry width="50" height="50" relative="1" as="geometry">
            <mxPoint x="28" y="16" as="sourcePoint" />
            <mxPoint x="28" as="targetPoint" />
          </mxGeometry>
        </mxCell>
        <mxCell id="GC0I484NQkUeu95godri-2685" value="" style="group" vertex="1" connectable="0" parent="1">
          <mxGeometry x="-712" y="4178.003333333333" width="164" height="82" as="geometry" />
        </mxCell>
        <mxCell id="GC0I484NQkUeu95godri-2686" value="Sikeres bejelentkezés esetén" style="rounded=0;whiteSpace=wrap;html=1;" vertex="1" parent="GC0I484NQkUeu95godri-2685">
          <mxGeometry width="164" height="82" as="geometry" />
        </mxCell>
        <mxCell id="GC0I484NQkUeu95godri-2687" value="" style="endArrow=none;html=1;rounded=0;exitX=0;exitY=0.25;exitDx=0;exitDy=0;entryX=1;entryY=0.25;entryDx=0;entryDy=0;" edge="1" parent="GC0I484NQkUeu95godri-2685" source="GC0I484NQkUeu95godri-2686" target="GC0I484NQkUeu95godri-2686">
          <mxGeometry width="50" height="50" relative="1" as="geometry">
            <mxPoint x="54.66666666666667" y="68.33333333333333" as="sourcePoint" />
            <mxPoint x="123" as="targetPoint" />
          </mxGeometry>
        </mxCell>
        <mxCell id="GC0I484NQkUeu95godri-2688" value="" style="endArrow=none;html=1;rounded=0;exitX=0.25;exitY=0;exitDx=0;exitDy=0;" edge="1" parent="GC0I484NQkUeu95godri-2685" source="GC0I484NQkUeu95godri-2686">
          <mxGeometry width="50" height="50" relative="1" as="geometry">
            <mxPoint x="41" y="-6.833333333333334" as="sourcePoint" />
            <mxPoint x="41" y="20.5" as="targetPoint" />
          </mxGeometry>
        </mxCell>
        <mxCell id="GC0I484NQkUeu95godri-2689" value="&lt;font style=&quot;font-size: 11px;&quot;&gt;1&lt;/font&gt;" style="text;html=1;align=center;verticalAlign=middle;resizable=0;points=[];autosize=1;strokeColor=none;fillColor=none;" vertex="1" parent="GC0I484NQkUeu95godri-2685">
          <mxGeometry x="8" y="-5" width="30" height="30" as="geometry" />
        </mxCell>
        <mxCell id="GC0I484NQkUeu95godri-2690" value="Főoldal" style="text;html=1;align=center;verticalAlign=middle;resizable=0;points=[];autosize=1;strokeColor=none;fillColor=none;" vertex="1" parent="GC0I484NQkUeu95godri-2685">
          <mxGeometry x="66" y="-4.00333333333333" width="58" height="28" as="geometry" />
        </mxCell>
        <mxCell id="GC0I484NQkUeu95godri-2691" value="" style="group" vertex="1" connectable="0" parent="1">
          <mxGeometry x="-310" y="4366" width="157" height="30.000000000000057" as="geometry" />
        </mxCell>
        <mxCell id="GC0I484NQkUeu95godri-2692" value="&amp;nbsp;L8" style="html=1;dashed=0;whiteSpace=wrap;shape=mxgraph.dfd.dataStoreID;align=left;spacingLeft=3;points=[[0,0],[0.5,0],[1,0],[0,0.5],[1,0.5],[0,1],[0.5,1],[1,1]];" vertex="1" parent="GC0I484NQkUeu95godri-2691">
          <mxGeometry width="152" height="30" as="geometry" />
        </mxCell>
        <mxCell id="GC0I484NQkUeu95godri-2693" value="" style="endArrow=none;html=1;rounded=0;entryX=0.078;entryY=0.005;entryDx=0;entryDy=0;entryPerimeter=0;exitX=0.077;exitY=1.001;exitDx=0;exitDy=0;exitPerimeter=0;" edge="1" parent="GC0I484NQkUeu95godri-2691">
          <mxGeometry width="50" height="50" relative="1" as="geometry">
            <mxPoint x="4.699999999999932" y="30.000000000000057" as="sourcePoint" />
            <mxPoint x="4.7999999999999545" y="0.12000000000000455" as="targetPoint" />
          </mxGeometry>
        </mxCell>
        <mxCell id="GC0I484NQkUeu95godri-2694" value="Ismerősök" style="text;html=1;align=center;verticalAlign=middle;resizable=0;points=[];autosize=1;strokeColor=none;fillColor=none;" vertex="1" parent="GC0I484NQkUeu95godri-2691">
          <mxGeometry x="55" y="2" width="74" height="27" as="geometry" />
        </mxCell>
        <mxCell id="GC0I484NQkUeu95godri-2695" style="edgeStyle=orthogonalEdgeStyle;rounded=0;orthogonalLoop=1;jettySize=auto;html=1;entryX=0;entryY=0.5;entryDx=0;entryDy=0;" edge="1" parent="1" source="GC0I484NQkUeu95godri-2686" target="GC0I484NQkUeu95godri-2663">
          <mxGeometry relative="1" as="geometry">
            <Array as="points">
              <mxPoint x="-432" y="4214" />
              <mxPoint x="-432" y="4177" />
            </Array>
          </mxGeometry>
        </mxCell>
        <mxCell id="GC0I484NQkUeu95godri-2696" style="edgeStyle=orthogonalEdgeStyle;rounded=0;orthogonalLoop=1;jettySize=auto;html=1;entryX=0;entryY=0.5;entryDx=0;entryDy=0;" edge="1" parent="1" source="GC0I484NQkUeu95godri-2686" target="GC0I484NQkUeu95godri-2679">
          <mxGeometry relative="1" as="geometry">
            <Array as="points">
              <mxPoint x="-448" y="4219" />
              <mxPoint x="-448" y="4257" />
            </Array>
          </mxGeometry>
        </mxCell>
        <mxCell id="GC0I484NQkUeu95godri-2697" value="Ismerősnek jelöl" style="text;html=1;align=center;verticalAlign=middle;resizable=0;points=[];autosize=1;strokeColor=none;fillColor=none;" vertex="1" parent="1">
          <mxGeometry x="-548" y="4192" width="106" height="28" as="geometry" />
        </mxCell>
        <mxCell id="GC0I484NQkUeu95godri-2698" value="Ismerőst töröl" style="text;html=1;align=center;verticalAlign=middle;resizable=0;points=[];autosize=1;strokeColor=none;fillColor=none;" vertex="1" parent="1">
          <mxGeometry x="-546" y="4214" width="92" height="28" as="geometry" />
        </mxCell>
        <mxCell id="GC0I484NQkUeu95godri-2699" style="edgeStyle=orthogonalEdgeStyle;rounded=0;orthogonalLoop=1;jettySize=auto;html=1;entryX=0.75;entryY=0;entryDx=0;entryDy=0;" edge="1" parent="1" source="GC0I484NQkUeu95godri-2663" target="GC0I484NQkUeu95godri-2686">
          <mxGeometry relative="1" as="geometry">
            <Array as="points">
              <mxPoint x="-314" y="4136" />
              <mxPoint x="-589" y="4136" />
            </Array>
          </mxGeometry>
        </mxCell>
        <mxCell id="GC0I484NQkUeu95godri-2700" value="Hibaüzenet" style="text;html=1;align=center;verticalAlign=middle;resizable=0;points=[];autosize=1;strokeColor=none;fillColor=none;" vertex="1" parent="1">
          <mxGeometry x="-570" y="4112" width="80" height="28" as="geometry" />
        </mxCell>
        <mxCell id="GC0I484NQkUeu95godri-2701" value="" style="group" vertex="1" connectable="0" parent="1">
          <mxGeometry x="-16" y="4183" width="120" height="80" as="geometry" />
        </mxCell>
        <mxCell id="GC0I484NQkUeu95godri-2702" value="Felhasználó" style="ellipse;whiteSpace=wrap;html=1;" vertex="1" parent="GC0I484NQkUeu95godri-2701">
          <mxGeometry width="120" height="80" as="geometry" />
        </mxCell>
        <mxCell id="GC0I484NQkUeu95godri-2703" value="" style="endArrow=none;html=1;rounded=0;exitX=0.009;exitY=0.595;exitDx=0;exitDy=0;exitPerimeter=0;entryX=0.426;entryY=0.004;entryDx=0;entryDy=0;entryPerimeter=0;" edge="1" parent="GC0I484NQkUeu95godri-2701" source="GC0I484NQkUeu95godri-2702" target="GC0I484NQkUeu95godri-2702">
          <mxGeometry width="50" height="50" relative="1" as="geometry">
            <mxPoint y="50" as="sourcePoint" />
            <mxPoint x="50" as="targetPoint" />
          </mxGeometry>
        </mxCell>
        <mxCell id="GC0I484NQkUeu95godri-2705" value="" style="group" vertex="1" connectable="0" parent="1">
          <mxGeometry x="-268" y="4272" width="24" height="31" as="geometry" />
        </mxCell>
        <mxCell id="GC0I484NQkUeu95godri-2706" value="" style="endArrow=none;html=1;rounded=0;" edge="1" parent="GC0I484NQkUeu95godri-2705">
          <mxGeometry width="50" height="50" relative="1" as="geometry">
            <mxPoint y="18" as="sourcePoint" />
            <mxPoint x="18" as="targetPoint" />
          </mxGeometry>
        </mxCell>
        <mxCell id="GC0I484NQkUeu95godri-2707" value="&lt;font style=&quot;font-size: 13px;&quot;&gt;*&lt;/font&gt;" style="text;html=1;align=center;verticalAlign=middle;resizable=0;points=[];autosize=1;strokeColor=none;fillColor=none;" vertex="1" parent="GC0I484NQkUeu95godri-2705">
          <mxGeometry y="1" width="24" height="30" as="geometry" />
        </mxCell>
        <mxCell id="GC0I484NQkUeu95godri-2709" style="edgeStyle=orthogonalEdgeStyle;rounded=0;orthogonalLoop=1;jettySize=auto;html=1;entryX=1;entryY=0.5;entryDx=0;entryDy=0;" edge="1" parent="1" source="GC0I484NQkUeu95godri-2262" target="GC0I484NQkUeu95godri-2319">
          <mxGeometry relative="1" as="geometry">
            <Array as="points">
              <mxPoint x="-90" y="2629" />
              <mxPoint x="-90" y="2501" />
            </Array>
          </mxGeometry>
        </mxCell>
        <mxCell id="GC0I484NQkUeu95godri-2291" style="edgeStyle=orthogonalEdgeStyle;rounded=0;orthogonalLoop=1;jettySize=auto;html=1;entryX=0.819;entryY=-0.011;entryDx=0;entryDy=0;entryPerimeter=0;" edge="1" parent="1" source="GC0I484NQkUeu95godri-2275" target="GC0I484NQkUeu95godri-2321">
          <mxGeometry relative="1" as="geometry">
            <mxPoint x="-32.16500000000019" y="2708" as="targetPoint" />
            <Array as="points">
              <mxPoint x="-26" y="2474" />
              <mxPoint x="-148" y="2474" />
            </Array>
          </mxGeometry>
        </mxCell>
        <mxCell id="GC0I484NQkUeu95godri-2713" style="edgeStyle=orthogonalEdgeStyle;rounded=0;orthogonalLoop=1;jettySize=auto;html=1;entryX=0.5;entryY=1;entryDx=0;entryDy=0;" edge="1" parent="1" source="GC0I484NQkUeu95godri-1104" target="GC0I484NQkUeu95godri-1088">
          <mxGeometry relative="1" as="geometry" />
        </mxCell>
        <mxCell id="GC0I484NQkUeu95godri-2714" style="edgeStyle=orthogonalEdgeStyle;rounded=0;orthogonalLoop=1;jettySize=auto;html=1;entryX=0;entryY=0.5;entryDx=0;entryDy=0;" edge="1" parent="1" source="GC0I484NQkUeu95godri-1104" target="GC0I484NQkUeu95godri-1100">
          <mxGeometry relative="1" as="geometry">
            <Array as="points">
              <mxPoint x="637" y="3278" />
              <mxPoint x="637" y="3531" />
            </Array>
          </mxGeometry>
        </mxCell>
        <mxCell id="GC0I484NQkUeu95godri-2715" style="edgeStyle=orthogonalEdgeStyle;rounded=0;orthogonalLoop=1;jettySize=auto;html=1;entryX=1.001;entryY=0.527;entryDx=0;entryDy=0;entryPerimeter=0;" edge="1" parent="1" source="GC0I484NQkUeu95godri-1124" target="GC0I484NQkUeu95godri-1102">
          <mxGeometry relative="1" as="geometry" />
        </mxCell>
        <mxCell id="GC0I484NQkUeu95godri-2716" style="edgeStyle=orthogonalEdgeStyle;rounded=0;orthogonalLoop=1;jettySize=auto;html=1;entryX=0.751;entryY=1.039;entryDx=0;entryDy=0;entryPerimeter=0;" edge="1" parent="1" source="GC0I484NQkUeu95godri-2578" target="GC0I484NQkUeu95godri-2621">
          <mxGeometry relative="1" as="geometry" />
        </mxCell>
        <mxCell id="GC0I484NQkUeu95godri-2717" style="edgeStyle=orthogonalEdgeStyle;rounded=0;orthogonalLoop=1;jettySize=auto;html=1;entryX=0.917;entryY=1.002;entryDx=0;entryDy=0;entryPerimeter=0;" edge="1" parent="1" source="GC0I484NQkUeu95godri-2602" target="GC0I484NQkUeu95godri-2619">
          <mxGeometry relative="1" as="geometry" />
        </mxCell>
        <mxCell id="GC0I484NQkUeu95godri-2721" style="edgeStyle=orthogonalEdgeStyle;rounded=0;orthogonalLoop=1;jettySize=auto;html=1;entryX=0;entryY=0;entryDx=0;entryDy=0;" edge="1" parent="1" source="GC0I484NQkUeu95godri-2663" target="GC0I484NQkUeu95godri-2702">
          <mxGeometry relative="1" as="geometry" />
        </mxCell>
        <mxCell id="GC0I484NQkUeu95godri-2723" style="edgeStyle=orthogonalEdgeStyle;rounded=0;orthogonalLoop=1;jettySize=auto;html=1;entryX=0;entryY=0.5;entryDx=0;entryDy=0;" edge="1" parent="1" source="GC0I484NQkUeu95godri-2679" target="GC0I484NQkUeu95godri-2702">
          <mxGeometry relative="1" as="geometry" />
        </mxCell>
        <mxCell id="GC0I484NQkUeu95godri-2724" style="edgeStyle=orthogonalEdgeStyle;rounded=0;orthogonalLoop=1;jettySize=auto;html=1;entryX=0.451;entryY=-0.058;entryDx=0;entryDy=0;entryPerimeter=0;" edge="1" parent="1" source="GC0I484NQkUeu95godri-2679" target="GC0I484NQkUeu95godri-2694">
          <mxGeometry relative="1" as="geometry" />
        </mxCell>
        <mxCell id="GC0I484NQkUeu95godri-2727" style="edgeStyle=orthogonalEdgeStyle;rounded=0;orthogonalLoop=1;jettySize=auto;html=1;entryX=0.5;entryY=1;entryDx=0;entryDy=0;" edge="1" parent="1" source="GC0I484NQkUeu95godri-2486" target="GC0I484NQkUeu95godri-2562">
          <mxGeometry relative="1" as="geometry" />
        </mxCell>
        <mxCell id="GC0I484NQkUeu95godri-2730" style="edgeStyle=orthogonalEdgeStyle;rounded=0;orthogonalLoop=1;jettySize=auto;html=1;exitX=1;exitY=0.5;exitDx=0;exitDy=0;entryX=0.5;entryY=1;entryDx=0;entryDy=0;" edge="1" parent="1" source="GC0I484NQkUeu95godri-2430" target="GC0I484NQkUeu95godri-2465">
          <mxGeometry relative="1" as="geometry">
            <Array as="points">
              <mxPoint x="-154" y="3323" />
              <mxPoint x="-154" y="3144" />
              <mxPoint x="-356" y="3144" />
            </Array>
          </mxGeometry>
        </mxCell>
        <mxCell id="GC0I484NQkUeu95godri-2731" style="edgeStyle=orthogonalEdgeStyle;rounded=0;orthogonalLoop=1;jettySize=auto;html=1;entryX=0.305;entryY=-0.034;entryDx=0;entryDy=0;entryPerimeter=0;" edge="1" parent="1" source="GC0I484NQkUeu95godri-2467" target="GC0I484NQkUeu95godri-2463">
          <mxGeometry relative="1" as="geometry">
            <Array as="points">
              <mxPoint x="-356" y="3076" />
              <mxPoint x="-179" y="3076" />
            </Array>
          </mxGeometry>
        </mxCell>
      </root>
    </mxGraphModel>
  </diagram>
</mxfile>
